<svg width="37" height="12" viewBox="0 0 37 12" fill="none" xmlns="http://www.w3.org/2000/svg">
<path d="M3.332 10.3V7.528H0.56V6.072H3.332V3.3H4.788V6.072H7.56V7.528H4.788V10.3H3.332ZM15.6074 1.2H17.3084L20.8714 11H19.3314L18.6524 9.138H14.2634L13.5914 11H12.0444L15.6074 1.2ZM14.8024 7.682H18.1134L16.4544 3.132L14.8024 7.682ZM27.0332 0.499999H28.4892V11H27.0332V9.971C26.8046 10.335 26.5059 10.629 26.1372 10.853C25.7686 11.0723 25.3369 11.182 24.8422 11.182C24.3336 11.182 23.8576 11.0863 23.4142 10.895C22.9709 10.7037 22.5789 10.44 22.2382 10.104C21.9022 9.76333 21.6386 9.37133 21.4472 8.928C21.2559 8.48467 21.1602 8.00867 21.1602 7.5C21.1602 6.99133 21.2559 6.51533 21.4472 6.072C21.6386 5.624 21.9022 5.232 22.2382 4.896C22.5789 4.55533 22.9709 4.28933 23.4142 4.098C23.8576 3.90667 24.3336 3.811 24.8422 3.811C25.3369 3.811 25.7686 3.923 26.1372 4.147C26.5059 4.36633 26.8046 4.65567 27.0332 5.015V0.499999ZM24.8562 9.775C25.2669 9.775 25.6262 9.67467 25.9342 9.474C26.2422 9.26867 26.4802 8.99333 26.6482 8.648C26.8209 8.30267 26.9072 7.92 26.9072 7.5C26.9072 7.07533 26.8209 6.69033 26.6482 6.345C26.4756 5.99967 26.2352 5.72667 25.9272 5.526C25.6239 5.32067 25.2669 5.218 24.8562 5.218C24.4502 5.218 24.0792 5.32067 23.7432 5.526C23.4119 5.73133 23.1459 6.00667 22.9452 6.352C22.7492 6.69733 22.6512 7.08 22.6512 7.5C22.6512 7.92467 22.7516 8.30967 22.9522 8.655C23.1576 8.99567 23.4259 9.26867 23.7572 9.474C24.0932 9.67467 24.4596 9.775 24.8562 9.775ZM35.5235 0.499999H36.9795V11H35.5235V9.971C35.2948 10.335 34.9961 10.629 34.6275 10.853C34.2588 11.0723 33.8271 11.182 33.3325 11.182C32.8238 11.182 32.3478 11.0863 31.9045 10.895C31.4611 10.7037 31.0691 10.44 30.7285 10.104C30.3925 9.76333 30.1288 9.37133 29.9375 8.928C29.7461 8.48467 29.6505 8.00867 29.6505 7.5C29.6505 6.99133 29.7461 6.51533 29.9375 6.072C30.1288 5.624 30.3925 5.232 30.7285 4.896C31.0691 4.55533 31.4611 4.28933 31.9045 4.098C32.3478 3.90667 32.8238 3.811 33.3325 3.811C33.8271 3.811 34.2588 3.923 34.6275 4.147C34.9961 4.36633 35.2948 4.65567 35.5235 5.015V0.499999ZM33.3465 9.775C33.7571 9.775 34.1165 9.67467 34.4245 9.474C34.7325 9.26867 34.9705 8.99333 35.1385 8.648C35.3111 8.30267 35.3975 7.92 35.3975 7.5C35.3975 7.07533 35.3111 6.69033 35.1385 6.345C34.9658 5.99967 34.7255 5.72667 34.4175 5.526C34.1141 5.32067 33.7571 5.218 33.3465 5.218C32.9405 5.218 32.5695 5.32067 32.2335 5.526C31.9021 5.73133 31.6361 6.00667 31.4355 6.352C31.2395 6.69733 31.1415 7.08 31.1415 7.5C31.1415 7.92467 31.2418 8.30967 31.4425 8.655C31.6478 8.99567 31.9161 9.26867 32.2475 9.474C32.5835 9.67467 32.9498 9.775 33.3465 9.775Z" fill="#00DCA6"/>
</svg>
