<svg width="89" height="36" viewBox="0 0 89 36" fill="none" xmlns="http://www.w3.org/2000/svg">
<path fill-rule="evenodd" clip-rule="evenodd" d="M30.4427 5.2768L15.5608 0.0277871C15.4517 -0.00926238 15.3315 -0.00926238 15.2223 0.0277871L0.338453 5.2768C0.137184 5.3489 0 5.54116 0 5.75444C0 11.0675 1.40688 17.2078 3.85716 22.6C5.84381 26.9748 9.41959 32.8136 15.1583 35.7686C15.2334 35.8056 15.3125 35.8256 15.3926 35.8256C15.4727 35.8256 15.5518 35.8056 15.6239 35.7686C21.3656 32.8136 24.9383 26.9748 26.928 22.6C29.3783 17.2068 30.7822 11.0675 30.7822 5.75444C30.7812 5.54016 30.647 5.3489 30.4427 5.2768Z" fill="white"/>
<path fill-rule="evenodd" clip-rule="evenodd" d="M28.6924 6.85283L15.3917 2.16456L2.08887 6.85283C2.27311 11.8745 3.685 17.2227 5.74175 21.7447C7.81052 26.3038 10.9727 30.9641 15.3927 33.5385C19.8096 30.9641 22.9718 26.3028 25.0436 21.7447C27.0963 17.2227 28.5102 11.8745 28.6924 6.85283Z" fill="#00DCA6"/>
<path fill-rule="evenodd" clip-rule="evenodd" d="M14.6006 23.0215C14.6006 21.6466 13.5221 20.5462 12.1934 20.432V19.3095L11.6426 19.5839V20.455C10.3599 20.6173 9.35156 21.6947 9.35156 23.0225V25.4297C9.35156 25.5889 9.48875 25.7061 9.62593 25.7061H10.5422C10.6813 25.7061 10.8185 25.5889 10.8185 25.4297C10.8185 25.2675 10.6813 25.1533 10.5422 25.1533H9.9023V23.0225C9.9023 21.8769 10.8406 20.9607 11.9861 20.9607C13.1336 20.9607 14.0498 21.8769 14.0498 23.0225V25.1533H13.4771C13.3149 25.1533 13.2007 25.2675 13.2007 25.4297C13.2007 25.5889 13.3149 25.7061 13.4771 25.7061H14.3232C14.4854 25.7061 14.5996 25.5889 14.5996 25.4297V23.0215H14.6006Z" fill="#00DCA6"/>
<path fill-rule="evenodd" clip-rule="evenodd" d="M18.9322 19.4457V21.5545V21.5795C18.4746 21.6696 18.1282 22.0822 18.1282 22.5628C18.1282 23.1376 18.5888 23.5932 19.1365 23.5932C19.7113 23.5932 20.1469 23.1376 20.1469 22.5628C20.1469 22.1273 19.8705 21.7608 19.4569 21.6246C19.482 21.6026 19.482 21.5795 19.482 21.5545V19.697L18.9322 19.4457ZM18.6559 22.5628C18.6559 22.3115 18.8622 22.1042 19.1365 22.1042C19.3909 22.1042 19.6192 22.3105 19.6192 22.5628C19.6192 22.8392 19.3899 23.0435 19.1365 23.0435C18.8622 23.0435 18.6559 22.8392 18.6559 22.5628Z" fill="#00DCA6"/>
<path fill-rule="evenodd" clip-rule="evenodd" d="M7.01343 21.7017C8.83887 25.643 11.5925 29.6393 15.4117 31.8623C19.2207 29.6434 21.9694 25.663 23.7949 21.7318C22.8516 20.9027 21.4117 20.5943 19.4821 19.6971V21.5545C19.4821 21.5796 19.4821 21.6016 19.4571 21.6246C19.8706 21.7618 20.147 22.1273 20.147 22.5629C20.147 23.1377 19.7114 23.5933 19.1366 23.5933C18.5889 23.5933 18.1283 23.1377 18.1283 22.5629C18.1283 22.0822 18.4747 21.6687 18.9324 21.5796C18.9324 21.5796 18.9324 21.5796 18.9324 21.5545V19.4457C18.634 19.2865 18.3125 19.1243 17.9911 18.943V17.6804C18.7701 17.1777 19.0465 16.0772 19.2978 15.0909C19.412 15.0689 19.5041 14.8846 19.5041 14.6553V14.5882C19.5962 14.4741 19.6854 14.2898 19.7555 13.9904C19.8476 13.694 20.191 12.7778 19.8696 12.5465C19.7324 12.4794 19.6183 12.5014 19.5482 12.6637C19.5482 12.6637 19.9617 10.3926 19.6403 9.42933C18.9304 6.93199 13.0625 6.24507 13.0625 7.80315C10.5652 8.5131 11.0238 10.8733 11.3672 12.6857C11.3672 12.6857 11.205 12.4564 10.9767 12.6857C10.7024 12.9821 11.0018 13.669 11.0909 13.9904C11.161 14.2668 11.2531 14.426 11.3202 14.5632C11.3202 14.5882 11.3202 14.6103 11.3202 14.6553C11.3202 14.8846 11.4123 15.0909 11.5495 15.0909C11.8479 16.1914 12.0321 17.2698 12.8562 17.8426V18.943C12.65 19.0802 12.4207 19.1944 12.1913 19.3095V20.432C13.5211 20.5462 14.5986 21.6467 14.5986 23.0215V25.4287C14.5986 25.5879 14.4844 25.7051 14.3222 25.7051H13.4761C13.3138 25.7051 13.1997 25.5879 13.1997 25.4287C13.1997 25.2665 13.3138 25.1523 13.4761 25.1523H14.0488V23.0215C14.0488 21.876 13.1326 20.9597 11.9851 20.9597C10.8395 20.9597 9.90129 21.876 9.90129 23.0215V25.1523H10.5411C10.6803 25.1523 10.8175 25.2665 10.8175 25.4287C10.8175 25.5879 10.6803 25.7051 10.5411 25.7051H9.62492C9.48773 25.7051 9.35055 25.5879 9.35055 25.4287V23.0215C9.35055 21.6947 10.3589 20.6163 11.6416 20.4541V19.5829C9.54281 20.5792 7.99674 20.8105 7.01343 21.7017ZM19.1366 23.0435C18.8623 23.0435 18.656 22.8393 18.656 22.5629C18.656 22.3115 18.8623 22.1043 19.1366 22.1043C19.391 22.1043 19.6193 22.3105 19.6193 22.5629C19.6193 22.8393 19.391 23.0435 19.1366 23.0435Z" fill="white"/>
<path d="M40.7361 20.7847L37.7385 13.8588H39.4808L42.0933 19.9939H41.0746L43.7268 13.8588H45.3206L42.323 20.7847H40.7361Z" fill="white"/>
<path d="M46.7019 14.7187C46.4118 14.7187 46.1769 14.6358 45.9991 14.4718C45.8212 14.3078 45.7314 14.1023 45.7314 13.8588C45.7314 13.6153 45.8212 13.4099 45.9991 13.2458C46.1769 13.0818 46.4118 12.9989 46.7019 12.9989C46.9851 12.9989 47.2182 13.0766 47.3995 13.232C47.5808 13.3874 47.6723 13.586 47.6723 13.8312C47.6723 14.0885 47.5825 14.3009 47.4046 14.4701C47.2268 14.6358 46.992 14.7187 46.7019 14.7187ZM45.93 20.7847V15.4612H47.4737V20.7847H45.93Z" fill="white"/>
<path d="M51.1639 20.5274C50.6821 20.5274 50.2401 20.4204 49.8377 20.2063C49.4354 19.9922 49.116 19.6917 48.8777 19.3066C48.6394 18.9199 48.522 18.4709 48.522 17.9563C48.522 17.4349 48.6411 16.9825 48.8777 16.5957C49.116 16.2106 49.4354 15.9119 49.8377 15.6995C50.2401 15.4888 50.6821 15.3835 51.1639 15.3835C51.6249 15.3835 52.0255 15.475 52.3657 15.6563C52.7058 15.8376 52.97 16.1191 53.1617 16.5024C53.3534 16.8858 53.4483 17.3693 53.4483 17.9563C53.4483 18.5434 53.3534 19.0269 53.1617 19.4068C52.97 19.7867 52.7041 20.0681 52.3657 20.2529C52.0272 20.4342 51.6266 20.5274 51.1639 20.5274ZM51.4125 22.7826C50.9118 22.7826 50.4283 22.7221 49.9638 22.5995C49.4993 22.4769 49.1108 22.2939 48.8017 22.0504L49.4147 20.9315C49.6461 21.1232 49.931 21.2734 50.2712 21.3822C50.6113 21.491 50.9549 21.5462 51.3055 21.5462C51.8459 21.5462 52.2414 21.4236 52.4935 21.1802C52.7438 20.9367 52.8699 20.5741 52.8699 20.0923V19.3015L52.9683 17.9563L52.939 16.6009V15.4629H54.4032V19.8937C54.4032 20.8762 54.1459 21.6032 53.6314 22.0746C53.1134 22.5477 52.3743 22.7826 51.4125 22.7826ZM51.4816 19.2704C51.7527 19.2704 51.9927 19.2151 52.2034 19.1029C52.414 18.9907 52.5798 18.8352 52.6989 18.6384C52.8181 18.4398 52.8768 18.2136 52.8768 17.9563C52.8768 17.6922 52.8181 17.4642 52.6989 17.2691C52.5798 17.074 52.4158 16.9238 52.2034 16.8184C51.9927 16.7131 51.751 16.6596 51.4816 16.6596C51.2174 16.6596 50.9791 16.7131 50.765 16.8184C50.5509 16.9238 50.3817 17.074 50.2608 17.2691C50.1382 17.4642 50.0778 17.6939 50.0778 17.9563C50.0778 18.2136 50.1382 18.4416 50.2608 18.6384C50.3834 18.837 50.5509 18.9907 50.765 19.1029C50.9774 19.2151 51.2174 19.2704 51.4816 19.2704Z" fill="white"/>
<path d="M58.3575 20.8642C57.7964 20.8642 57.2973 20.745 56.8587 20.5085C56.4201 20.2702 56.0748 19.9455 55.8244 19.5346C55.574 19.1219 55.448 18.6522 55.448 18.1238C55.448 17.5903 55.574 17.1172 55.8244 16.7045C56.0748 16.2918 56.4201 15.9689 56.8587 15.734C57.2973 15.4992 57.7964 15.3835 58.3575 15.3835C58.9239 15.3835 59.4298 15.5009 59.8719 15.734C60.3139 15.9689 60.6593 16.2918 60.9114 16.7045C61.1618 17.1172 61.2878 17.5903 61.2878 18.1238C61.2878 18.6574 61.1618 19.1305 60.9114 19.538C60.661 19.9473 60.3139 20.2702 59.8719 20.5085C59.4298 20.745 58.9256 20.8642 58.3575 20.8642ZM58.3575 19.5967C58.6217 19.5967 58.8531 19.5398 59.0551 19.4241C59.2572 19.3084 59.4178 19.1392 59.5404 18.9147C59.6629 18.6902 59.7234 18.426 59.7234 18.1238C59.7234 17.8147 59.6629 17.5506 59.5404 17.333C59.4178 17.1154 59.2572 16.9479 59.0551 16.834C58.8531 16.7183 58.6252 16.6613 58.3679 16.6613C58.1106 16.6613 57.8792 16.7183 57.6755 16.834C57.4717 16.9497 57.3077 17.1154 57.1851 17.333C57.0625 17.5506 57.0021 17.8147 57.0021 18.1238C57.0021 18.4277 57.0625 18.6919 57.1851 18.9147C57.3077 19.1392 57.47 19.3084 57.6755 19.4241C57.8792 19.5398 58.1072 19.5967 58.3575 19.5967Z" fill="white"/>
<path d="M64.5615 20.8642C64.1125 20.8642 63.7171 20.7778 63.3735 20.6069C63.0299 20.4359 62.7622 20.1717 62.5723 19.816C62.3806 19.4603 62.2856 19.0114 62.2856 18.4709V15.4629H63.8293V18.2326C63.8293 18.6816 63.9226 19.0096 64.1108 19.2169C64.299 19.4241 64.5632 19.5277 64.9068 19.5277C65.1451 19.5277 65.3558 19.4741 65.5405 19.3688C65.7253 19.2635 65.8721 19.1046 65.9809 18.894C66.0896 18.6833 66.1449 18.4191 66.1449 18.1031V15.4612H67.6782V20.7847H66.214V19.3101L66.4816 19.7452C66.2968 20.1148 66.0327 20.3928 65.6908 20.581C65.3489 20.7692 64.9707 20.8642 64.5615 20.8642Z" fill="white"/>
<path d="M69.1133 20.7847V15.4612H70.5879V16.9755L70.3807 16.5301C70.5396 16.1536 70.7934 15.8687 71.1422 15.6736C71.491 15.4785 71.9175 15.3818 72.4183 15.3818V16.8167C72.3595 16.8029 72.3008 16.7942 72.2456 16.7873C72.1886 16.7804 72.1351 16.777 72.0815 16.777C71.6464 16.777 71.2993 16.8996 71.042 17.143C70.7848 17.3865 70.6553 17.7629 70.6553 18.2706V20.783H69.1133V20.7847Z" fill="white"/>
<path d="M73.4854 20.7847V13.8588H74.8115L77.7607 18.7472H77.058L79.9468 13.8588H81.2833V20.7847H79.7897L79.7707 16.164H80.0677L77.7331 20.0423H77.02L74.6543 16.164H74.9807V20.7847H73.4854Z" fill="white"/>
<path d="M85.4689 20.8642C84.8628 20.8642 84.331 20.745 83.8751 20.5085C83.4192 20.2702 83.067 19.9455 82.8166 19.5346C82.5662 19.1219 82.4402 18.6522 82.4402 18.1238C82.4402 17.5955 82.5611 17.1241 82.8011 16.7097C83.0411 16.2935 83.3778 15.9689 83.8095 15.7358C84.2412 15.5009 84.7281 15.3853 85.2686 15.3853C85.79 15.3853 86.2597 15.4975 86.6793 15.722C87.0989 15.9464 87.4304 16.2624 87.6739 16.6717C87.9174 17.0809 88.04 17.5713 88.04 18.1463C88.04 18.205 88.0365 18.2741 88.0296 18.3483C88.0227 18.4243 88.0158 18.4951 88.0089 18.5607H83.6852V17.6611H87.1973L86.593 17.9287C86.5999 17.6524 86.5464 17.4107 86.4341 17.207C86.3219 17.0032 86.1665 16.8426 85.9696 16.7269C85.7711 16.6112 85.5414 16.5542 85.2772 16.5542C85.013 16.5542 84.7799 16.6112 84.5796 16.7269C84.3776 16.8426 84.2222 17.0032 84.1099 17.2121C83.9977 17.4193 83.9424 17.6663 83.9424 17.9494V18.1877C83.9424 18.4847 84.0081 18.742 84.141 18.9596C84.2722 19.1772 84.4536 19.3446 84.6849 19.4586C84.9163 19.5743 85.1926 19.6313 85.5155 19.6313C85.7918 19.6313 86.0387 19.5881 86.2528 19.5018C86.4669 19.4154 86.6638 19.2877 86.8416 19.1167L87.6636 20.0077C87.4201 20.284 87.1127 20.4981 86.7432 20.6466C86.3754 20.7899 85.9489 20.8642 85.4689 20.8642Z" fill="white"/>
</svg>
