<svg width="10" height="16" viewBox="0 0 10 16" fill="none" xmlns="http://www.w3.org/2000/svg">
<path d="M7.60419 15.5833L0.583353 8.58333C0.50002 8.5 0.441131 8.40972 0.406687 8.3125C0.371687 8.21528 0.354187 8.11111 0.354187 8C0.354187 7.88889 0.371687 7.78472 0.406687 7.6875C0.441131 7.59028 0.50002 7.5 0.583353 7.41667L7.60419 0.395835C7.79863 0.20139 8.04169 0.104168 8.33335 0.104168C8.62502 0.104168 8.87502 0.208335 9.08335 0.416668C9.29169 0.625001 9.39585 0.868057 9.39585 1.14583C9.39585 1.42361 9.29169 1.66667 9.08335 1.875L2.95835 8L9.08335 14.125C9.2778 14.3194 9.37502 14.5589 9.37502 14.8433C9.37502 15.1283 9.27085 15.375 9.06252 15.5833C8.85419 15.7917 8.61113 15.8958 8.33335 15.8958C8.05558 15.8958 7.81252 15.7917 7.60419 15.5833Z" fill="#242A38"/>
</svg>
