<svg width="10" height="16" viewBox="0 0 10 16" fill="none" xmlns="http://www.w3.org/2000/svg">
<path d="M7.60425 15.5833L0.583414 8.58333C0.500081 8.5 0.441192 8.40972 0.406748 8.3125C0.371748 8.21528 0.354248 8.11111 0.354248 8C0.354248 7.88889 0.371748 7.78472 0.406748 7.6875C0.441192 7.59028 0.500081 7.5 0.583414 7.41667L7.60425 0.395835C7.79869 0.20139 8.04175 0.104168 8.33341 0.104168C8.62508 0.104168 8.87508 0.208335 9.08341 0.416668C9.29175 0.625001 9.39591 0.868057 9.39591 1.14583C9.39591 1.42361 9.29175 1.66667 9.08341 1.875L2.95841 8L9.08341 14.125C9.27786 14.3194 9.37508 14.5589 9.37508 14.8433C9.37508 15.1283 9.27091 15.375 9.06258 15.5833C8.85425 15.7917 8.61119 15.8958 8.33341 15.8958C8.05564 15.8958 7.81258 15.7917 7.60425 15.5833Z" fill="white"/>
</svg>
