<svg width="18" height="18" viewBox="0 0 18 18" fill="none" xmlns="http://www.w3.org/2000/svg">
<path d="M14.8333 2.33332H13.1666V1.49999C13.1666 1.27898 13.0788 1.06701 12.9225 0.910734C12.7663 0.754454 12.5543 0.666656 12.3333 0.666656C12.1123 0.666656 11.9003 0.754454 11.744 0.910734C11.5878 1.06701 11.5 1.27898 11.5 1.49999V2.33332H6.49996V1.49999C6.49996 1.27898 6.41216 1.06701 6.25588 0.910734C6.0996 0.754454 5.88764 0.666656 5.66663 0.666656C5.44561 0.666656 5.23365 0.754454 5.07737 0.910734C4.92109 1.06701 4.83329 1.27898 4.83329 1.49999V2.33332H3.16663C2.50358 2.33332 1.8677 2.59671 1.39886 3.06556C0.930018 3.5344 0.666626 4.17028 0.666626 4.83332V14.8333C0.666626 15.4964 0.930018 16.1322 1.39886 16.6011C1.8677 17.0699 2.50358 17.3333 3.16663 17.3333H14.8333C15.4963 17.3333 16.1322 17.0699 16.6011 16.6011C17.0699 16.1322 17.3333 15.4964 17.3333 14.8333V4.83332C17.3333 4.17028 17.0699 3.5344 16.6011 3.06556C16.1322 2.59671 15.4963 2.33332 14.8333 2.33332ZM15.6666 14.8333C15.6666 15.0543 15.5788 15.2663 15.4225 15.4226C15.2663 15.5789 15.0543 15.6667 14.8333 15.6667H3.16663C2.94561 15.6667 2.73365 15.5789 2.57737 15.4226C2.42109 15.2663 2.33329 15.0543 2.33329 14.8333V8.99999H15.6666V14.8333ZM15.6666 7.33332H2.33329V4.83332C2.33329 4.61231 2.42109 4.40035 2.57737 4.24407C2.73365 4.08779 2.94561 3.99999 3.16663 3.99999H4.83329V4.83332C4.83329 5.05434 4.92109 5.2663 5.07737 5.42258C5.23365 5.57886 5.44561 5.66666 5.66663 5.66666C5.88764 5.66666 6.0996 5.57886 6.25588 5.42258C6.41216 5.2663 6.49996 5.05434 6.49996 4.83332V3.99999H11.5V4.83332C11.5 5.05434 11.5878 5.2663 11.744 5.42258C11.9003 5.57886 12.1123 5.66666 12.3333 5.66666C12.5543 5.66666 12.7663 5.57886 12.9225 5.42258C13.0788 5.2663 13.1666 5.05434 13.1666 4.83332V3.99999H14.8333C15.0543 3.99999 15.2663 4.08779 15.4225 4.24407C15.5788 4.40035 15.6666 4.61231 15.6666 4.83332V7.33332Z" fill="white"/>
</svg>
