<svg width="18" height="18" viewBox="0 0 18 18" fill="none" xmlns="http://www.w3.org/2000/svg">
<path d="M14.8334 2.33335H13.1667V1.50002C13.1667 1.27901 13.0789 1.06704 12.9226 0.910765C12.7663 0.754484 12.5544 0.666687 12.3334 0.666687C12.1123 0.666687 11.9004 0.754484 11.7441 0.910765C11.5878 1.06704 11.5 1.27901 11.5 1.50002V2.33335H6.50002V1.50002C6.50002 1.27901 6.41222 1.06704 6.25594 0.910765C6.09966 0.754484 5.8877 0.666687 5.66669 0.666687C5.44567 0.666687 5.23371 0.754484 5.07743 0.910765C4.92115 1.06704 4.83335 1.27901 4.83335 1.50002V2.33335H3.16669C2.50365 2.33335 1.86776 2.59675 1.39892 3.06559C0.930079 3.53443 0.666687 4.17031 0.666687 4.83335V14.8334C0.666687 15.4964 0.930079 16.1323 1.39892 16.6011C1.86776 17.07 2.50365 17.3334 3.16669 17.3334H14.8334C15.4964 17.3334 16.1323 17.07 16.6011 16.6011C17.07 16.1323 17.3334 15.4964 17.3334 14.8334V4.83335C17.3334 4.17031 17.07 3.53443 16.6011 3.06559C16.1323 2.59675 15.4964 2.33335 14.8334 2.33335ZM15.6667 14.8334C15.6667 15.0544 15.5789 15.2663 15.4226 15.4226C15.2663 15.5789 15.0544 15.6667 14.8334 15.6667H3.16669C2.94567 15.6667 2.73371 15.5789 2.57743 15.4226C2.42115 15.2663 2.33335 15.0544 2.33335 14.8334V9.00002H15.6667V14.8334ZM15.6667 7.33335H2.33335V4.83335C2.33335 4.61234 2.42115 4.40038 2.57743 4.2441C2.73371 4.08782 2.94567 4.00002 3.16669 4.00002H4.83335V4.83335C4.83335 5.05437 4.92115 5.26633 5.07743 5.42261C5.23371 5.57889 5.44567 5.66669 5.66669 5.66669C5.8877 5.66669 6.09966 5.57889 6.25594 5.42261C6.41222 5.26633 6.50002 5.05437 6.50002 4.83335V4.00002H11.5V4.83335C11.5 5.05437 11.5878 5.26633 11.7441 5.42261C11.9004 5.57889 12.1123 5.66669 12.3334 5.66669C12.5544 5.66669 12.7663 5.57889 12.9226 5.42261C13.0789 5.26633 13.1667 5.05437 13.1667 4.83335V4.00002H14.8334C15.0544 4.00002 15.2663 4.08782 15.4226 4.2441C15.5789 4.40038 15.6667 4.61234 15.6667 4.83335V7.33335Z" fill="#263238"/>
</svg>
