<svg width="148" height="148" viewBox="0 0 148 148" fill="none" xmlns="http://www.w3.org/2000/svg">
<g clip-path="url(#clip0_325_6505)">
<path d="M140.834 82.0067C136.841 94.1101 128.236 107.38 115.57 111.698C96.4368 118.228 94.7201 133.919 60.0022 133.813C54.9324 133.82 49.8767 133.277 44.924 132.193C42.5025 131.655 40.1179 130.963 37.7844 130.121C17.2124 122.701 5.94965 105.053 4.33645 86.1951C2.22005 61.3903 19.098 48.8784 30.0884 41.4991C41.0789 34.1198 53.6293 6.73388 87.77 6.57108C92.9816 6.52436 98.1813 7.07958 103.266 8.22572C114.857 10.8897 126.786 17.304 133.952 27.0809C134.488 27.815 135.003 28.5609 135.5 29.3364C145.176 44.3821 146.28 65.5017 140.834 82.0067Z" fill="#00DCA6"/>
<path opacity="0.7" d="M140.834 82.0067C136.841 94.1101 128.236 107.38 115.57 111.698C96.4368 118.228 94.7201 133.919 60.0022 133.813C54.9324 133.82 49.8767 133.277 44.924 132.193C42.5025 131.655 40.1179 130.963 37.7844 130.121C17.2124 122.701 5.94965 105.053 4.33645 86.1951C2.22005 61.3903 19.098 48.8784 30.0884 41.4991C41.0789 34.1198 53.6293 6.73388 87.77 6.57108C92.9816 6.52436 98.1813 7.07958 103.266 8.22572C114.857 10.8897 126.786 17.304 133.952 27.0809C134.488 27.815 135.003 28.5609 135.5 29.3364C145.176 44.3821 146.28 65.5017 140.834 82.0067Z" fill="white"/>
<path d="M44.8913 11.331H6.27218C6.24362 11.3313 6.21557 11.3234 6.19141 11.3082C6.16725 11.293 6.14802 11.2711 6.13602 11.2451C6.12442 11.219 6.12048 11.1901 6.12468 11.1618C6.12887 11.1335 6.14102 11.107 6.1597 11.0853L8.31754 8.5841C8.34373 8.55473 8.38036 8.53674 8.41961 8.53398C8.45887 8.53122 8.49765 8.54389 8.5277 8.5693C8.54249 8.58179 8.55463 8.59712 8.56341 8.61438C8.57218 8.63163 8.57742 8.65047 8.5788 8.66978C8.58017 8.68909 8.57767 8.70848 8.57144 8.72681C8.56521 8.74514 8.55537 8.76204 8.5425 8.7765L6.59482 11.0409H44.7433V8.6729C44.7433 8.63365 44.7589 8.59601 44.7866 8.56825C44.8144 8.5405 44.8521 8.5249 44.8913 8.5249C44.9306 8.5249 44.9682 8.5405 44.996 8.56825C45.0237 8.59601 45.0393 8.63365 45.0393 8.6729V11.18C45.0397 11.1997 45.0362 11.2193 45.0289 11.2376C45.0216 11.2559 45.0108 11.2725 44.997 11.2866C44.9832 11.3007 44.9668 11.3118 44.9486 11.3194C44.9305 11.3271 44.911 11.331 44.8913 11.331Z" fill="#263238"/>
<path d="M44.8913 14.9512H6.27222C6.24366 14.9515 6.21561 14.9436 6.19145 14.9284C6.16729 14.9131 6.14805 14.8912 6.13606 14.8653C6.12434 14.8397 6.12034 14.8112 6.12455 14.7834C6.12875 14.7555 6.14098 14.7295 6.15974 14.7084L8.31758 12.2013C8.33021 12.1865 8.34563 12.1744 8.36296 12.1656C8.38028 12.1568 8.39917 12.1515 8.41855 12.15C8.43793 12.1484 8.45741 12.1508 8.47589 12.1568C8.49438 12.1628 8.51149 12.1724 8.52626 12.185C8.54103 12.1977 8.55317 12.2131 8.56198 12.2304C8.5708 12.2477 8.57611 12.2666 8.57762 12.286C8.57913 12.3054 8.57681 12.3249 8.57079 12.3434C8.56477 12.3618 8.55517 12.3789 8.54254 12.3937L6.59486 14.6552H44.7433V12.2872C44.7433 12.2479 44.7589 12.2103 44.7867 12.1825C44.8144 12.1548 44.8521 12.1392 44.8913 12.1392C44.9306 12.1392 44.9682 12.1548 44.996 12.1825C45.0237 12.2103 45.0393 12.2479 45.0393 12.2872V14.8002C45.0397 14.8199 45.0362 14.8394 45.0289 14.8577C45.0217 14.876 45.0108 14.8927 44.997 14.9068C44.9833 14.9208 44.9668 14.932 44.9487 14.9396C44.9305 14.9472 44.911 14.9512 44.8913 14.9512Z" fill="#263238"/>
<path d="M44.8913 18.5742H6.27218C6.2437 18.5742 6.2158 18.5661 6.19171 18.5509C6.16761 18.5358 6.14831 18.5141 6.13602 18.4884C6.12442 18.4622 6.12048 18.4333 6.12468 18.405C6.12887 18.3767 6.14102 18.3502 6.1597 18.3285L8.31754 15.8214C8.34373 15.792 8.38036 15.774 8.41961 15.7713C8.45887 15.7685 8.49765 15.7812 8.5277 15.8066C8.54249 15.8191 8.55463 15.8344 8.56341 15.8517C8.57218 15.8689 8.57742 15.8878 8.5788 15.9071C8.58017 15.9264 8.57767 15.9458 8.57144 15.9641C8.56521 15.9824 8.55537 15.9993 8.5425 16.0138L6.59482 18.2782H44.7433V15.9102C44.7433 15.871 44.7589 15.8333 44.7867 15.8056C44.8144 15.7778 44.8521 15.7622 44.8913 15.7622C44.9306 15.7622 44.9682 15.7778 44.996 15.8056C45.0237 15.8333 45.0393 15.871 45.0393 15.9102V18.4173C45.0405 18.4375 45.0376 18.4577 45.0307 18.4767C45.0238 18.4957 45.0131 18.5131 44.9992 18.5278C44.9854 18.5425 44.9686 18.5542 44.9501 18.5622C44.9315 18.5701 44.9115 18.5742 44.8913 18.5742Z" fill="#263238"/>
<path d="M44.8913 22.2002H6.27218C6.24362 22.2005 6.21557 22.1926 6.19141 22.1774C6.16725 22.1622 6.14802 22.1403 6.13602 22.1143C6.12442 22.0882 6.12048 22.0593 6.12468 22.031C6.12887 22.0027 6.14102 21.9762 6.1597 21.9545L8.31754 19.4503C8.33018 19.4356 8.3456 19.4234 8.36292 19.4146C8.38024 19.4058 8.39913 19.4005 8.41851 19.399C8.43789 19.3975 8.45738 19.3998 8.47586 19.4058C8.49434 19.4118 8.51145 19.4214 8.52622 19.4341C8.54099 19.4467 8.55313 19.4621 8.56194 19.4794C8.57076 19.4968 8.57607 19.5157 8.57758 19.535C8.57909 19.5544 8.57677 19.5739 8.57076 19.5924C8.56474 19.6109 8.55514 19.628 8.5425 19.6427L6.59482 21.9042H44.7433V19.5362C44.7433 19.4969 44.7589 19.4593 44.7867 19.4315C44.8144 19.4038 44.8521 19.3882 44.8913 19.3882C44.9306 19.3882 44.9682 19.4038 44.996 19.4315C45.0237 19.4593 45.0393 19.4969 45.0393 19.5362V22.0433C45.0405 22.0635 45.0376 22.0837 45.0307 22.1027C45.0238 22.1217 45.0131 22.139 44.9992 22.1537C44.9854 22.1684 44.9686 22.1801 44.9501 22.1881C44.9315 22.1961 44.9115 22.2002 44.8913 22.2002Z" fill="#263238"/>
<path d="M44.8913 25.8172H6.27222C6.24342 25.817 6.2153 25.8084 6.19117 25.7927C6.16704 25.777 6.14792 25.7547 6.13606 25.7284C6.12434 25.7028 6.12034 25.6743 6.12455 25.6465C6.12875 25.6186 6.14098 25.5926 6.15974 25.5715L8.31758 23.0644C8.34575 23.0371 8.38343 23.0218 8.42266 23.0218C8.46189 23.0218 8.49958 23.0371 8.52774 23.0644C8.54253 23.0769 8.55467 23.0922 8.56345 23.1095C8.57222 23.1268 8.57746 23.1456 8.57883 23.1649C8.58021 23.1842 8.57771 23.2036 8.57148 23.2219C8.56525 23.2403 8.55541 23.2572 8.54254 23.2716L6.59486 25.536H44.7433V23.168C44.7433 23.1288 44.7589 23.0911 44.7867 23.0634C44.8144 23.0356 44.8521 23.02 44.8913 23.02C44.9306 23.02 44.9682 23.0356 44.996 23.0634C45.0238 23.0911 45.0393 23.1288 45.0393 23.168V25.6751C45.0378 25.7134 45.0215 25.7495 44.994 25.776C44.9664 25.8025 44.9296 25.8173 44.8913 25.8172Z" fill="#263238"/>
<path d="M44.8913 29.4375H6.27218C6.24362 29.4378 6.21557 29.4299 6.19141 29.4147C6.16725 29.3995 6.14802 29.3776 6.13602 29.3517C6.12442 29.3255 6.12048 29.2966 6.12468 29.2683C6.12887 29.24 6.14102 29.2135 6.1597 29.1918L8.31754 26.6847C8.34345 26.6549 8.38015 26.6365 8.41956 26.6338C8.45897 26.631 8.49787 26.644 8.5277 26.6699C8.55753 26.6958 8.57585 26.7325 8.57863 26.7719C8.5814 26.8113 8.56841 26.8502 8.5425 26.88L6.59482 29.1415H44.7433V26.7735C44.7433 26.7342 44.7589 26.6966 44.7867 26.6688C44.8144 26.6411 44.8521 26.6255 44.8913 26.6255C44.9306 26.6255 44.9682 26.6411 44.996 26.6688C45.0237 26.6966 45.0393 26.7342 45.0393 26.7735V29.3043C45.0356 29.3409 45.0184 29.3749 44.9911 29.3995C44.9637 29.4241 44.9281 29.4377 44.8913 29.4375Z" fill="#263238"/>
<path d="M44.8913 33.0576H6.27222C6.24366 33.058 6.21561 33.05 6.19145 33.0348C6.16729 33.0196 6.14805 32.9977 6.13606 32.9718C6.12434 32.9461 6.12034 32.9177 6.12455 32.8898C6.12875 32.8619 6.14098 32.8359 6.15974 32.8149L8.31758 30.3078C8.34377 30.2786 8.38009 30.2605 8.41914 30.2572C8.45819 30.2539 8.49703 30.2657 8.52774 30.29C8.55712 30.3162 8.5751 30.3528 8.57786 30.3921C8.58063 30.4313 8.56796 30.4701 8.54254 30.5002L6.59486 32.7616H44.7433V30.3936C44.7433 30.3544 44.7589 30.3167 44.7867 30.289C44.8144 30.2612 44.8521 30.2456 44.8913 30.2456C44.9306 30.2456 44.9682 30.2612 44.996 30.289C45.0237 30.3167 45.0393 30.3544 45.0393 30.3936V32.9007C45.0406 32.9209 45.0376 32.9411 45.0307 32.9601C45.0238 32.9791 45.0131 32.9965 44.9993 33.0112C44.9854 33.0259 44.9687 33.0376 44.9501 33.0456C44.9315 33.0535 44.9115 33.0576 44.8913 33.0576Z" fill="#263238"/>
<path d="M44.8913 36.6807H6.27218C6.2437 36.6806 6.2158 36.6726 6.19171 36.6574C6.16761 36.6422 6.14831 36.6205 6.13602 36.5948C6.12442 36.5687 6.12048 36.5398 6.12468 36.5115C6.12887 36.4832 6.14102 36.4566 6.1597 36.435L8.31754 33.9279C8.34373 33.8985 8.38036 33.8805 8.41961 33.8777C8.45887 33.875 8.49765 33.8876 8.5277 33.9131C8.54249 33.9255 8.55463 33.9409 8.56341 33.9581C8.57218 33.9754 8.57742 33.9942 8.5788 34.0135C8.58017 34.0328 8.57767 34.0522 8.57144 34.0706C8.56521 34.0889 8.55537 34.1058 8.5425 34.1203L6.59482 36.3847H44.7433V34.0167C44.7433 33.9774 44.7589 33.9398 44.7867 33.912C44.8144 33.8842 44.8521 33.8687 44.8913 33.8687C44.9306 33.8687 44.9682 33.8842 44.996 33.912C45.0237 33.9398 45.0393 33.9774 45.0393 34.0167V36.5238C45.0405 36.5439 45.0376 36.5641 45.0307 36.5831C45.0238 36.6021 45.0131 36.6195 44.9992 36.6342C44.9854 36.6489 44.9686 36.6606 44.9501 36.6686C44.9315 36.6766 44.9115 36.6807 44.8913 36.6807Z" fill="#263238"/>
<path d="M44.8913 40.3008H6.27222C6.24366 40.3011 6.21561 40.2932 6.19145 40.278C6.16729 40.2627 6.14805 40.2408 6.13606 40.2149C6.12434 40.1893 6.12034 40.1608 6.12455 40.133C6.12875 40.1051 6.14098 40.0791 6.15974 40.058L8.31758 37.5509C8.3431 37.5211 8.37942 37.5026 8.41855 37.4996C8.43793 37.4981 8.45741 37.5004 8.4759 37.5064C8.49438 37.5124 8.51149 37.522 8.52626 37.5346C8.54103 37.5473 8.55317 37.5627 8.56198 37.58C8.5708 37.5973 8.57611 37.6162 8.57762 37.6356C8.57913 37.655 8.57681 37.6745 8.57079 37.693C8.56477 37.7114 8.55518 37.7286 8.54254 37.7433L6.59486 40.0048H44.7433V37.6368C44.7433 37.5975 44.7589 37.5599 44.7867 37.5321C44.8144 37.5044 44.8521 37.4888 44.8913 37.4888C44.9306 37.4888 44.9682 37.5044 44.996 37.5321C45.0237 37.5599 45.0393 37.5975 45.0393 37.6368V40.1439C45.0406 40.1641 45.0376 40.1843 45.0307 40.2033C45.0238 40.2223 45.0131 40.2396 44.9993 40.2543C44.9854 40.269 44.9687 40.2807 44.9501 40.2887C44.9315 40.2967 44.9115 40.3008 44.8913 40.3008Z" fill="#263238"/>
<path d="M44.8913 43.9238H6.27222C6.24342 43.9235 6.2153 43.915 6.19117 43.8993C6.16704 43.8836 6.14792 43.8613 6.13606 43.835C6.12434 43.8094 6.12034 43.7809 6.12455 43.7531C6.12875 43.7252 6.14098 43.6992 6.15974 43.6781L8.31758 41.171C8.34377 41.1416 8.3804 41.1237 8.41965 41.1209C8.45891 41.1181 8.49769 41.1308 8.52774 41.1562C8.54253 41.1687 8.55467 41.184 8.56345 41.2013C8.57222 41.2185 8.57745 41.2374 8.57883 41.2567C8.58021 41.276 8.57771 41.2954 8.57148 41.3137C8.56525 41.3321 8.55541 41.349 8.54254 41.3634L6.59486 43.6278H44.7433V41.2598C44.7433 41.2206 44.7589 41.1829 44.7867 41.1552C44.8144 41.1274 44.8521 41.1118 44.8913 41.1118C44.9306 41.1118 44.9682 41.1274 44.996 41.1552C45.0237 41.1829 45.0393 41.2206 45.0393 41.2598V43.7669C45.0406 43.7871 45.0376 43.8073 45.0307 43.8263C45.0238 43.8453 45.0131 43.8627 44.9993 43.8774C44.9854 43.8921 44.9687 43.9038 44.9501 43.9118C44.9315 43.9198 44.9115 43.9239 44.8913 43.9238Z" fill="#263238"/>
<path d="M44.8913 47.5439H6.27218C6.24362 47.5443 6.21557 47.5364 6.19141 47.5211C6.16725 47.5059 6.14802 47.484 6.13602 47.4581C6.12442 47.4319 6.12048 47.403 6.12468 47.3747C6.12887 47.3464 6.14102 47.3199 6.1597 47.2983L8.31754 44.7911C8.34345 44.7613 8.38015 44.743 8.41956 44.7402C8.45897 44.7374 8.49787 44.7504 8.5277 44.7763C8.55753 44.8022 8.57585 44.8389 8.57863 44.8783C8.5814 44.9178 8.56841 44.9567 8.5425 44.9865L6.59482 47.2479H44.7433V44.8799C44.7433 44.8407 44.7589 44.803 44.7867 44.7753C44.8144 44.7475 44.8521 44.7319 44.8913 44.7319C44.9306 44.7319 44.9682 44.7475 44.996 44.7753C45.0237 44.803 45.0393 44.8407 45.0393 44.8799V47.3871C45.0405 47.4072 45.0376 47.4274 45.0307 47.4464C45.0238 47.4654 45.0131 47.4828 44.9992 47.4975C44.9854 47.5122 44.9686 47.5239 44.9501 47.5319C44.9315 47.5399 44.9115 47.544 44.8913 47.5439Z" fill="#263238"/>
<path d="M44.8913 51.1641H6.27222C6.24366 51.1644 6.21561 51.1565 6.19145 51.1413C6.16729 51.126 6.14805 51.1041 6.13606 51.0782C6.12434 51.0526 6.12034 51.0241 6.12455 50.9962C6.12875 50.9684 6.14098 50.9424 6.15974 50.9213L8.31758 48.4142C8.34377 48.3848 8.3804 48.3669 8.41965 48.3641C8.45891 48.3613 8.49769 48.374 8.52774 48.3994C8.54253 48.4119 8.55467 48.4272 8.56345 48.4445C8.57222 48.4617 8.57745 48.4806 8.57883 48.4999C8.58021 48.5192 8.57771 48.5386 8.57148 48.5569C8.56525 48.5752 8.55541 48.5921 8.54254 48.6066L6.59486 50.8681H44.7433V48.5001C44.7433 48.4608 44.7589 48.4232 44.7867 48.3954C44.8144 48.3676 44.8521 48.3521 44.8913 48.3521C44.9306 48.3521 44.9682 48.3676 44.996 48.3954C45.0237 48.4232 45.0393 48.4608 45.0393 48.5001V51.0072C45.0406 51.0273 45.0376 51.0475 45.0307 51.0665C45.0238 51.0855 45.0131 51.1029 44.9993 51.1176C44.9854 51.1323 44.9687 51.144 44.9501 51.152C44.9315 51.16 44.9115 51.1641 44.8913 51.1641Z" fill="#263238"/>
<path d="M44.8913 54.7869H6.27218C6.2437 54.7869 6.2158 54.7789 6.19171 54.7637C6.16761 54.7485 6.14831 54.7268 6.13602 54.7011C6.12442 54.675 6.12048 54.6461 6.12468 54.6178C6.12887 54.5895 6.14102 54.5629 6.1597 54.5413L8.31754 52.0341C8.34571 52.0068 8.3834 51.9916 8.42262 51.9916C8.46185 51.9916 8.49954 52.0068 8.5277 52.0341C8.54249 52.0466 8.55463 52.062 8.56341 52.0792C8.57218 52.0965 8.57742 52.1153 8.5788 52.1346C8.58017 52.1539 8.57767 52.1733 8.57144 52.1917C8.56521 52.21 8.55537 52.2269 8.5425 52.2413L6.59482 54.5057H44.7433V52.1377C44.7433 52.0985 44.7589 52.0609 44.7867 52.0331C44.8144 52.0053 44.8521 51.9897 44.8913 51.9897C44.9306 51.9897 44.9682 52.0053 44.996 52.0331C45.0237 52.0609 45.0393 52.0985 45.0393 52.1377V54.6449C45.0378 54.6831 45.0215 54.7192 44.9939 54.7457C44.9663 54.7722 44.9296 54.787 44.8913 54.7869Z" fill="#263238"/>
<path d="M44.8913 58.4068H6.27222C6.24366 58.4072 6.21561 58.3993 6.19145 58.384C6.16729 58.3688 6.14805 58.3469 6.13606 58.321C6.12434 58.2954 6.12034 58.2669 6.12455 58.239C6.12875 58.2112 6.14098 58.1851 6.15974 58.1641L8.31758 55.6481C8.33022 55.6333 8.34563 55.6212 8.36296 55.6124C8.38028 55.6036 8.39917 55.5983 8.41855 55.5967C8.43793 55.5952 8.45741 55.5975 8.4759 55.6036C8.49438 55.6096 8.51149 55.6192 8.52626 55.6318C8.54103 55.6445 8.55317 55.6599 8.56198 55.6772C8.5708 55.6945 8.57611 55.7134 8.57762 55.7328C8.57913 55.7522 8.57681 55.7717 8.57079 55.7901C8.56477 55.8086 8.55518 55.8257 8.54254 55.8405L6.59486 58.1019H44.7433V55.7339C44.7433 55.6947 44.7589 55.657 44.7867 55.6293C44.8144 55.6015 44.8521 55.5859 44.8913 55.5859C44.9306 55.5859 44.9682 55.6015 44.996 55.6293C45.0237 55.657 45.0393 55.6947 45.0393 55.7339V58.2411C45.0419 58.2619 45.0399 58.2831 45.0336 58.3032C45.0273 58.3232 45.0168 58.3417 45.0028 58.3574C44.9888 58.3731 44.9716 58.3856 44.9524 58.3941C44.9332 58.4026 44.9124 58.407 44.8913 58.4068Z" fill="#263238"/>
<path d="M44.8913 62.0301H6.27218C6.2437 62.0301 6.2158 62.022 6.19171 62.0068C6.16761 61.9917 6.14831 61.97 6.13602 61.9443C6.12442 61.9181 6.12048 61.8892 6.12468 61.8609C6.12887 61.8326 6.14102 61.8061 6.1597 61.7844L8.31754 59.2773C8.34571 59.25 8.3834 59.2347 8.42262 59.2347C8.46185 59.2347 8.49954 59.25 8.5277 59.2773C8.54249 59.2898 8.55463 59.3051 8.56341 59.3224C8.57218 59.3396 8.57742 59.3585 8.5788 59.3778C8.58017 59.3971 8.57767 59.4165 8.57144 59.4348C8.56521 59.4531 8.55537 59.47 8.5425 59.4845L6.59482 61.7489H44.7433V59.3809C44.7433 59.3417 44.7589 59.304 44.7867 59.2763C44.8144 59.2485 44.8521 59.2329 44.8913 59.2329C44.9306 59.2329 44.9682 59.2485 44.996 59.2763C45.0237 59.304 45.0393 59.3417 45.0393 59.3809V61.888C45.0378 61.9262 45.0215 61.9624 44.9939 61.9889C44.9663 62.0154 44.9296 62.0301 44.8913 62.0301Z" fill="#263238"/>
<path d="M44.8913 65.6499H6.27218C6.24362 65.6502 6.21557 65.6423 6.19141 65.6271C6.16725 65.6119 6.14802 65.59 6.13602 65.5641C6.12442 65.5379 6.12048 65.509 6.12468 65.4807C6.12887 65.4524 6.14102 65.4259 6.1597 65.4042L8.31754 62.8971C8.34345 62.8673 8.38015 62.8489 8.41956 62.8462C8.45897 62.8434 8.49787 62.8564 8.5277 62.8823C8.55753 62.9082 8.57585 62.9449 8.57863 62.9843C8.5814 63.0237 8.56841 63.0626 8.5425 63.0925L6.59482 65.3539H44.7433V62.9859C44.7433 62.9466 44.7589 62.909 44.7867 62.8812C44.8144 62.8535 44.8521 62.8379 44.8913 62.8379C44.9306 62.8379 44.9682 62.8535 44.996 62.8812C45.0237 62.909 45.0393 62.9466 45.0393 62.9859V65.493C45.0405 65.5132 45.0376 65.5334 45.0307 65.5524C45.0238 65.5714 45.0131 65.5888 44.9992 65.6035C44.9854 65.6182 44.9686 65.6299 44.9501 65.6378C44.9315 65.6458 44.9115 65.6499 44.8913 65.6499Z" fill="#263238"/>
<path d="M44.8913 69.2641H6.27222C6.24366 69.2652 6.21543 69.2578 6.19106 69.2429C6.1667 69.2279 6.14729 69.2061 6.13527 69.1802C6.12325 69.1543 6.11917 69.1254 6.12352 69.0971C6.12787 69.0689 6.14047 69.0425 6.15974 69.0214L8.31758 66.5143C8.34575 66.487 8.38343 66.4717 8.42266 66.4717C8.46189 66.4717 8.49958 66.487 8.52774 66.5143C8.54253 66.5268 8.55467 66.5421 8.56345 66.5594C8.57222 66.5766 8.57745 66.5955 8.57883 66.6148C8.58021 66.6341 8.57771 66.6535 8.57148 66.6718C8.56525 66.6901 8.55541 66.707 8.54254 66.7215L6.59486 68.9681H44.7433V66.6001C44.7433 66.5609 44.7589 66.5233 44.7867 66.4955C44.8144 66.4677 44.8521 66.4521 44.8913 66.4521C44.9306 66.4521 44.9682 66.4677 44.996 66.4955C45.0237 66.5233 45.0393 66.5609 45.0393 66.6001V69.1043C45.041 69.1247 45.0384 69.1452 45.0317 69.1646C45.025 69.1839 45.0143 69.2017 45.0004 69.2167C44.9865 69.2317 44.9696 69.2437 44.9509 69.2519C44.9321 69.26 44.9118 69.2642 44.8913 69.2641Z" fill="#263238"/>
<path d="M46.7325 8.85949H6.21599C6.17674 8.85949 6.1391 8.8439 6.11134 8.81615C6.08359 8.78839 6.06799 8.75075 6.06799 8.71149V4.99077C6.06799 4.95152 6.08359 4.91388 6.11134 4.88612C6.1391 4.85837 6.17674 4.84277 6.21599 4.84277H46.7325C46.7717 4.84277 46.8094 4.85837 46.8371 4.88612C46.8649 4.91388 46.8805 4.95152 46.8805 4.99077V8.71149C46.8805 8.75075 46.8649 8.78839 46.8371 8.81615C46.8094 8.8439 46.7717 8.85949 46.7325 8.85949ZM6.36103 8.56349H46.5845V5.13877H6.36103V8.56349Z" fill="#263238"/>
<path d="M45.8178 45.8242C45.7785 45.8242 45.7409 45.8086 45.7132 45.7808C45.6854 45.7531 45.6698 45.7154 45.6698 45.6762V8.88042C45.6698 8.84117 45.6854 8.80353 45.7132 8.77577C45.7409 8.74801 45.7785 8.73242 45.8178 8.73242C45.8571 8.73242 45.8947 8.74801 45.9225 8.77577C45.9502 8.80353 45.9658 8.84117 45.9658 8.88042V45.6732C45.9662 45.6929 45.9627 45.7125 45.9554 45.7308C45.9481 45.7491 45.9373 45.7657 45.9235 45.7798C45.9097 45.7938 45.8933 45.805 45.8751 45.8126C45.857 45.8203 45.8375 45.8242 45.8178 45.8242Z" fill="#263238"/>
<path d="M46.5282 48.5442H45.2081C45.1688 48.5442 45.1312 48.5286 45.1034 48.5009C45.0757 48.4731 45.0601 48.4355 45.0601 48.3962V45.8033C45.0601 45.764 45.0757 45.7264 45.1034 45.6986C45.1312 45.6709 45.1688 45.6553 45.2081 45.6553H46.5282C46.5675 45.6553 46.6051 45.6709 46.6329 45.6986C46.6606 45.7264 46.6762 45.764 46.6762 45.8033V48.3962C46.6762 48.4355 46.6606 48.4731 46.6329 48.5009C46.6051 48.5286 46.5675 48.5442 46.5282 48.5442ZM45.3442 48.2482H46.3684V45.9513H45.3442V48.2482Z" fill="#263238"/>
<path d="M20.7791 82.5482C20.7837 82.5429 20.7862 82.536 20.7862 82.529C20.7862 82.5219 20.7837 82.5151 20.7791 82.5097C20.7724 82.5076 20.7651 82.5079 20.7586 82.5106C20.7521 82.5133 20.7468 82.5182 20.7436 82.5245C19.9147 84.5083 19.2601 86.5604 18.787 88.6577C18.3034 90.7549 17.9377 92.8776 17.6918 95.0157L17.5409 96.623C17.5172 96.8924 17.4876 97.1588 17.4669 97.4281L17.4254 98.2333C17.4018 98.772 17.3692 99.3077 17.3514 99.8465L17.3662 101.46L17.384 102.268C17.3988 102.537 17.4166 102.806 17.4343 103.073C17.4758 103.612 17.5083 104.147 17.5586 104.683C17.6593 105.752 17.8221 106.817 17.9878 107.877C17.9878 107.88 17.9885 107.884 17.9899 107.887C17.9913 107.89 17.9933 107.893 17.9958 107.895C17.9983 107.897 18.0013 107.899 18.0045 107.9C18.0077 107.901 18.0111 107.901 18.0145 107.901C18.0218 107.901 18.029 107.898 18.0344 107.893C18.0399 107.888 18.0433 107.881 18.0441 107.874C18.0441 107.335 18.0174 106.799 18.0056 106.267C17.9938 105.734 17.9434 105.198 17.9523 104.662C17.9612 104.127 17.9523 103.594 17.9346 103.061L17.9198 102.259V101.46V99.8583L17.9642 98.2599L17.979 97.4607C17.979 97.1943 18.0086 96.9279 18.0234 96.6615L18.121 95.0631C18.3046 92.9344 18.607 90.8177 19.0268 88.7228C19.4316 86.6179 20.0179 84.552 20.7791 82.5482Z" fill="#263238"/>
<path d="M21.0159 90.9163C21.0173 90.9093 21.0163 90.9019 21.0131 90.8955C21.0099 90.8891 21.0046 90.8839 20.9982 90.8808C20.9947 90.8794 20.9909 90.8788 20.9872 90.8789C20.9834 90.8791 20.9798 90.88 20.9764 90.8817C20.9731 90.8834 20.9701 90.8858 20.9677 90.8887C20.9654 90.8916 20.9636 90.8949 20.9626 90.8985C20.0472 93.5665 19.4394 96.3303 19.1511 99.1362C19.009 100.536 18.8551 101.939 18.8314 103.345C18.7975 104.754 18.8479 106.164 18.9824 107.566C18.9829 107.573 18.9855 107.579 18.9898 107.584C18.994 107.588 18.9998 107.592 19.0061 107.593C19.01 107.593 19.0139 107.593 19.0176 107.592C19.0214 107.591 19.0249 107.589 19.0279 107.586C19.0309 107.584 19.0334 107.581 19.0353 107.577C19.0371 107.574 19.0383 107.57 19.0386 107.566C19.2014 106.166 19.2991 104.766 19.3968 103.369C19.4945 101.972 19.5093 100.572 19.601 99.1747C19.6863 97.7803 19.8504 96.3918 20.0924 95.0159C20.3246 93.6334 20.6329 92.2648 21.0159 90.9163Z" fill="#263238"/>
<path d="M25.6483 93.8586C25.6428 93.8531 25.6354 93.8501 25.6276 93.8501C25.6199 93.8501 25.6124 93.8531 25.6069 93.8586C24.444 94.5997 23.3958 95.5072 22.4959 96.5522C22.0444 97.0792 21.6384 97.6436 21.2823 98.2394L21.0337 98.71L20.8383 99.1984C20.7728 99.3602 20.7155 99.5251 20.6667 99.6927C20.6163 99.8585 20.5631 100.027 20.5157 100.193C20.162 101.531 19.9477 102.902 19.8763 104.284C19.8061 105.659 19.8576 107.038 20.0303 108.404C20.0308 108.41 20.0334 108.416 20.0376 108.421C20.0419 108.426 20.0476 108.429 20.0539 108.431C20.0616 108.431 20.0691 108.428 20.0751 108.423C20.0811 108.418 20.0851 108.412 20.0865 108.404L20.4387 104.325C20.5364 102.976 20.7093 101.633 20.9567 100.302C20.9923 100.14 21.0396 99.9769 21.0811 99.817C21.119 99.6536 21.1664 99.4925 21.2231 99.3346L21.4007 98.8639L21.6139 98.4199C21.9355 97.8265 22.3079 97.262 22.7268 96.7327C23.5527 95.6502 24.5331 94.6948 25.6365 93.897C25.6425 93.8929 25.6469 93.8868 25.6491 93.8799C25.6512 93.8729 25.651 93.8654 25.6483 93.8586Z" fill="#263238"/>
<path d="M23.4017 99.098C22.7996 99.5387 22.3156 100.121 21.9928 100.794C21.6522 101.453 21.3871 102.148 21.2024 102.866C21.1471 103.043 21.1006 103.223 21.0633 103.405L20.936 103.946C20.8685 104.31 20.823 104.678 20.7999 105.048C20.7999 105.418 20.7821 105.788 20.7999 106.155C20.826 106.524 20.8744 106.892 20.9449 107.256C20.9464 107.261 20.9493 107.267 20.9535 107.271C20.9577 107.275 20.9629 107.278 20.9686 107.279C20.9723 107.28 20.9762 107.28 20.9799 107.28C20.9837 107.279 20.9872 107.277 20.9903 107.275C20.9934 107.273 20.9959 107.27 20.9978 107.267C20.9997 107.263 21.0008 107.26 21.0012 107.256C21.0863 106.899 21.1515 106.537 21.1965 106.172C21.2528 105.814 21.309 105.456 21.3534 105.101C21.3978 104.746 21.4511 104.39 21.4807 104.032C21.5103 103.674 21.5547 103.316 21.6346 102.967C21.7542 102.261 21.9528 101.571 22.2266 100.91C22.4742 100.232 22.8802 99.6228 23.4106 99.1335C23.4131 99.1313 23.4151 99.1286 23.4165 99.1255C23.4179 99.1224 23.4186 99.1191 23.4186 99.1158C23.4186 99.1124 23.4179 99.1091 23.4165 99.106C23.4151 99.1029 23.4131 99.1002 23.4106 99.098C23.4077 99.0975 23.4047 99.0975 23.4017 99.098Z" fill="#263238"/>
<path d="M16.8986 103.183C16.7447 101.374 16.4457 99.5803 16.1645 97.7895C15.8833 95.9987 15.5725 94.2109 15.241 92.426C14.9095 90.6411 14.5483 88.874 14.1635 87.098C14.1616 87.0921 14.1578 87.0869 14.1528 87.0833C14.1477 87.0796 14.1417 87.0776 14.1354 87.0776C14.1292 87.0776 14.1231 87.0796 14.1181 87.0833C14.113 87.0869 14.1092 87.0921 14.1073 87.098C14.4181 88.874 14.6993 90.6737 14.9627 92.4645C15.2262 94.2553 15.4896 96.049 15.7175 97.8428C15.9455 99.6366 16.1112 101.442 16.3362 103.233L16.9992 108.632C16.9992 108.639 17.002 108.646 17.007 108.651C17.012 108.656 17.0188 108.659 17.0259 108.659C17.033 108.658 17.0399 108.655 17.0452 108.65C17.0506 108.646 17.0542 108.639 17.0555 108.632C17.0762 108.176 17.0762 107.723 17.088 107.267C17.0999 106.812 17.0673 106.359 17.0614 105.906C17.0436 104.994 16.9667 104.091 16.8986 103.183Z" fill="#263238"/>
<path d="M15.8123 103.159C15.7147 102.44 15.5844 101.726 15.4453 101.016L15.1937 99.9592C15.1079 99.6069 15.0309 99.2547 14.9273 98.9054C14.5664 97.5011 14.1034 96.1249 13.542 94.7881L13.32 94.2908L13.0773 93.8024C12.9263 93.4738 12.7399 93.163 12.5623 92.8463C12.2086 92.211 11.7694 91.6274 11.2569 91.1117C11.2544 91.1091 11.2514 91.1071 11.2481 91.1057C11.2448 91.1042 11.2413 91.1035 11.2377 91.1035C11.2341 91.1035 11.2305 91.1042 11.2272 91.1057C11.2239 91.1071 11.2209 91.1091 11.2184 91.1117C11.2158 91.1142 11.2138 91.1172 11.2123 91.1205C11.2109 91.1238 11.2102 91.1274 11.2102 91.131C11.2102 91.1346 11.2109 91.1381 11.2123 91.1414C11.2138 91.1447 11.2158 91.1477 11.2184 91.1502C11.692 91.6856 12.0904 92.2831 12.4024 92.9262C12.5623 93.2459 12.728 93.5626 12.8612 93.8971L13.0743 94.3884L13.2638 94.8916C13.7645 96.2341 14.1672 97.6112 14.4685 99.012C14.6343 99.7076 14.7438 100.418 14.8799 101.119L15.0487 102.182C15.1108 102.534 15.1848 102.884 15.2351 103.239C15.3476 103.946 15.4779 104.654 15.6022 105.361C15.7265 106.069 15.8419 106.782 15.9899 107.489C15.9913 107.496 15.995 107.502 16.0005 107.507C16.0059 107.511 16.0126 107.513 16.0195 107.513C16.0266 107.513 16.0334 107.51 16.0384 107.505C16.0434 107.5 16.0462 107.494 16.0462 107.486C16.0462 106.762 16.0294 106.039 15.9959 105.317C15.984 104.597 15.8863 103.878 15.8123 103.159Z" fill="#263238"/>
<path d="M14.3145 103.25C13.9771 102.3 13.5893 101.371 13.1661 100.459C12.7395 99.5488 12.2581 98.6651 11.7245 97.8129C11.719 97.8088 11.7122 97.8066 11.7053 97.8066C11.6984 97.8066 11.6916 97.8088 11.6861 97.8129C11.6815 97.8183 11.679 97.8251 11.679 97.8322C11.679 97.8392 11.6815 97.846 11.6861 97.8514C12.1505 98.7358 12.5617 99.6471 12.9174 100.581C13.2845 101.504 13.616 102.445 13.8913 103.398C14.1665 104.352 14.3797 105.325 14.6313 106.284C14.8829 107.243 15.1137 108.208 15.4097 109.176C15.4115 109.182 15.4151 109.187 15.4198 109.191C15.4246 109.195 15.4304 109.197 15.4364 109.197C15.4437 109.197 15.4509 109.194 15.4563 109.189C15.4618 109.185 15.4652 109.178 15.466 109.17C15.4776 108.159 15.3833 107.149 15.1848 106.157C14.9725 105.167 14.6815 104.195 14.3145 103.25Z" fill="#263238"/>
<path d="M14.2524 106.415C14.0675 105.822 13.7983 105.259 13.4532 104.743C13.1328 104.213 12.7425 103.729 12.2929 103.304C12.0599 103.096 11.8093 102.909 11.544 102.745C11.2855 102.577 11.003 102.449 10.7063 102.366C10.6997 102.365 10.6929 102.366 10.6869 102.369C10.681 102.372 10.6764 102.377 10.6738 102.383C10.6694 102.388 10.667 102.395 10.667 102.401C10.667 102.408 10.6694 102.414 10.6738 102.419C11.2087 102.674 11.6822 103.042 12.062 103.496C12.4493 103.939 12.7749 104.432 13.0299 104.962C13.3052 105.483 13.4473 106.057 13.6871 106.593C13.7907 106.868 13.8972 107.143 14.0186 107.418C14.1219 107.704 14.2435 107.983 14.3827 108.253C14.3851 108.257 14.3885 108.261 14.3926 108.264C14.3968 108.266 14.4015 108.268 14.4063 108.268C14.414 108.268 14.4215 108.265 14.4275 108.261C14.4335 108.256 14.4375 108.249 14.4389 108.241C14.4478 107.932 14.4359 107.623 14.4034 107.315C14.3886 107.016 14.3235 106.714 14.2524 106.415Z" fill="#263238"/>
<path d="M14.3618 89.6882C13.4578 89.436 12.6399 88.9414 11.9966 88.258C11.3534 87.5745 10.9092 86.7282 10.7122 85.8106C10.0254 82.6138 12.2336 83.9843 10.2563 78.9611C8.27904 73.938 8.73488 72.8014 9.41864 71.3539C10.1024 69.9065 10.4842 70.3653 11.091 72.2686C11.6978 74.1719 13.9119 77.1378 14.7437 82.6907C15.5754 88.2437 14.3618 89.6882 14.3618 89.6882Z" fill="#00DCA6"/>
<path d="M20.2226 84.2889C20.2226 84.2889 18.2424 83.6022 18.1684 79.8756C18.0944 76.1489 19.6129 76.9156 19.8408 72.2684C20.0687 67.6212 20.3736 64.3563 21.2113 64.2764C22.0489 64.1965 24.2541 66.5585 25.0149 71.7326C25.7756 76.9067 24.0262 80.3166 22.5048 81.8499C20.9833 83.3832 20.2226 84.2889 20.2226 84.2889Z" fill="#00DCA6"/>
<path d="M13.2992 94.1785C13.2992 94.1785 12.8404 91.4405 11.9287 90.147C11.017 88.8534 9.03679 87.7109 7.74327 85.2008C6.44975 82.6907 5.00527 81.4742 5.07927 85.0498C5.15327 88.6255 6.75167 90.4489 8.73191 91.6684C10.7121 92.8879 13.2992 94.1785 13.2992 94.1785Z" fill="#00DCA6"/>
<path d="M12.4616 98.8936C12.4616 98.8936 10.6352 95.3949 7.9742 92.8079C5.31316 90.2208 3.179 88.9273 3.93972 90.2208C4.70044 91.5144 5.61508 91.4404 6.89972 93.7225C8.18436 96.0047 7.8114 97.6771 9.63772 98.9706C11.464 100.264 12.4616 98.8936 12.4616 98.8936Z" fill="#00DCA6"/>
<path d="M12.2336 103.384C12.1566 103.156 12.0797 101.48 9.4956 100.128C6.91152 98.775 4.4636 99.2901 4.77736 99.9738C5.09112 100.658 6.68064 101.8 8.27608 102.484C9.87152 103.168 12.2336 103.384 12.2336 103.384Z" fill="#00DCA6"/>
<path d="M20.0687 94.3294C20.0687 94.3294 18.9439 92.8849 19.5359 89.842C20.1279 86.7991 21.5132 87.5598 23.0376 85.9614C24.562 84.363 24.2542 84.1351 25.7756 82.4627C27.297 80.7903 28.6646 79.8757 29.2743 80.5594C29.8841 81.2432 28.9783 83.3744 28.0578 84.591C27.1372 85.8075 25.6898 86.4173 25.0149 87.9387C24.34 89.4602 24.633 91.8962 22.8837 93.0358C21.1343 94.1754 20.0687 94.3294 20.0687 94.3294Z" fill="#00DCA6"/>
<path d="M23.8723 95.1671C23.8723 95.1671 26.6133 92.0561 28.5906 89.7651C30.5678 87.4741 31.3286 85.7336 31.4055 87.255C31.4825 88.7765 32.0893 89.993 30.4909 91.9703C28.8925 93.9476 23.8723 95.1671 23.8723 95.1671Z" fill="#00DCA6"/>
<path d="M22.4278 100.187C22.4278 100.187 22.3509 98.9707 26.6873 96.1557C31.0237 93.3408 32.85 92.808 32.3941 93.9505C31.9383 95.0931 30.0261 96.2327 27.9808 98.2869C25.9354 100.341 22.4278 100.187 22.4278 100.187Z" fill="#00DCA6"/>
<path d="M14.5454 89.5131C14.5105 89.5131 14.4767 89.501 14.4497 89.4789C14.4227 89.4568 14.4042 89.426 14.3974 89.3918C14.3974 89.3385 13.3702 83.895 12.3254 80.0678C11.2805 76.2405 10.5819 73.8518 10.576 73.831C10.5701 73.8124 10.5681 73.7927 10.57 73.7733C10.572 73.7538 10.5778 73.735 10.5872 73.7178C10.5966 73.7007 10.6094 73.6856 10.6247 73.6735C10.6401 73.6615 10.6578 73.6526 10.6766 73.6475C10.7143 73.6365 10.7548 73.641 10.7892 73.6598C10.8237 73.6787 10.8492 73.7105 10.8602 73.7482C10.8602 73.7718 11.5558 76.1517 12.6095 79.9878C13.6633 83.824 14.6815 89.2822 14.6963 89.3385C14.7032 89.3769 14.6947 89.4166 14.6725 89.4487C14.6503 89.4809 14.6163 89.503 14.5779 89.5102L14.5454 89.5131Z" fill="#263238"/>
<path d="M20.0451 84.4931H20.0007C19.9634 84.4809 19.9325 84.4544 19.9147 84.4195C19.897 84.3845 19.8938 84.3439 19.906 84.3066C19.9237 84.2474 21.7589 78.36 22.3568 74.8346C22.9015 71.6467 22.4072 69.1929 22.0816 67.5708C22.0431 67.3873 22.0076 67.2126 21.978 67.0528C21.9743 67.0334 21.9744 67.0134 21.9785 66.994C21.9825 66.9746 21.9903 66.9563 22.0014 66.9399C22.0125 66.9235 22.0268 66.9095 22.0433 66.8987C22.0599 66.8878 22.0784 66.8804 22.0978 66.8767C22.1173 66.873 22.1372 66.8732 22.1566 66.8772C22.176 66.8812 22.1944 66.889 22.2107 66.9001C22.2271 66.9113 22.2411 66.9255 22.2519 66.9421C22.2628 66.9586 22.2703 66.9771 22.274 66.9966C22.3065 67.1564 22.3391 67.3281 22.3776 67.5116C22.7061 69.1574 23.2064 71.6556 22.6558 74.885C22.0638 78.437 20.2108 84.3362 20.1931 84.3954C20.1823 84.4255 20.162 84.4513 20.1353 84.4689C20.1086 84.4865 20.077 84.495 20.0451 84.4931Z" fill="#263238"/>
<path d="M13.0595 94.2109C13.0332 94.2113 13.0072 94.2046 12.9843 94.1916C12.9614 94.1786 12.9424 94.1597 12.9293 94.1369C12.1132 92.7367 11.1805 91.4079 10.1409 90.1646C9.71469 89.6585 9.31805 89.2204 8.93325 88.7971C7.83509 87.5805 6.96485 86.6185 6.39061 85.18C6.38299 85.162 6.37909 85.1426 6.37915 85.123C6.37922 85.1034 6.38324 85.0841 6.39098 85.0661C6.39873 85.0481 6.41003 85.0319 6.42421 85.0184C6.43839 85.0049 6.45515 84.9944 6.47349 84.9876C6.49156 84.9804 6.51088 84.9768 6.53034 84.9771C6.54979 84.9773 6.56901 84.9814 6.58688 84.9891C6.60475 84.9968 6.62093 85.008 6.63448 85.0219C6.64804 85.0359 6.65871 85.0524 6.66589 85.0705C7.21941 86.4587 8.07485 87.4029 9.15525 88.5988C9.54005 89.025 9.93669 89.4631 10.3689 89.9722C11.4195 91.2305 12.3621 92.5752 13.1868 93.9919C13.2059 94.0261 13.2108 94.0664 13.2002 94.1042C13.1897 94.1419 13.1646 94.1739 13.1305 94.1932C13.1086 94.2046 13.0842 94.2107 13.0595 94.2109Z" fill="#263238"/>
<path d="M20.0688 94.4771H20.0451C20.0259 94.4742 20.0075 94.4675 19.991 94.4574C19.9745 94.4473 19.9601 94.434 19.9488 94.4183C19.9375 94.4026 19.9294 94.3848 19.9251 94.3659C19.9208 94.347 19.9204 94.3274 19.9237 94.3083C19.9474 94.1574 20.5542 90.5995 21.9957 88.6843C22.5581 87.9443 23.3307 87.0534 24.1476 86.1121C25.4382 84.6321 26.7732 83.0811 27.4658 81.9267C27.4742 81.9073 27.4866 81.89 27.5022 81.8758C27.5178 81.8616 27.5363 81.851 27.5563 81.8445C27.5764 81.8381 27.5976 81.836 27.6186 81.8384C27.6395 81.8408 27.6597 81.8477 27.6778 81.8585C27.6959 81.8693 27.7114 81.8839 27.7234 81.9013C27.7354 81.9186 27.7435 81.9383 27.7473 81.9591C27.751 81.9798 27.7503 82.0011 27.7452 82.0216C27.74 82.042 27.7305 82.0611 27.7174 82.0776C27.0129 83.2616 25.6691 84.8067 24.3696 86.3045C23.5556 87.2428 22.789 88.1308 22.2325 88.8619C20.8265 90.7119 20.2138 94.3143 20.2049 94.3498C20.2008 94.3836 20.1849 94.4149 20.16 94.4382C20.1351 94.4615 20.1028 94.4752 20.0688 94.4771Z" fill="#263238"/>
<path d="M12.0531 103.449C12.0249 103.448 11.9974 103.44 11.9732 103.426C11.9495 103.408 9.40094 101.75 7.60126 100.853C7.56695 100.835 7.54103 100.804 7.5289 100.767C7.51677 100.73 7.51936 100.69 7.53614 100.655C7.54466 100.637 7.55656 100.622 7.57115 100.609C7.58574 100.596 7.60274 100.586 7.62116 100.58C7.63959 100.573 7.65908 100.571 7.67852 100.572C7.69796 100.573 7.71697 100.578 7.73446 100.587C9.54598 101.496 12.1093 103.159 12.136 103.177C12.1684 103.199 12.191 103.232 12.1987 103.271C12.2065 103.309 12.1988 103.349 12.1774 103.381C12.1645 103.402 12.1462 103.42 12.1244 103.432C12.1025 103.444 12.078 103.45 12.0531 103.449Z" fill="#263238"/>
<path d="M26.714 118.634C26.5423 114.019 21.4126 110.938 21.4126 110.938H13.5508C13.5508 110.938 8.42115 114.016 8.24947 118.634C8.07779 123.252 14.0629 140.177 14.0629 140.177H20.9005C20.9005 140.177 26.8827 123.252 26.714 118.634Z" fill="#263238"/>
<path d="M20.9005 140.325H14.0629C14.0324 140.325 14.0028 140.315 13.9779 140.298C13.953 140.28 13.9341 140.255 13.9237 140.227C13.6781 139.534 7.9327 123.222 8.10142 118.619C8.2731 113.978 13.4294 110.834 13.4738 110.804C13.497 110.79 13.5237 110.783 13.5508 110.784H21.4125C21.4396 110.783 21.4664 110.79 21.4895 110.804C21.5398 110.834 26.6873 113.978 26.8589 118.619C27.0306 123.213 21.2823 139.525 21.0396 140.227C21.0292 140.255 21.0103 140.28 20.9854 140.298C20.9606 140.315 20.9309 140.325 20.9005 140.325ZM14.1694 140.029H20.7939C21.2853 138.634 26.7139 122.994 26.5659 118.64C26.4061 114.353 21.8299 111.367 21.3711 111.089H13.5922C13.1482 111.367 8.56022 114.345 8.39742 118.64C8.23758 122.994 13.6781 138.634 14.1694 140.029Z" fill="#263238"/>
<path d="M22.4249 106.4H12.3934L13.5508 110.941H21.2675L22.4249 106.4Z" fill="#263238"/>
<path d="M21.2676 111.089H13.5509C13.5177 111.088 13.4855 111.077 13.4593 111.057C13.4331 111.037 13.4143 111.008 13.4058 110.976L12.2485 106.438C12.2437 106.417 12.2437 106.394 12.2483 106.372C12.2529 106.35 12.262 106.329 12.2751 106.311C12.2887 106.293 12.3066 106.278 12.3272 106.267C12.3478 106.257 12.3705 106.252 12.3935 106.252H22.425C22.4474 106.253 22.4694 106.258 22.4894 106.269C22.5094 106.279 22.5268 106.293 22.5404 106.311C22.554 106.329 22.5635 106.35 22.5681 106.372C22.5727 106.394 22.5723 106.417 22.567 106.438L21.4097 110.976C21.4023 111.008 21.3842 111.037 21.3584 111.057C21.3325 111.078 21.3005 111.089 21.2676 111.089ZM13.6663 110.793H21.1522L22.2326 106.56H12.583L13.6663 110.793Z" fill="#263238"/>
<path d="M151.823 140.325H14.2776C14.2384 140.325 14.2007 140.31 14.173 140.282C14.1452 140.254 14.1296 140.217 14.1296 140.177C14.1296 140.138 14.1452 140.1 14.173 140.073C14.2007 140.045 14.2384 140.029 14.2776 140.029H151.823C151.862 140.029 151.9 140.045 151.928 140.073C151.955 140.1 151.971 140.138 151.971 140.177C151.971 140.217 151.955 140.254 151.928 140.282C151.9 140.31 151.862 140.325 151.823 140.325Z" fill="#263238"/>
<path d="M100.037 17.3047V119.016C100.037 120.357 99.5046 121.643 98.5565 122.591C97.6084 123.539 96.3224 124.072 94.9816 124.072H51.0315C49.6907 124.072 48.4047 123.539 47.4566 122.591C46.5085 121.643 45.9758 120.357 45.9758 119.016V17.3018C45.9758 15.9617 46.5082 14.6765 47.4557 13.729C48.4033 12.7814 49.6885 12.2491 51.0286 12.2491H69.8926L69.9104 12.3053C70.384 13.9984 71.4614 15.0966 72.6632 15.0966H73.344C74.5458 15.0966 75.6262 13.9955 76.0968 12.3023L76.1175 12.2461H94.9816C95.6458 12.2461 96.3034 12.377 96.917 12.6312C97.5306 12.8855 98.088 13.2581 98.5575 13.7279C99.027 14.1977 99.3994 14.7554 99.6533 15.3691C99.9072 15.9828 100.038 16.6406 100.037 17.3047Z" fill="white"/>
<path d="M93.9815 124.219H50.0314C49.3473 124.22 48.6697 124.086 48.0374 123.825C47.405 123.564 46.8303 123.181 46.346 122.698C45.8617 122.215 45.4773 121.641 45.2147 121.009C44.9522 120.377 44.8167 119.7 44.8159 119.016V17.3013C44.8175 15.9225 45.3659 14.6006 46.3409 13.6256C47.3159 12.6506 48.6378 12.1022 50.0166 12.1006H68.9932L69.0406 12.2663C69.4934 13.8973 70.5206 14.9511 71.6513 14.9511H72.3439C73.4776 14.9511 74.5018 13.8973 74.9546 12.2663L75.0079 12.1006H93.9815C95.3611 12.1022 96.6838 12.6509 97.6593 13.6264C98.6349 14.602 99.1836 15.9246 99.1852 17.3043V119.016C99.1836 120.395 98.6349 121.718 97.6593 122.694C96.6838 123.669 95.3611 124.218 93.9815 124.219ZM50.0285 12.3966C49.3836 12.3958 48.7449 12.5221 48.1488 12.7681C47.5527 13.0142 47.0109 13.3752 46.5544 13.8307C46.0979 14.2861 45.7355 14.827 45.488 15.4225C45.2405 16.018 45.1127 16.6564 45.1119 17.3013V119.016C45.1135 120.317 45.631 121.564 46.5511 122.484C47.4711 123.404 48.7185 123.922 50.0196 123.923H93.9815C95.2826 123.922 96.53 123.404 97.45 122.484C98.3701 121.564 98.8876 120.317 98.8892 119.016V17.3043C98.8876 16.0031 98.3701 14.7558 97.45 13.8357C96.53 12.9157 95.2826 12.3982 93.9815 12.3966H75.2329C74.7356 14.1282 73.6078 15.2471 72.3498 15.2471H71.6631C70.4051 15.2471 69.2774 14.1282 68.7801 12.3966H50.0285Z" fill="#263238"/>
<path d="M80.3063 78.6919H64.6272C63.836 78.6919 63.1946 79.3333 63.1946 80.1245V83.0372C63.1946 83.8284 63.836 84.4698 64.6272 84.4698H80.3063C81.0976 84.4698 81.739 83.8284 81.739 83.0372V80.1245C81.739 79.3333 81.0976 78.6919 80.3063 78.6919Z" fill="#263238"/>
<path d="M80.3034 84.6179H64.6154C64.1965 84.6171 63.7949 84.4503 63.4986 84.154C63.2024 83.8578 63.0356 83.4562 63.0348 83.0372V80.1246C63.0348 79.7054 63.2013 79.3033 63.4977 79.0069C63.7942 78.7105 64.1962 78.5439 64.6154 78.5439H80.3034C80.7229 78.5439 81.1253 78.7104 81.4222 79.0067C81.7191 79.3031 81.8862 79.7051 81.887 80.1246V83.0372C81.8862 83.4567 81.7191 83.8587 81.4222 84.1551C81.1253 84.4514 80.7229 84.6179 80.3034 84.6179ZM64.6154 78.8399C64.2747 78.8399 63.948 78.9753 63.707 79.2162C63.4661 79.4571 63.3308 79.7839 63.3308 80.1246V83.0372C63.3316 83.3777 63.4672 83.704 63.7079 83.9447C63.9487 84.1855 64.275 84.3211 64.6154 84.3219H80.3034C80.6444 84.3219 80.9715 84.1866 81.2129 83.9458C81.4542 83.705 81.5902 83.3782 81.591 83.0372V80.1246C81.591 79.9556 81.5577 79.7883 81.493 79.6323C81.4282 79.4762 81.3333 79.3345 81.2137 79.2152C81.0941 79.0958 80.9522 79.0013 80.7959 78.9369C80.6397 78.8725 80.4724 78.8396 80.3034 78.8399H64.6154Z" fill="#263238"/>
<path d="M44.9758 92.4292V119.016C44.9758 120.357 45.5085 121.643 46.4566 122.591C47.4047 123.539 48.6907 124.072 50.0315 124.072H93.9816C95.3224 124.072 96.6084 123.539 97.5565 122.591C98.5046 121.643 99.0373 120.357 99.0373 119.016V92.4292H44.9758Z" fill="#DBDBDB"/>
<path d="M93.9815 124.22H50.0314C49.3473 124.22 48.6697 124.086 48.0374 123.825C47.405 123.564 46.8303 123.181 46.346 122.698C45.8617 122.215 45.4773 121.641 45.2147 121.009C44.9522 120.377 44.8167 119.7 44.8159 119.016V92.4293C44.8159 92.39 44.8315 92.3523 44.8593 92.3246C44.887 92.2968 44.9247 92.2812 44.9639 92.2812H99.0372C99.0765 92.2812 99.1141 92.2968 99.1418 92.3246C99.1696 92.3523 99.1852 92.39 99.1852 92.4293V119.016C99.1836 120.396 98.6349 121.718 97.6593 122.694C96.6838 123.669 95.3611 124.218 93.9815 124.22ZM45.1119 92.5773V119.016C45.1135 120.317 45.631 121.564 46.5511 122.484C47.4711 123.405 48.7185 123.922 50.0196 123.924H93.9815C95.2826 123.922 96.53 123.405 97.45 122.484C98.3701 121.564 98.8876 120.317 98.8892 119.016V92.5773H45.1119Z" fill="#263238"/>
<path d="M61.4393 95.6382H47.9624C47.5914 95.6382 47.2905 95.939 47.2905 96.3101V99.945C47.2905 100.316 47.5914 100.617 47.9624 100.617H61.4393C61.8104 100.617 62.1112 100.316 62.1112 99.945V96.3101C62.1112 95.939 61.8104 95.6382 61.4393 95.6382Z" fill="white"/>
<path d="M78.0272 95.6382H64.5503C64.1792 95.6382 63.8784 95.939 63.8784 96.3101V99.945C63.8784 100.316 64.1792 100.617 64.5503 100.617H78.0272C78.3983 100.617 78.6991 100.316 78.6991 99.945V96.3101C78.6991 95.939 78.3983 95.6382 78.0272 95.6382Z" fill="white"/>
<path d="M94.6121 95.6382H81.1352C80.7641 95.6382 80.4633 95.939 80.4633 96.3101V99.945C80.4633 100.316 80.7641 100.617 81.1352 100.617H94.6121C94.9832 100.617 95.284 100.316 95.284 99.945V96.3101C95.284 95.939 94.9832 95.6382 94.6121 95.6382Z" fill="white"/>
<path d="M61.4393 102.002H47.9624C47.5914 102.002 47.2905 102.303 47.2905 102.674V106.309C47.2905 106.68 47.5914 106.981 47.9624 106.981H61.4393C61.8104 106.981 62.1112 106.68 62.1112 106.309V102.674C62.1112 102.303 61.8104 102.002 61.4393 102.002Z" fill="white"/>
<path d="M78.0272 102.002H64.5503C64.1792 102.002 63.8784 102.303 63.8784 102.674V106.309C63.8784 106.68 64.1792 106.981 64.5503 106.981H78.0272C78.3983 106.981 78.6991 106.68 78.6991 106.309V102.674C78.6991 102.303 78.3983 102.002 78.0272 102.002Z" fill="white"/>
<path d="M94.6121 102.002H81.1352C80.7641 102.002 80.4633 102.303 80.4633 102.674V106.309C80.4633 106.68 80.7641 106.981 81.1352 106.981H94.6121C94.9832 106.981 95.284 106.68 95.284 106.309V102.674C95.284 102.303 94.9832 102.002 94.6121 102.002Z" fill="white"/>
<path d="M61.4393 108.363H47.9624C47.5914 108.363 47.2905 108.664 47.2905 109.035V112.67C47.2905 113.041 47.5914 113.342 47.9624 113.342H61.4393C61.8104 113.342 62.1112 113.041 62.1112 112.67V109.035C62.1112 108.664 61.8104 108.363 61.4393 108.363Z" fill="white"/>
<path d="M78.0272 108.363H64.5503C64.1792 108.363 63.8784 108.664 63.8784 109.035V112.67C63.8784 113.041 64.1792 113.342 64.5503 113.342H78.0272C78.3983 113.342 78.6991 113.041 78.6991 112.67V109.035C78.6991 108.664 78.3983 108.363 78.0272 108.363Z" fill="white"/>
<path d="M94.6121 108.363H81.1352C80.7641 108.363 80.4633 108.664 80.4633 109.035V112.67C80.4633 113.041 80.7641 113.342 81.1352 113.342H94.6121C94.9832 113.342 95.284 113.041 95.284 112.67V109.035C95.284 108.664 94.9832 108.363 94.6121 108.363Z" fill="white"/>
<path d="M78.0272 114.727H64.5503C64.1792 114.727 63.8784 115.028 63.8784 115.399V119.034C63.8784 119.405 64.1792 119.706 64.5503 119.706H78.0272C78.3983 119.706 78.6991 119.405 78.6991 119.034V115.399C78.6991 115.028 78.3983 114.727 78.0272 114.727Z" fill="white"/>
<path d="M93.4961 119.706H84.2491L82.254 117.388L84.2491 114.727H93.4961V119.706Z" fill="white"/>
<path d="M72.5985 35.2837L72.4653 35.1831L72.3321 35.2837C72.3321 35.2837 65.5241 39.1584 62.4457 40.6295C62.4457 40.6295 63.9257 48.9175 64.9824 52.653C66.0391 56.3885 70.195 58.3984 72.4653 59.7333C74.7386 58.3984 78.8796 56.3945 79.9482 52.653C81.0167 48.9116 82.4878 40.6295 82.4878 40.6295C79.4124 39.1584 72.5985 35.2837 72.5985 35.2837Z" fill="#00DCA6"/>
<path d="M71.7668 51.3001L67.2499 47.4284C67.1465 47.34 67.0615 47.2321 66.9998 47.1108C66.9381 46.9895 66.9009 46.8573 66.8903 46.7216C66.869 46.4477 66.9573 46.1765 67.1359 45.9677C67.3145 45.7588 67.5687 45.6295 67.8427 45.6081C68.1166 45.5868 68.3878 45.6751 68.5967 45.8537L71.5567 48.3934L76.6301 42.6243C76.8114 42.4179 77.0674 42.2919 77.3416 42.2741C77.6158 42.2564 77.8859 42.3483 78.0923 42.5296C78.2988 42.711 78.4248 42.9669 78.4425 43.2411C78.4603 43.5153 78.3684 43.7854 78.1871 43.9919L71.7668 51.3001Z" fill="white"/>
<path d="M54.8267 64.3599H48.6818V70.5048H54.8267V64.3599Z" fill="white"/>
<path d="M54.9776 70.6524H48.5337V64.2114H54.9776V70.6524ZM48.8297 70.3564H54.6816V64.5074H48.8297V70.3564Z" fill="#263238"/>
<path d="M63.1118 64.3599H56.9668V70.5048H63.1118V64.3599Z" fill="white"/>
<path d="M63.2597 70.6524H56.8187V64.2114H63.2597V70.6524ZM57.1147 70.3564H62.9637V64.5074H57.1147V70.3564Z" fill="#263238"/>
<path d="M71.3968 64.3599H65.2518V70.5048H71.3968V64.3599Z" fill="white"/>
<path d="M71.5447 70.6524H65.1038V64.2114H71.5447V70.6524ZM65.3998 70.3564H71.2487V64.5074H65.3998V70.3564Z" fill="#263238"/>
<path d="M79.6789 64.3599H73.5339V70.5048H79.6789V64.3599Z" fill="white"/>
<path d="M79.8298 70.6524H73.3859V64.2114H79.8298V70.6524ZM73.6819 70.3564H79.5338V64.5074H73.6819V70.3564Z" fill="#263238"/>
<path d="M87.9639 64.3599H81.819V70.5048H87.9639V64.3599Z" fill="white"/>
<path d="M88.1119 70.6524H81.6709V64.2114H88.1119V70.6524ZM81.9669 70.3564H87.8159V64.5074H81.9669V70.3564Z" fill="#263238"/>
<path d="M96.249 64.3599H90.104V70.5048H96.249V64.3599Z" fill="white"/>
<path d="M96.3969 70.6524H89.9559V64.2114H96.3969V70.6524ZM90.2519 70.3564H96.1009V64.5074H90.2519V70.3564Z" fill="#263238"/>
<path d="M99.0373 22.0348V17.2988C99.0357 15.959 98.5024 14.6746 97.5544 13.7277C96.6064 12.7809 95.3214 12.2491 93.9816 12.2491H75.1205L75.1027 12.3053C74.6321 13.9984 73.5517 15.0966 72.344 15.0966H71.6632C70.4614 15.0966 69.3781 13.9955 68.9104 12.3023L68.8926 12.2461H50.0286C48.6885 12.2461 47.4033 12.7784 46.4557 13.726C45.5082 14.6736 44.9758 15.9587 44.9758 17.2988V22.0348H99.0373Z" fill="#DBDBDB"/>
<path d="M99.0342 22.1824H44.9758C44.9365 22.1824 44.8989 22.1668 44.8711 22.139C44.8434 22.1113 44.8278 22.0736 44.8278 22.0344V17.2984C44.8293 15.9195 45.3778 14.5976 46.3527 13.6226C47.3277 12.6477 48.6496 12.0992 50.0285 12.0977H68.8926C68.9251 12.0973 68.9568 12.108 68.9826 12.1278C69.0083 12.1477 69.0267 12.1756 69.0346 12.2072L69.0524 12.2634C69.5053 13.8944 70.5324 14.9481 71.6631 14.9481H72.3439C73.4776 14.9481 74.5018 13.8944 74.9546 12.2634L74.9754 12.2013C74.9843 12.1713 75.0027 12.145 75.0277 12.1264C75.0528 12.1077 75.0832 12.0976 75.1145 12.0977H93.9815C95.3609 12.0992 96.6832 12.6481 97.6583 13.6237C98.6334 14.5993 99.1815 15.922 99.1822 17.3013V22.0373C99.1815 22.0761 99.1655 22.113 99.1379 22.1401C99.1102 22.1672 99.073 22.1824 99.0342 22.1824ZM45.1119 21.8864H98.8862V17.3043C98.8855 16.0035 98.3686 14.7561 97.449 13.836C96.5294 12.9158 95.2824 12.3982 93.9815 12.3966H75.2329C74.7356 14.1282 73.6078 15.2471 72.3498 15.2471H71.6631C70.4051 15.2471 69.2774 14.1282 68.7801 12.3966H50.0285C49.3836 12.3958 48.7449 12.5221 48.1488 12.7682C47.5527 13.0142 47.0109 13.3753 46.5544 13.8307C46.0979 14.2862 45.7355 14.8271 45.488 15.4226C45.2405 16.0181 45.1127 16.6565 45.1119 17.3013V21.8864Z" fill="#263238"/>
<path d="M102.474 41.5972V31.4385H101.553V18.4322C101.554 17.3793 101.347 16.3367 100.944 15.3638C100.541 14.391 99.951 13.507 99.2066 12.7624C98.4622 12.0177 97.5784 11.427 96.6057 11.024C95.633 10.621 94.5905 10.4136 93.5376 10.4136H50.4755C49.4217 10.4124 48.3781 10.619 47.4042 11.0214C46.4303 11.4239 45.5453 12.0143 44.7997 12.759C44.0542 13.5038 43.4628 14.3881 43.0592 15.3616C42.6557 16.335 42.448 17.3784 42.448 18.4322V121.781C42.448 122.834 42.6554 123.876 43.0584 124.849C43.4615 125.821 44.0521 126.705 44.7968 127.45C45.5414 128.194 46.4254 128.784 47.3983 129.187C48.3711 129.59 49.4138 129.797 50.4666 129.796H93.5376C94.5903 129.797 95.6328 129.59 96.6055 129.187C97.5782 128.784 98.462 128.194 99.2064 127.449C99.9508 126.705 100.541 125.821 100.944 124.849C101.347 123.876 101.554 122.833 101.553 121.781V50.2552H102.474V44.2523H101.553V41.5883L102.474 41.5972ZM99.0373 116.053C99.0373 118.18 98.1925 120.219 96.6887 121.723C95.1849 123.227 93.1453 124.072 91.0186 124.072H52.9945C50.8678 124.072 48.8282 123.227 47.3244 121.723C45.8207 120.219 44.9758 118.18 44.9758 116.053V20.2645C44.9766 18.1383 45.8218 16.0995 47.3255 14.5963C48.8292 13.0932 50.8683 12.2488 52.9945 12.2488H68.8926L68.9104 12.305C69.384 13.9981 70.4614 15.0963 71.6632 15.0963H72.344C73.5458 15.0963 74.6262 13.9952 75.0968 12.3021L75.1175 12.2458H91.0127C93.1389 12.2458 95.178 13.0902 96.6817 14.5934C98.1854 16.0965 99.0306 18.1353 99.0314 20.2615L99.0373 116.053Z" fill="#00DCA6"/>
<path d="M93.5376 129.944H50.4755C48.3108 129.942 46.2354 129.081 44.7044 127.551C43.1735 126.02 42.312 123.945 42.3088 121.781V18.4323C42.312 16.2673 43.1734 14.1919 44.7043 12.661C46.2351 11.1302 48.3105 10.2688 50.4755 10.2656H93.5376C95.7023 10.2688 97.7773 11.1303 99.3077 12.6612C100.838 14.1922 101.699 16.2676 101.701 18.4323V31.2905H102.474C102.513 31.2905 102.551 31.3061 102.578 31.3339C102.606 31.3616 102.622 31.3993 102.622 31.4385V41.5972C102.622 41.6365 102.606 41.6741 102.578 41.7019C102.551 41.7296 102.513 41.7452 102.474 41.7452H101.701V44.1132H102.474C102.513 44.1132 102.551 44.1288 102.578 44.1566C102.606 44.1843 102.622 44.222 102.622 44.2612V50.2641C102.622 50.3034 102.606 50.341 102.578 50.3688C102.551 50.3965 102.513 50.4121 102.474 50.4121H101.701V121.781C101.699 123.945 100.838 126.02 99.3076 127.551C97.7771 129.081 95.702 129.942 93.5376 129.944ZM50.4755 10.5616C48.3888 10.564 46.3882 11.394 44.9127 12.8695C43.4372 14.345 42.6072 16.3456 42.6048 18.4323V121.781C42.6072 123.867 43.4373 125.867 44.9129 127.342C46.3885 128.817 48.389 129.647 50.4755 129.648H93.5376C95.6235 129.646 97.6233 128.816 99.0983 127.341C100.573 125.866 101.403 123.867 101.405 121.781V50.2552C101.405 50.216 101.421 50.1783 101.449 50.1506C101.476 50.1228 101.514 50.1072 101.553 50.1072H102.326V44.4003H101.553C101.514 44.3996 101.477 44.3838 101.449 44.3562C101.422 44.3286 101.406 44.2914 101.405 44.2523V41.5883C101.405 41.5491 101.421 41.5115 101.449 41.4837C101.476 41.4559 101.514 41.4403 101.553 41.4403H102.326V31.5865H101.553C101.514 31.5857 101.477 31.5699 101.449 31.5423C101.422 31.5147 101.406 31.4775 101.405 31.4385V18.4323C101.404 16.3458 100.574 14.3453 99.0993 12.8697C97.6242 11.3941 95.624 10.564 93.5376 10.5616H50.4755ZM91.0275 124.226H52.9944C50.8264 124.226 48.7471 123.365 47.2135 121.832C45.6799 120.3 44.8175 118.221 44.816 116.053V20.2645C44.8191 18.0998 45.6806 16.0247 47.2116 14.4943C48.7425 12.9639 50.8179 12.1032 52.9826 12.1008H68.8808C68.9134 12.1 68.9454 12.1104 68.9713 12.1303C68.9971 12.1503 69.0154 12.1785 69.0228 12.2103L69.0406 12.2666C69.4935 13.8975 70.5206 14.9513 71.6513 14.9513H72.344C73.4776 14.9513 74.5018 13.8975 74.9547 12.2666L74.9754 12.2044C74.9843 12.1745 75.0027 12.1482 75.0278 12.1295C75.0528 12.1109 75.0833 12.1008 75.1145 12.1008H91.0127C93.1774 12.1032 95.2528 12.9639 96.7837 14.4943C98.3147 16.0247 99.1762 18.0998 99.1793 20.2645V116.053C99.1762 118.217 98.3156 120.292 96.786 121.822C95.2564 123.353 93.1825 124.215 91.0186 124.22L91.0275 124.226ZM52.9944 12.3968C50.906 12.3953 48.9023 13.2232 47.4242 14.6986C45.946 16.174 45.1143 18.176 45.112 20.2645V116.053C45.1143 118.14 45.9443 120.14 47.4198 121.616C48.8953 123.091 50.8959 123.921 52.9826 123.924H91.0186C93.1053 123.921 95.1059 123.091 96.5814 121.616C98.0569 120.14 98.8869 118.14 98.8892 116.053V20.2645C98.8869 18.1781 98.0568 16.1778 96.5812 14.7028C95.1056 13.2277 93.105 12.3984 91.0186 12.3968H75.2329C74.7356 14.1284 73.6079 15.2473 72.3499 15.2473H71.6632C70.4052 15.2473 69.2774 14.1284 68.7801 12.3968H52.9944Z" fill="#263238"/>
<path d="M92.8952 11.5176H51.1177C49.069 11.5184 47.1043 12.332 45.6547 13.7798C44.2052 15.2277 43.3894 17.1915 43.3862 19.2402V120.961C43.3862 123.011 44.2008 124.978 45.6507 126.428C47.1007 127.878 49.0672 128.692 51.1177 128.692H92.8952C94.9457 128.692 96.9123 127.878 98.3622 126.428C99.8121 124.978 100.627 123.011 100.627 120.961V19.2402C100.624 17.1915 99.8077 15.2277 98.3582 13.7798C96.9087 12.332 94.9439 11.5184 92.8952 11.5176ZM99.0372 116.328C99.0364 118.379 98.2212 120.346 96.7708 121.795C95.3204 123.245 93.3535 124.06 91.3027 124.06H52.7102C50.6594 124.06 48.6926 123.245 47.2422 121.795C45.7918 120.346 44.9765 118.379 44.9758 116.328V19.9773C44.9758 18.9621 45.1758 17.9568 45.5643 17.019C45.9529 16.0811 46.5225 15.229 47.2404 14.5113C47.9584 13.7936 48.8108 13.2244 49.7488 12.8362C50.6868 12.4479 51.6921 12.2483 52.7073 12.2487H68.8925L68.9103 12.3049C69.3839 13.9981 70.4613 15.0962 71.6631 15.0962H72.3439C73.5457 15.0962 74.6261 13.9951 75.0967 12.302L75.1174 12.2457H91.2968C92.3131 12.2446 93.3197 12.4438 94.2589 12.832C95.1982 13.2202 96.0517 13.7898 96.7706 14.5082C97.4895 15.2265 98.0597 16.0796 98.4487 17.0185C98.8376 17.9575 99.0376 18.9639 99.0372 19.9802V116.328Z" fill="#263238"/>
<path d="M92.8952 128.84H51.1178C49.0287 128.838 47.0259 128.007 45.5487 126.53C44.0715 125.053 43.2406 123.05 43.2383 120.961V19.2404C43.2406 17.1513 44.0715 15.1485 45.5487 13.6713C47.0259 12.1941 49.0287 11.3632 51.1178 11.3608H92.8952C94.9843 11.3632 96.9871 12.1941 98.4643 13.6713C99.9415 15.1485 100.772 17.1513 100.775 19.2404V120.961C100.772 123.05 99.9415 125.053 98.4643 126.53C96.9871 128.007 94.9843 128.838 92.8952 128.84ZM51.1178 11.6687C49.1093 11.671 47.1836 12.4691 45.7622 13.8882C44.3409 15.3074 43.5398 17.2319 43.5343 19.2404V120.961C43.5366 122.971 44.3364 124.899 45.758 126.321C47.1797 127.742 49.1072 128.542 51.1178 128.544H92.8952C94.9058 128.542 96.8333 127.742 98.255 126.321C99.6767 124.899 100.476 122.971 100.479 120.961V19.2404C100.476 17.2298 99.6767 15.3023 98.255 13.8806C96.8333 12.4589 94.9058 11.6592 92.8952 11.6568L51.1178 11.6687ZM91.3028 124.22H52.7103C51.6737 124.22 50.6472 124.016 49.6895 123.62C48.7317 123.223 47.8614 122.642 47.1283 121.909C46.3952 121.177 45.8137 120.307 45.4169 119.349C45.0202 118.391 44.816 117.365 44.816 116.328V19.9774C44.8191 17.8889 45.6504 15.8868 47.1275 14.4102C48.6046 12.9337 50.6069 12.1032 52.6955 12.1008H68.8808C68.9134 12.1 68.9454 12.1104 68.9713 12.1303C68.9971 12.1503 69.0154 12.1786 69.0228 12.2104L69.0406 12.2666C69.4935 13.8976 70.5206 14.9513 71.6513 14.9513H72.344C73.4776 14.9513 74.5018 13.8976 74.9547 12.2666L74.9754 12.2044C74.9843 12.1745 75.0027 12.1482 75.0278 12.1296C75.0528 12.1109 75.0833 12.1008 75.1145 12.1008H91.2968C93.3872 12.1016 95.3918 12.9318 96.8708 14.409C98.3497 15.8863 99.1821 17.89 99.1852 19.9804V116.328C99.1852 118.42 98.355 120.426 96.8771 121.905C95.3991 123.385 93.3941 124.217 91.3028 124.22ZM52.7073 12.3968C50.695 12.3953 48.7644 13.193 47.3401 14.6145C45.9158 16.036 45.1143 17.9651 45.112 19.9774V116.328C45.1151 118.339 45.9155 120.267 47.3376 121.688C48.7598 123.11 50.6876 123.91 52.6984 123.912H91.3028C93.3136 123.91 95.2414 123.11 96.6636 121.688C98.0857 120.267 98.8861 118.339 98.8892 116.328V19.9804C98.8869 17.9693 98.0867 16.0413 96.6644 14.6196C95.2421 13.1978 93.3138 12.3984 91.3028 12.3968H75.2329C74.7356 14.1284 73.6079 15.2473 72.3499 15.2473H71.6632C70.4052 15.2473 69.2774 14.1284 68.7801 12.3968H52.7073Z" fill="#263238"/>
<path d="M72.5925 12.6307C72.592 12.4821 72.5474 12.3371 72.4644 12.2138C72.3814 12.0906 72.2638 11.9947 72.1264 11.9382C71.9889 11.8818 71.8379 11.8673 71.6922 11.8966C71.5466 11.926 71.4129 11.9978 71.308 12.1031C71.2032 12.2084 71.1319 12.3423 71.1031 12.4881C71.0743 12.6338 71.0894 12.7849 71.1464 12.9221C71.2034 13.0593 71.2997 13.1765 71.4233 13.259C71.5469 13.3415 71.6921 13.3855 71.8407 13.3855C71.9397 13.3855 72.0377 13.366 72.1291 13.328C72.2205 13.29 72.3035 13.2344 72.3734 13.1643C72.4432 13.0941 72.4986 13.0109 72.5362 12.9193C72.5738 12.8278 72.5929 12.7297 72.5925 12.6307Z" fill="white"/>
<path d="M49.7829 15.5168C49.7829 16.2776 48.9274 16.5528 48.9215 17.133V17.1685H49.7533V17.426H48.6462V17.21C48.6462 16.393 49.5017 16.2361 49.5017 15.5228C49.5017 15.2652 49.4129 15.1261 49.2057 15.1261C48.9985 15.1261 48.9097 15.2741 48.9097 15.4991V15.7211H48.6462V15.5168C48.6462 15.1291 48.8209 14.8745 49.2116 14.8745C49.6023 14.8745 49.7829 15.1291 49.7829 15.5168Z" fill="#263238"/>
<path d="M51.1652 15.5109V15.576C51.1777 15.683 51.1558 15.7913 51.1025 15.885C51.0493 15.9787 50.9675 16.0529 50.8692 16.097C50.9684 16.1407 51.0508 16.2154 51.1041 16.3098C51.1575 16.4042 51.1789 16.5133 51.1652 16.6209V16.8162C51.1652 17.201 50.9846 17.4526 50.5939 17.4526C50.2032 17.4526 50.0285 17.201 50.0285 16.8162V16.6416H50.292V16.834C50.292 17.059 50.3837 17.1981 50.588 17.1981C50.7922 17.1981 50.884 17.0649 50.884 16.8074V16.612C50.884 16.3634 50.7774 16.245 50.5643 16.239H50.4133V15.9845H50.5791C50.6226 15.9851 50.6657 15.9762 50.7053 15.9582C50.745 15.9403 50.7802 15.9139 50.8084 15.8808C50.8367 15.8478 50.8573 15.8089 50.8688 15.7669C50.8804 15.725 50.8825 15.681 50.8751 15.6382V15.5227C50.8751 15.2622 50.7833 15.129 50.5791 15.129C50.3749 15.129 50.2831 15.2711 50.2831 15.499V15.6263H50.0197V15.5109C50.0197 15.1261 50.2002 14.8774 50.585 14.8774C50.9698 14.8774 51.1652 15.1261 51.1652 15.5109Z" fill="#263238"/>
<path d="M51.7098 15.7031V16.0524H51.4375V15.7031H51.7098ZM51.7098 17.0795V17.4288H51.4375V17.0795H51.7098Z" fill="#263238"/>
<path d="M52.2811 15.931C52.3172 15.8644 52.3713 15.8094 52.4373 15.7722C52.5033 15.735 52.5784 15.7172 52.654 15.7208C52.9796 15.7208 53.1247 15.9606 53.1247 16.3128V16.8071C53.1247 17.1919 52.9412 17.4435 52.5534 17.4435C52.1656 17.4435 51.988 17.1919 51.988 16.8071V16.6354H52.2515V16.8249C52.2515 17.0498 52.3462 17.189 52.5475 17.189C52.7488 17.189 52.8435 17.0498 52.8435 16.8249V16.3424C52.8435 16.1145 52.7488 15.9783 52.5475 15.9783C52.51 15.975 52.4723 15.9796 52.4367 15.9916C52.4011 16.0036 52.3683 16.0229 52.3405 16.0482C52.3127 16.0735 52.2904 16.1043 52.2751 16.1386C52.2598 16.173 52.2517 16.2101 52.2515 16.2477V16.3069H51.991L52.0591 14.9009H53.0536V15.1554H52.3107L52.2811 15.931Z" fill="#263238"/>
<path d="M54.5278 15.5079V15.5553H54.2643V15.4902C54.2643 15.2622 54.1726 15.129 53.9683 15.129C53.7641 15.129 53.6723 15.2682 53.6723 15.5375V16.1029C53.7026 16.0202 53.7586 15.9494 53.8322 15.9009C53.9057 15.8524 53.9928 15.8288 54.0808 15.8335C54.4064 15.8335 54.5514 16.0674 54.5514 16.4255V16.8103C54.5514 17.1951 54.359 17.4467 53.9594 17.4467C53.5598 17.4467 53.3674 17.1951 53.3674 16.8103V15.5257C53.3674 15.1261 53.548 14.8774 53.9594 14.8774C54.3709 14.8774 54.5278 15.1231 54.5278 15.5079ZM53.6575 16.4551V16.834C53.6575 17.059 53.7522 17.1981 53.9535 17.1981C54.1548 17.1981 54.2495 17.059 54.2495 16.834V16.4551C54.2495 16.2272 54.1518 16.091 53.9535 16.091C53.7552 16.091 53.6575 16.2272 53.6575 16.4551Z" fill="#263238"/>
<path d="M82.1061 15.6201H81.3927V17.402H82.1061V15.6201Z" fill="#263238"/>
<path d="M83.0563 15.2622H82.3429V17.4023H83.0563V15.2622Z" fill="#263238"/>
<path d="M84.0063 15.0073H83.293V17.402H84.0063V15.0073Z" fill="#263238"/>
<path d="M84.9595 14.5664H84.2461V17.4021H84.9595V14.5664Z" fill="#263238"/>
<path d="M93.7832 17.3549H89.512V14.7383H93.7892L93.7832 17.3549ZM89.7428 17.1152H93.5464V14.9751H89.7428V17.1152Z" fill="#263238"/>
<path d="M92.3565 15.2354H90.098V16.8574H92.3565V15.2354Z" fill="#263238"/>
<path d="M94.174 15.7388H93.6353V16.3545H94.174V15.7388Z" fill="#263238"/>
<path d="M87.9372 16.7835C87.9083 16.7841 87.8796 16.7769 87.8544 16.7628C86.9841 16.2448 86.4069 16.7243 86.3744 16.745C86.3444 16.7746 86.304 16.7913 86.2619 16.7913C86.2197 16.7913 86.1793 16.7746 86.1494 16.745C86.1224 16.7128 86.1088 16.6715 86.1116 16.6295C86.1143 16.5876 86.1332 16.5484 86.1642 16.52C86.1938 16.4934 86.9308 15.8629 88.0083 16.5023C88.0264 16.513 88.0422 16.5271 88.0548 16.5439C88.0674 16.5607 88.0766 16.5798 88.0818 16.6001C88.087 16.6205 88.0882 16.6417 88.0852 16.6624C88.0822 16.6832 88.0752 16.7032 88.0645 16.7213C88.0497 16.7409 88.0304 16.7568 88.0083 16.7676C87.9862 16.7784 87.9618 16.7838 87.9372 16.7835Z" fill="#263238"/>
<path d="M88.2569 16.248C88.2284 16.2489 88.2004 16.2406 88.1769 16.2243C86.916 15.4755 86.0694 16.2007 86.0605 16.2066C86.0306 16.2362 85.9902 16.2528 85.9481 16.2528C85.9059 16.2528 85.8655 16.2362 85.8356 16.2066C85.8084 16.1739 85.7947 16.1321 85.7975 16.0897C85.8002 16.0472 85.8192 16.0075 85.8504 15.9787C85.8504 15.9787 86.8834 15.0907 88.3397 15.9787C88.3693 15.9968 88.3922 16.0242 88.4049 16.0565C88.4175 16.0889 88.4193 16.1245 88.4099 16.1579C88.4006 16.1914 88.3806 16.2208 88.353 16.2419C88.3253 16.263 88.2916 16.2745 88.2569 16.2747V16.248Z" fill="#263238"/>
<path d="M88.5499 15.6259C88.5217 15.6254 88.494 15.6172 88.47 15.6023C86.8746 14.6551 85.806 15.546 85.7705 15.5845C85.7556 15.5996 85.7379 15.6116 85.7183 15.6198C85.6988 15.628 85.6778 15.6323 85.6565 15.6323C85.6353 15.6323 85.6143 15.628 85.5948 15.6198C85.5752 15.6116 85.5575 15.5996 85.5426 15.5845C85.5155 15.5523 85.502 15.511 85.5047 15.4691C85.5075 15.4271 85.5264 15.3879 85.5574 15.3595C85.5722 15.3595 86.8302 14.2703 88.6328 15.3418C88.6688 15.3639 88.6947 15.3991 88.7052 15.4399C88.7157 15.4808 88.7099 15.5241 88.6891 15.5608C88.6729 15.5821 88.6517 15.5991 88.6275 15.6105C88.6033 15.6218 88.5767 15.6271 88.5499 15.6259Z" fill="#263238"/>
<path d="M87.4548 17.053C87.4548 17.1327 87.4311 17.2107 87.3867 17.2769C87.3424 17.3432 87.2793 17.3948 87.2056 17.4252C87.1318 17.4555 87.0508 17.4633 86.9726 17.4476C86.8944 17.4318 86.8227 17.3931 86.7665 17.3366C86.7103 17.28 86.6722 17.208 86.657 17.1297C86.6418 17.0514 86.6502 16.9704 86.6812 16.8968C86.7121 16.8233 86.7641 16.7607 86.8307 16.7168C86.8973 16.6729 86.9754 16.6498 87.0552 16.6504C87.1079 16.6504 87.1601 16.6608 87.2088 16.6811C87.2575 16.7014 87.3016 16.7311 87.3388 16.7685C87.3759 16.8059 87.4053 16.8503 87.4252 16.8991C87.4451 16.948 87.4552 17.0002 87.4548 17.053Z" fill="#263238"/>
<path d="M89.2959 117.335L90.7374 115.893C90.8159 115.809 90.8586 115.698 90.8565 115.583C90.8545 115.468 90.8079 115.358 90.7265 115.277C90.6452 115.195 90.5354 115.149 90.4204 115.147C90.3054 115.145 90.1941 115.187 90.1099 115.266L88.6684 116.707L87.2269 115.266C87.1437 115.182 87.0306 115.135 86.9127 115.135C86.7947 115.134 86.6815 115.181 86.5979 115.264C86.5143 115.348 86.4671 115.461 86.4669 115.578C86.4666 115.696 86.5132 115.81 86.5964 115.893L88.032 117.335L86.5875 118.776C86.5051 118.86 86.4589 118.973 86.4589 119.09C86.4589 119.208 86.5051 119.32 86.5875 119.404C86.6713 119.487 86.7846 119.534 86.9027 119.534C87.0209 119.534 87.1342 119.487 87.218 119.404L88.6595 117.962L90.101 119.404C90.1419 119.445 90.1908 119.478 90.2447 119.501C90.2986 119.523 90.3564 119.535 90.4148 119.534C90.4732 119.535 90.5312 119.524 90.5851 119.501C90.6391 119.479 90.6879 119.446 90.7285 119.404C90.7701 119.363 90.803 119.314 90.8255 119.26C90.848 119.206 90.8596 119.148 90.8596 119.09C90.8596 119.032 90.848 118.974 90.8255 118.92C90.803 118.866 90.7701 118.817 90.7285 118.776L89.2959 117.335Z" fill="#263238"/>
<path d="M53.9268 99.8352V96.9196L53.8232 96.961L53.6515 97.0113L53.4799 97.0587C53.4433 97.0673 53.4077 97.0792 53.3733 97.0942V96.6354L53.5272 96.5733L53.7255 96.4815C53.7932 96.4487 53.8585 96.4111 53.9209 96.369C53.9753 96.3318 54.025 96.288 54.0689 96.2388H54.5395V99.8352H53.9268Z" fill="#263238"/>
<path d="M70.5088 99.8352V99.403L71.3968 98.0296C71.4619 97.9289 71.5241 97.8342 71.5803 97.7336C71.6396 97.6411 71.6873 97.5417 71.7224 97.4376C71.7612 97.3324 71.7802 97.2211 71.7786 97.109C71.7831 97.0056 71.7585 96.9031 71.7076 96.813C71.683 96.7775 71.6496 96.749 71.6107 96.7303C71.5718 96.7116 71.5287 96.7034 71.4856 96.7065C71.4451 96.7038 71.4045 96.7096 71.3663 96.7233C71.3281 96.7371 71.2931 96.7585 71.2636 96.7864C71.2083 96.8438 71.1703 96.9156 71.1541 96.9936C71.1337 97.0909 71.1238 97.1901 71.1245 97.2896V97.4435H70.5325V97.2837C70.5282 97.0916 70.5614 96.9006 70.6302 96.7213C70.6865 96.5662 70.79 96.4327 70.9262 96.3394C71.0865 96.2449 71.2699 96.1968 71.456 96.2003C71.5825 96.1898 71.7098 96.2066 71.8293 96.2495C71.9488 96.2924 72.0577 96.3604 72.1486 96.4489C72.312 96.6414 72.3947 96.8896 72.3795 97.1416C72.3812 97.2783 72.3602 97.4143 72.3173 97.5441C72.2748 97.6643 72.2192 97.7794 72.1516 97.8875C72.0845 97.998 72.0105 98.1105 71.9296 98.2249L71.1925 99.3438H72.2848V99.8352H70.5088Z" fill="#263238"/>
<path d="M87.8306 99.8886C87.6412 99.8969 87.4531 99.8539 87.286 99.7643C87.1507 99.6793 87.0467 99.5525 86.99 99.4031C86.925 99.2301 86.8938 99.0462 86.8982 98.8615V98.7371H87.4902V98.8407C87.4913 98.9402 87.5022 99.0394 87.5228 99.1367C87.5356 99.2065 87.5697 99.2706 87.6205 99.3203C87.6791 99.3644 87.7514 99.3865 87.8247 99.3824C87.8616 99.3852 87.8986 99.3806 87.9337 99.3689C87.9688 99.3572 88.0011 99.3387 88.029 99.3143C88.08 99.2606 88.1131 99.1923 88.1237 99.119C88.1396 99.0211 88.1475 98.9221 88.1474 98.823C88.1537 98.6741 88.1242 98.5259 88.0615 98.3908C88.0261 98.3352 87.9763 98.2903 87.9174 98.2606C87.8586 98.2309 87.7928 98.2176 87.727 98.2221H87.6234V97.71H87.7359C87.7984 97.7157 87.8613 97.7069 87.9198 97.6843C87.9784 97.6617 88.0309 97.6259 88.0734 97.5798C88.1445 97.456 88.1764 97.3136 88.1651 97.1713C88.1702 97.0492 88.1469 96.9276 88.097 96.8161C88.0698 96.772 88.0305 96.7366 87.9839 96.7141C87.9372 96.6915 87.8851 96.6828 87.8336 96.6888C87.7813 96.6834 87.7286 96.6941 87.6826 96.7195C87.6365 96.7449 87.5994 96.7838 87.5761 96.8309C87.5297 96.9476 87.5066 97.0723 87.508 97.1979V97.3311H86.916V97.1595C86.9107 96.9799 86.9472 96.8016 87.0226 96.6385C87.092 96.4981 87.2038 96.3832 87.3422 96.3099C87.4987 96.23 87.6729 96.1913 87.8484 96.1975C88.0265 96.1912 88.2033 96.2288 88.3634 96.307C88.5001 96.3788 88.6108 96.4917 88.6802 96.6296C88.7569 96.7902 88.7944 96.9667 88.7897 97.1447C88.7901 97.3359 88.7323 97.5228 88.6239 97.6804C88.5474 97.8095 88.4246 97.9048 88.2806 97.9468C88.375 97.9765 88.4605 98.0294 88.5292 98.1007C88.6065 98.1853 88.6633 98.2866 88.695 98.3967C88.7396 98.5343 88.7606 98.6784 88.7571 98.823C88.7597 99.0163 88.7286 99.2086 88.6654 99.3913C88.611 99.5482 88.5071 99.6833 88.3694 99.7761C88.2045 99.8649 88.0173 99.904 87.8306 99.8886Z" fill="#263238"/>
<path d="M54.2258 106.211V105.323H53.1514V104.799L54.0867 102.609H54.803V104.835H55.176V105.323H54.809V106.211H54.2258ZM53.6664 104.841H54.2258V103.278L53.6664 104.841Z" fill="#263238"/>
<path d="M71.4559 106.264C71.2614 106.276 71.0677 106.23 70.8995 106.131C70.7667 106.042 70.6701 105.909 70.6271 105.755C70.5716 105.569 70.5457 105.375 70.5502 105.181H71.1422C71.1402 105.289 71.1482 105.397 71.1659 105.504C71.1751 105.584 71.2092 105.66 71.2635 105.72C71.2911 105.747 71.3246 105.769 71.3616 105.781C71.3985 105.794 71.4379 105.798 71.4767 105.794C71.5193 105.798 71.5622 105.791 71.6012 105.773C71.6402 105.756 71.6738 105.728 71.6987 105.693C71.7459 105.608 71.7733 105.512 71.7786 105.415C71.7786 105.294 71.7963 105.154 71.7963 104.995C71.7985 104.873 71.7906 104.751 71.7727 104.631C71.7635 104.543 71.7308 104.459 71.6779 104.388C71.6497 104.358 71.6151 104.334 71.5767 104.32C71.5383 104.305 71.497 104.299 71.4559 104.302C71.4165 104.301 71.3773 104.309 71.3407 104.323C71.3041 104.338 71.2708 104.36 71.2428 104.388C71.1831 104.453 71.1404 104.533 71.1185 104.619H70.5887L70.6242 102.615H72.2403V103.165H71.1422L71.1067 104.033C71.1577 103.972 71.2242 103.927 71.2991 103.902C71.3939 103.867 71.494 103.848 71.5951 103.846C71.7581 103.83 71.9218 103.872 72.0568 103.965C72.1816 104.064 72.2726 104.199 72.3173 104.352C72.3768 104.544 72.4057 104.744 72.4031 104.944C72.4047 105.12 72.3918 105.295 72.3647 105.468C72.345 105.614 72.2978 105.755 72.2255 105.883C72.1553 106 72.0525 106.095 71.9295 106.155C71.783 106.229 71.6204 106.267 71.4559 106.264Z" fill="#263238"/>
<path d="M87.8514 106.265C87.6586 106.272 87.4684 106.217 87.3097 106.108C87.1713 105.999 87.0683 105.852 87.0137 105.684C86.9498 105.494 86.9178 105.294 86.919 105.092V103.831C86.9163 103.618 86.9432 103.404 86.9989 103.198C87.0468 103.021 87.1506 102.864 87.2949 102.751C87.461 102.633 87.6627 102.575 87.8662 102.588C88.0438 102.58 88.2206 102.616 88.3813 102.692C88.5101 102.755 88.6142 102.859 88.6773 102.988C88.7433 103.143 88.7746 103.311 88.769 103.479C88.769 103.479 88.769 103.497 88.769 103.509C88.7705 103.519 88.7705 103.529 88.769 103.538H88.177C88.1835 103.415 88.1644 103.292 88.1208 103.177C88.0959 103.135 88.0589 103.101 88.0146 103.08C87.9703 103.059 87.9207 103.051 87.8721 103.059C87.8378 103.057 87.8036 103.063 87.7715 103.075C87.7395 103.087 87.7102 103.106 87.6856 103.13C87.6293 103.195 87.5933 103.275 87.5821 103.361C87.5554 103.504 87.5435 103.65 87.5465 103.796V104.225C87.593 104.154 87.6587 104.098 87.736 104.062C87.8589 104.013 87.9917 103.994 88.1234 104.007C88.2551 104.019 88.382 104.062 88.4937 104.133C88.6101 104.228 88.6948 104.356 88.7365 104.5C88.7862 104.676 88.8102 104.857 88.8075 105.039C88.8102 105.252 88.7803 105.463 88.7187 105.667C88.6668 105.839 88.5636 105.992 88.4227 106.105C88.2562 106.222 88.0545 106.278 87.8514 106.265ZM87.8514 105.788C87.8879 105.79 87.9245 105.785 87.9584 105.771C87.9922 105.757 88.0225 105.735 88.0468 105.708C88.0968 105.643 88.1294 105.567 88.1415 105.486C88.1605 105.377 88.1694 105.266 88.1681 105.155C88.1681 105.024 88.1681 104.906 88.1533 104.805C88.1472 104.718 88.1187 104.633 88.0705 104.56C88.0432 104.528 88.0089 104.504 87.9702 104.488C87.9316 104.473 87.8899 104.467 87.8485 104.471C87.8008 104.47 87.7534 104.479 87.7093 104.497C87.6682 104.516 87.6303 104.541 87.5969 104.571C87.5688 104.598 87.5439 104.628 87.5229 104.66V105.226C87.5231 105.319 87.533 105.412 87.5525 105.504C87.5679 105.581 87.6037 105.652 87.6561 105.711C87.682 105.737 87.7131 105.757 87.7473 105.769C87.7814 105.782 87.818 105.787 87.8544 105.785L87.8514 105.788Z" fill="#263238"/>
<path d="M53.5598 112.587L54.2879 109.461H53.3141V108.991H54.8799V109.367L54.1547 112.587H53.5598Z" fill="#263238"/>
<path d="M71.4293 112.634C71.2364 112.644 71.045 112.596 70.8788 112.498C70.7399 112.406 70.6358 112.271 70.5828 112.113C70.5203 111.929 70.4903 111.736 70.494 111.542C70.4923 111.443 70.5013 111.343 70.5206 111.246C70.5384 111.163 70.5673 111.082 70.6064 111.006C70.6415 110.937 70.6875 110.874 70.7426 110.82C70.7947 110.765 70.8557 110.718 70.9232 110.684C70.8124 110.606 70.7204 110.505 70.6538 110.388C70.5765 110.236 70.5379 110.067 70.5413 109.896C70.5376 109.723 70.5698 109.55 70.636 109.39C70.6956 109.251 70.7997 109.135 70.932 109.062C71.0847 108.98 71.2563 108.94 71.4293 108.946C71.6024 108.939 71.7742 108.979 71.9266 109.062C72.0582 109.136 72.1621 109.251 72.2226 109.39C72.2906 109.55 72.3219 109.723 72.3144 109.896C72.3189 110.067 72.2813 110.237 72.2048 110.391C72.1417 110.509 72.0514 110.61 71.9414 110.687C72.0097 110.721 72.0717 110.767 72.1249 110.823C72.1791 110.877 72.2241 110.94 72.2581 111.009C72.2973 111.085 72.3262 111.166 72.344 111.249C72.3643 111.346 72.3742 111.446 72.3736 111.545C72.3802 111.739 72.35 111.933 72.2848 112.116C72.2308 112.273 72.1268 112.409 71.9888 112.501C71.8196 112.6 71.6249 112.646 71.4293 112.634ZM71.4293 112.17C71.4702 112.173 71.5113 112.166 71.5494 112.151C71.5874 112.136 71.6213 112.112 71.6484 112.081C71.7012 112.016 71.7351 111.938 71.746 111.856C71.7605 111.764 71.7674 111.671 71.7668 111.578C71.7708 111.478 71.7639 111.379 71.746 111.282C71.7314 111.199 71.6969 111.12 71.6454 111.054C71.6185 111.023 71.585 111 71.5476 110.984C71.5102 110.969 71.4697 110.962 71.4293 110.965C71.3898 110.962 71.3502 110.969 71.3137 110.984C71.2772 111 71.2449 111.023 71.2192 111.054C71.1667 111.119 71.1312 111.196 71.1156 111.279C71.0972 111.376 71.0882 111.475 71.0889 111.575C71.0878 111.669 71.0958 111.763 71.1126 111.856C71.1245 111.939 71.1594 112.017 71.2132 112.081C71.2391 112.113 71.272 112.139 71.3094 112.157C71.3468 112.175 71.3878 112.184 71.4293 112.184V112.17ZM71.4293 110.45C71.4623 110.451 71.495 110.444 71.5252 110.431C71.5554 110.417 71.5823 110.398 71.604 110.373C71.6523 110.315 71.6841 110.246 71.6957 110.172C71.7147 110.074 71.7236 109.975 71.7224 109.876C71.7273 109.76 71.705 109.646 71.6572 109.541C71.6359 109.5 71.6029 109.466 71.5624 109.443C71.5219 109.421 71.4756 109.41 71.4293 109.414C71.3831 109.411 71.337 109.421 71.2965 109.444C71.2561 109.466 71.223 109.5 71.2014 109.541C71.1479 109.642 71.1224 109.755 71.1274 109.87C71.1258 109.969 71.1357 110.068 71.157 110.166C71.169 110.241 71.2018 110.312 71.2517 110.37C71.274 110.395 71.3013 110.415 71.3319 110.429C71.3625 110.443 71.3957 110.45 71.4293 110.45Z" fill="#263238"/>
<path d="M71.4293 118.883C71.2467 118.891 71.0656 118.846 70.9083 118.753C70.7702 118.663 70.6619 118.534 70.5975 118.383C70.5246 118.212 70.4893 118.027 70.4939 117.841V116.245C70.4897 116.057 70.5239 115.87 70.5946 115.695C70.6519 115.544 70.7554 115.414 70.8906 115.325C71.0535 115.238 71.2355 115.192 71.4204 115.192C71.6053 115.192 71.7873 115.238 71.9503 115.325C72.0844 115.415 72.1877 115.544 72.2463 115.695C72.3155 115.87 72.3497 116.057 72.3469 116.245V117.841C72.3506 118.027 72.3142 118.212 72.2403 118.383C72.1759 118.534 72.0677 118.663 71.9295 118.753C71.7783 118.842 71.6049 118.887 71.4293 118.883ZM71.4293 118.356C71.4674 118.359 71.5056 118.352 71.541 118.338C71.5764 118.324 71.608 118.301 71.6335 118.273C71.6795 118.212 71.71 118.141 71.7223 118.066C71.7375 117.989 71.7455 117.911 71.746 117.832V116.254C71.7449 116.172 71.7379 116.09 71.7253 116.009C71.7139 115.934 71.6844 115.863 71.6395 115.801C71.6133 115.772 71.5807 115.749 71.5442 115.735C71.5077 115.721 71.4684 115.715 71.4293 115.719C71.3907 115.715 71.3517 115.721 71.3157 115.735C71.2797 115.75 71.2476 115.772 71.2221 115.801C71.1761 115.862 71.1457 115.933 71.1333 116.009C71.1216 116.09 71.1157 116.172 71.1155 116.254V117.832C71.1146 117.911 71.1225 117.989 71.1392 118.066C71.1526 118.141 71.1841 118.212 71.231 118.273C71.2554 118.301 71.2861 118.323 71.3205 118.338C71.3548 118.352 71.3921 118.358 71.4293 118.356Z" fill="#263238"/>
<path d="M87.7893 112.634C87.6125 112.641 87.4367 112.604 87.2772 112.528C87.1461 112.461 87.0417 112.351 86.9812 112.217C86.9152 112.059 86.8839 111.89 86.8895 111.719V111.672H87.4815C87.4753 111.794 87.4954 111.916 87.5407 112.03C87.5667 112.073 87.6046 112.107 87.6499 112.129C87.6951 112.15 87.7456 112.158 87.7952 112.152C87.8296 112.154 87.8639 112.148 87.8961 112.136C87.9282 112.124 87.9574 112.105 87.9817 112.081C88.0351 112.012 88.0689 111.93 88.0794 111.844C88.1032 111.702 88.1141 111.558 88.1119 111.415V110.982C88.0674 111.053 88.0023 111.109 87.9255 111.142C87.832 111.183 87.7313 111.204 87.6295 111.204C87.4656 111.216 87.3031 111.168 87.1707 111.071C87.0536 110.971 86.9691 110.838 86.9279 110.689C86.8759 110.514 86.8509 110.331 86.8539 110.148C86.8495 109.937 86.8805 109.727 86.9457 109.526C86.9986 109.358 87.1019 109.21 87.2417 109.103C87.4032 108.995 87.595 108.941 87.7893 108.949C87.9814 108.939 88.1715 108.992 88.331 109.1C88.4691 109.202 88.5725 109.345 88.627 109.508C88.6919 109.699 88.7239 109.899 88.7217 110.1V111.373C88.7247 111.588 88.6968 111.802 88.6388 112.01C88.591 112.187 88.4872 112.345 88.3428 112.459C88.1838 112.579 87.9884 112.641 87.7893 112.634ZM87.7893 110.74C87.8607 110.744 87.9312 110.722 87.9876 110.678C88.0341 110.64 88.0741 110.595 88.106 110.544V109.985C88.107 109.89 88.098 109.796 88.0794 109.704C88.0661 109.629 88.0335 109.558 87.9847 109.499C87.9595 109.472 87.9287 109.451 87.8944 109.437C87.8601 109.424 87.8232 109.417 87.7863 109.42C87.7503 109.417 87.7142 109.423 87.6809 109.437C87.6475 109.451 87.6178 109.472 87.5939 109.499C87.5418 109.563 87.508 109.64 87.4963 109.721C87.4772 109.832 87.4683 109.944 87.4696 110.056C87.469 110.172 87.4749 110.287 87.4874 110.402C87.4907 110.49 87.5184 110.575 87.5673 110.648C87.5942 110.681 87.6288 110.706 87.6681 110.722C87.7074 110.738 87.7501 110.744 87.7923 110.74H87.7893Z" fill="#263238"/>
<path d="M67.3741 83.3064V79.71H68.8837V80.1717H68.0313V81.2048H68.7032V81.6636H68.0313V82.8476H68.8926V83.3004L67.3741 83.3064Z" fill="#00DCA6"/>
<path d="M69.2744 83.3064V79.71H69.7332L70.6064 81.7612V79.71H71.1599V83.3064H70.7248L69.8368 81.1574V83.3064H69.2744Z" fill="#00DCA6"/>
<path d="M72.048 83.3064V80.1924H71.4767V79.71H73.2704V80.1924H72.7051V83.3064H72.048Z" fill="#00DCA6"/>
<path d="M73.6049 83.3064V79.71H75.1145V80.1717H74.262V81.2048H74.9309V81.6636H74.262V82.8476H75.1233V83.3004L73.6049 83.3064Z" fill="#00DCA6"/>
<path d="M75.5052 83.3066V79.7102H76.3666C76.5752 79.7043 76.7833 79.7334 76.9823 79.796C77.1402 79.8471 77.2753 79.9518 77.3641 80.092C77.459 80.2659 77.504 80.4626 77.4944 80.6604C77.4954 80.7918 77.4815 80.9228 77.4529 81.0511C77.4309 81.1584 77.3854 81.2595 77.3197 81.3471C77.2496 81.4331 77.1576 81.4985 77.0533 81.5365L77.5565 83.3125H76.8994L76.4643 81.6638H76.1683V83.3125L75.5052 83.3066ZM76.1624 81.2346H76.3666C76.4681 81.2367 76.5689 81.2175 76.6626 81.1784C76.7358 81.1406 76.7926 81.0775 76.8225 81.0008C76.8586 80.9002 76.8757 80.7938 76.8728 80.687C76.8836 80.5445 76.8483 80.4024 76.7721 80.2815C76.7245 80.2302 76.6652 80.191 76.5993 80.1673C76.5333 80.1436 76.4627 80.1361 76.3932 80.1453H76.1535L76.1624 81.2346Z" fill="#00DCA6"/>
<path d="M58.503 31.4592L57.8755 28.3423H58.3787L58.7901 30.5475L59.1749 28.3423H59.69L59.0625 31.4592H58.503Z" fill="#263238"/>
<path d="M60.0096 31.4592V28.3423H61.318V28.7419H60.5809V29.6299H61.1729V30.0265H60.5809V31.0803H61.3268V31.471L60.0096 31.4592Z" fill="#263238"/>
<path d="M61.6554 31.4591V28.3422H62.4043C62.5849 28.3382 62.765 28.3642 62.9371 28.4192C63.074 28.4625 63.1913 28.5526 63.2686 28.6737C63.3503 28.8241 63.3893 28.9941 63.3811 29.1651C63.3824 29.2795 63.3705 29.3938 63.3456 29.5055C63.326 29.5977 63.2866 29.6845 63.2301 29.76C63.1693 29.8349 63.0896 29.8921 62.9992 29.9258L63.4344 31.4591H62.872L62.4931 30.0324H62.2326V31.4591H61.6554ZM62.2267 29.6831H62.4043C62.4946 29.6876 62.5847 29.6714 62.6677 29.6357C62.7324 29.6045 62.7823 29.5493 62.8068 29.4818C62.838 29.3945 62.8521 29.3021 62.8483 29.2095C62.8572 29.086 62.8272 28.9628 62.7624 28.8572C62.7206 28.8135 62.669 28.7803 62.612 28.7602C62.5549 28.7402 62.4939 28.7338 62.4339 28.7418H62.2267V29.6831Z" fill="#263238"/>
<path d="M63.8221 31.4592V28.3423H64.3845V31.4592H63.8221Z" fill="#263238"/>
<path d="M64.8669 31.4592V28.3423H66.1486V28.736H65.4353V29.6447H66.0273V30.0413H65.4353V31.4592H64.8669Z" fill="#263238"/>
<path d="M66.4595 31.4592V28.3423H67.016V31.4592H66.4595Z" fill="#263238"/>
<path d="M68.342 31.5036C68.1528 31.5134 67.965 31.466 67.8033 31.3674C67.6745 31.2791 67.5795 31.1497 67.5339 31.0004C67.4789 30.8272 67.4529 30.6462 67.4569 30.4646V29.3517C67.4523 29.1642 67.4783 28.9772 67.5339 28.7981C67.5774 28.6493 67.673 28.5211 67.8033 28.437C67.9666 28.343 68.1538 28.2988 68.342 28.3097C68.5174 28.3006 68.6921 28.3384 68.8481 28.4193C68.9683 28.4902 69.0595 28.6013 69.1057 28.733C69.1604 28.8837 69.1865 29.0434 69.1826 29.2037V29.4671H68.638V29.1977C68.6429 29.1179 68.6429 29.0378 68.638 28.958C68.6325 28.8943 68.6065 28.834 68.564 28.7863C68.5359 28.7627 68.5033 28.745 68.4682 28.7344C68.4331 28.7237 68.3962 28.7202 68.3597 28.7241C68.2825 28.7181 68.206 28.7425 68.1466 28.7922C68.0993 28.842 68.0684 28.905 68.0578 28.9728C68.0453 29.057 68.0393 29.1421 68.0401 29.2273V30.583C68.0382 30.6765 68.0471 30.7698 68.0667 30.8613C68.0799 30.9258 68.1143 30.9842 68.1644 31.027C68.2208 31.0682 68.29 31.0882 68.3597 31.0833C68.3962 31.0869 68.433 31.0827 68.4677 31.0709C68.5024 31.0592 68.5342 31.0402 68.561 31.0152C68.6048 30.9659 68.6308 30.9034 68.635 30.8376C68.6475 30.7543 68.6534 30.6702 68.6528 30.586V30.29H69.1974V30.5416C69.1999 30.7081 69.1759 30.8739 69.1264 31.0329C69.0795 31.1696 68.989 31.2871 68.8689 31.3674C68.7107 31.4643 68.5273 31.5118 68.342 31.5036Z" fill="#263238"/>
<path d="M69.4225 31.4592L70.0441 28.3423H70.6538L71.2754 31.4592H70.7486L70.6272 30.7399H70.0826L69.9582 31.4592H69.4225ZM70.1418 30.3788H70.568L70.3549 29.0704L70.1418 30.3788Z" fill="#263238"/>
<path d="M71.7519 31.4592V28.7626H71.2546V28.3423H72.8086V28.7626H72.3202V31.4592H71.7519Z" fill="#263238"/>
<path d="M73.1106 31.4592V28.3423H73.673V31.4592H73.1106Z" fill="#263238"/>
<path d="M75.008 31.5035C74.8241 31.5129 74.6414 31.4698 74.4811 31.3792C74.35 31.2958 74.251 31.1707 74.1999 31.024C74.1426 30.8513 74.1156 30.6701 74.12 30.4882V29.3042C74.1162 29.12 74.1452 28.9366 74.2058 28.7626C74.2543 28.6202 74.3492 28.4983 74.4752 28.4162C74.6366 28.3292 74.8189 28.2883 75.002 28.2978C75.1871 28.2879 75.3714 28.3289 75.5348 28.4162C75.664 28.4964 75.7629 28.6172 75.816 28.7596C75.8749 28.9349 75.902 29.1194 75.896 29.3042V30.4882C75.8993 30.6724 75.8702 30.8558 75.8101 31.0299C75.7571 31.1747 75.6584 31.2984 75.5289 31.3822C75.3698 31.4699 75.1895 31.5119 75.008 31.5035ZM75.008 31.0832C75.0834 31.0901 75.1586 31.0679 75.2181 31.021C75.2655 30.9761 75.2967 30.9168 75.3069 30.8523C75.3227 30.7754 75.3307 30.697 75.3306 30.6185V29.1829C75.331 29.1033 75.323 29.024 75.3069 28.9461C75.2955 28.8837 75.2644 28.8266 75.2181 28.7833C75.1589 28.735 75.0843 28.7098 75.008 28.7122C74.935 28.7073 74.8627 28.7283 74.8037 28.7714C74.7564 28.8144 74.7242 28.8715 74.712 28.9342C74.6944 29.0119 74.6865 29.0914 74.6883 29.171V30.6066C74.6873 30.6851 74.6943 30.7634 74.709 30.8405C74.72 30.9054 74.7523 30.9647 74.8008 31.0092C74.8582 31.0585 74.9324 31.0839 75.008 31.0802V31.0832Z" fill="#263238"/>
<path d="M76.3223 31.4592V28.3423H76.7189L77.4767 30.1183V28.3423H77.9443V31.4592H77.5684L76.8077 29.6003V31.4621L76.3223 31.4592Z" fill="#263238"/>
<path d="M80.1909 31.5035C80.0027 31.513 79.816 31.4655 79.6552 31.3674C79.5264 31.279 79.4315 31.1496 79.3858 31.0003C79.3298 30.8274 79.3027 30.6463 79.3059 30.4645V29.3516C79.3021 29.164 79.3291 28.977 79.3858 28.7981C79.4293 28.6492 79.5249 28.5211 79.6552 28.4369C79.8175 28.3432 80.0037 28.299 80.1909 28.3097C80.3664 28.2998 80.5413 28.3377 80.6971 28.4192C80.8183 28.4896 80.9106 28.6008 80.9576 28.7329C81.0123 28.8837 81.0384 29.0433 81.0345 29.2036V29.467H80.4899V29.1977C80.4898 29.1175 80.4849 29.0375 80.4751 28.9579C80.4696 28.8942 80.4436 28.834 80.4011 28.7862C80.373 28.7626 80.3404 28.745 80.3053 28.7343C80.2702 28.7236 80.2333 28.7201 80.1968 28.7241C80.1196 28.718 80.0431 28.7424 79.9837 28.7921C79.9353 28.8411 79.9041 28.9045 79.8949 28.9727C79.8824 29.057 79.8764 29.1421 79.8772 29.2273V30.5829C79.8753 30.6764 79.8842 30.7698 79.9038 30.8612C79.917 30.9258 79.9514 30.9841 80.0015 31.0269C80.0579 31.0682 80.1271 31.0881 80.1968 31.0832C80.2333 31.0868 80.2701 31.0826 80.3048 31.0709C80.3395 31.0591 80.3713 31.0401 80.3981 31.0151C80.4401 30.9647 80.4659 30.9028 80.4721 30.8375C80.4846 30.7542 80.4905 30.6701 80.4899 30.5859V30.2899H81.0345V30.5415C81.0377 30.7083 81.0127 30.8744 80.9605 31.0329C80.9158 31.1699 80.8261 31.2877 80.706 31.3674C80.5512 31.4619 80.3722 31.5092 80.1909 31.5035Z" fill="#263238"/>
<path d="M82.2777 31.5038C82.0938 31.5129 81.9112 31.4698 81.7508 31.3795C81.6197 31.2962 81.5207 31.171 81.4696 31.0243C81.4104 30.849 81.3823 30.6647 81.3867 30.4797V29.3046C81.3821 29.1205 81.4102 28.9371 81.4696 28.7629C81.5217 28.6199 81.6209 28.4988 81.7508 28.4195C81.9166 28.3416 82.0975 28.3013 82.2806 28.3013C82.4638 28.3013 82.6447 28.3416 82.8105 28.4195C82.9404 28.4988 83.0395 28.6199 83.0917 28.7629C83.1538 28.9365 83.1829 29.1202 83.1775 29.3046V30.4886C83.1823 30.6728 83.1532 30.8565 83.0917 31.0302C83.0398 31.1757 82.9409 31.2997 82.8105 31.3825C82.6479 31.4723 82.4632 31.5144 82.2777 31.5038ZM82.2777 31.0835C82.3531 31.0905 82.4283 31.0682 82.4878 31.0214C82.5343 30.9753 82.5662 30.9166 82.5796 30.8526C82.5944 30.7756 82.6013 30.6972 82.6003 30.6188V29.1832C82.6016 29.1038 82.5946 29.0244 82.5796 28.9464C82.5654 28.8844 82.5335 28.8278 82.4878 28.7836C82.4257 28.7447 82.3539 28.7241 82.2806 28.7241C82.2074 28.7241 82.1356 28.7447 82.0734 28.7836C82.0261 28.8265 81.9939 28.8836 81.9817 28.9464C81.9656 29.0243 81.9576 29.1037 81.958 29.1832V30.6188C81.9585 30.6972 81.9654 30.7754 81.9787 30.8526C81.9897 30.9175 82.022 30.9769 82.0705 31.0214C82.1297 31.0664 82.2036 31.0876 82.2777 31.0806V31.0835Z" fill="#263238"/>
<path d="M83.5919 31.4595V28.3426H84.326C84.5285 28.3339 84.7305 28.3693 84.918 28.4462C85.0517 28.514 85.1567 28.6274 85.214 28.7659C85.2786 28.941 85.3087 29.1269 85.3028 29.3135V30.4531C85.3083 30.6444 85.2782 30.8351 85.214 31.0155C85.1602 31.1598 85.0547 31.279 84.918 31.3499C84.7381 31.4317 84.5412 31.4692 84.3438 31.4595H83.5919ZM84.1602 31.0628H84.3349C84.4336 31.0724 84.5327 31.0484 84.6161 30.9947C84.6759 30.944 84.7132 30.8716 84.7197 30.7935C84.7326 30.6854 84.7385 30.5767 84.7374 30.4679V29.2839C84.7391 29.1845 84.7302 29.0853 84.7108 28.9879C84.705 28.9538 84.6922 28.9212 84.6734 28.8922C84.6546 28.8632 84.63 28.8384 84.6013 28.8191C84.5157 28.7777 84.4208 28.7593 84.326 28.7659H84.1602V31.0628Z" fill="#263238"/>
<path d="M85.741 31.4592V28.3423H87.0493V28.7419H86.3093V29.6299H86.9013V30.0265H86.3093V31.0803H87.0582V31.471L85.741 31.4592Z" fill="#263238"/>
<path d="M118.93 20.4031C118.891 20.4031 118.853 20.3875 118.825 20.3598C118.797 20.332 118.782 20.2944 118.782 20.2551V18.7751C118.782 18.7359 118.797 18.6982 118.825 18.6705C118.853 18.6427 118.891 18.6271 118.93 18.6271C118.969 18.6271 119.007 18.6427 119.035 18.6705C119.062 18.6982 119.078 18.7359 119.078 18.7751V20.2551C119.078 20.2944 119.062 20.332 119.035 20.3598C119.007 20.3875 118.969 20.4031 118.93 20.4031ZM118.93 17.4431C118.891 17.4431 118.853 17.4275 118.825 17.3998C118.797 17.372 118.782 17.3344 118.782 17.2951V15.8151C118.782 15.7759 118.797 15.7382 118.825 15.7105C118.853 15.6827 118.891 15.6671 118.93 15.6671C118.969 15.6671 119.007 15.6827 119.035 15.7105C119.062 15.7382 119.078 15.7759 119.078 15.8151V17.2951C119.078 17.3344 119.062 17.372 119.035 17.3998C119.007 17.4275 118.969 17.4431 118.93 17.4431ZM118.93 14.4831C118.891 14.4831 118.853 14.4675 118.825 14.4398C118.797 14.412 118.782 14.3744 118.782 14.3351V12.8551C118.782 12.8159 118.797 12.7782 118.825 12.7505C118.853 12.7227 118.891 12.7071 118.93 12.7071C118.969 12.7071 119.007 12.7227 119.035 12.7505C119.062 12.7782 119.078 12.8159 119.078 12.8551V14.3351C119.078 14.3744 119.062 14.412 119.035 14.4398C119.007 14.4675 118.969 14.4831 118.93 14.4831ZM118.93 11.5231C118.891 11.5231 118.853 11.5075 118.825 11.4798C118.797 11.452 118.782 11.4144 118.782 11.3751V9.89511C118.782 9.85586 118.797 9.81821 118.825 9.79046C118.853 9.7627 118.891 9.74711 118.93 9.74711C118.969 9.74711 119.007 9.7627 119.035 9.79046C119.062 9.81821 119.078 9.85586 119.078 9.89511V11.3751C119.078 11.4144 119.062 11.452 119.035 11.4798C119.007 11.5075 118.969 11.5231 118.93 11.5231ZM118.93 8.56311C118.891 8.56311 118.853 8.54752 118.825 8.51976C118.797 8.49201 118.782 8.45436 118.782 8.41511V6.93511C118.782 6.89586 118.797 6.85821 118.825 6.83046C118.853 6.8027 118.891 6.78711 118.93 6.78711C118.969 6.78711 119.007 6.8027 119.035 6.83046C119.062 6.85821 119.078 6.89586 119.078 6.93511V8.41511C119.078 8.45436 119.062 8.49201 119.035 8.51976C119.007 8.54752 118.969 8.56311 118.93 8.56311Z" fill="#263238"/>
<path d="M111.592 66.141H110.251C110.212 66.141 110.174 66.1254 110.146 66.0977C110.119 66.0699 110.103 66.0323 110.103 65.993C110.104 65.954 110.12 65.9168 110.147 65.8892C110.175 65.8616 110.212 65.8458 110.251 65.845H111.731C111.77 65.845 111.808 65.8606 111.836 65.8884C111.863 65.9161 111.879 65.9538 111.879 65.993C111.879 66.0323 111.863 66.0699 111.836 66.0977C111.808 66.1254 111.77 66.141 111.731 66.141H111.592ZM108.771 66.141H107.291C107.252 66.141 107.214 66.1254 107.186 66.0977C107.159 66.0699 107.143 66.0323 107.143 65.993C107.144 65.954 107.16 65.9168 107.187 65.8892C107.215 65.8616 107.252 65.8458 107.291 65.845H108.771C108.81 65.845 108.848 65.8606 108.876 65.8884C108.903 65.9161 108.919 65.9538 108.919 65.993C108.919 66.0132 108.915 66.0332 108.907 66.0518C108.899 66.0703 108.887 66.0871 108.873 66.1009C108.858 66.1148 108.841 66.1255 108.822 66.1324C108.803 66.1393 108.782 66.1422 108.762 66.141H108.771ZM105.811 66.141H104.331C104.292 66.141 104.254 66.1254 104.226 66.0977C104.199 66.0699 104.183 66.0323 104.183 65.993C104.184 65.954 104.2 65.9168 104.227 65.8892C104.255 65.8616 104.292 65.8458 104.331 65.845H105.811C105.85 65.845 105.888 65.8606 105.916 65.8884C105.943 65.9161 105.959 65.9538 105.959 65.993C105.959 66.0132 105.955 66.0332 105.947 66.0518C105.939 66.0703 105.927 66.0871 105.913 66.1009C105.898 66.1148 105.881 66.1255 105.862 66.1324C105.843 66.1393 105.822 66.1422 105.802 66.141H105.811ZM102.851 66.141H101.371C101.332 66.141 101.294 66.1254 101.266 66.0977C101.239 66.0699 101.223 66.0323 101.223 65.993C101.224 65.954 101.24 65.9168 101.267 65.8892C101.295 65.8616 101.332 65.8458 101.371 65.845H102.851C102.89 65.845 102.928 65.8606 102.956 65.8884C102.983 65.9161 102.999 65.9538 102.999 65.993C102.999 66.0132 102.995 66.0332 102.987 66.0518C102.979 66.0703 102.967 66.0871 102.953 66.1009C102.938 66.1148 102.921 66.1255 102.902 66.1324C102.883 66.1393 102.862 66.1422 102.842 66.141H102.851ZM99.8911 66.141H98.4111C98.3718 66.141 98.3342 66.1254 98.3064 66.0977C98.2787 66.0699 98.2631 66.0323 98.2631 65.993C98.2638 65.954 98.2797 65.9168 98.3073 65.8892C98.3349 65.8616 98.3721 65.8458 98.4111 65.845H99.8911C99.9303 65.845 99.968 65.8606 99.9957 65.8884C100.023 65.9161 100.039 65.9538 100.039 65.993C100.039 66.0132 100.035 66.0332 100.027 66.0518C100.019 66.0703 100.007 66.0871 99.9926 66.1009C99.978 66.1148 99.9606 66.1255 99.9416 66.1324C99.9226 66.1393 99.9024 66.1422 99.8822 66.141H99.8911ZM96.9311 66.141H96.1437C96.1045 66.141 96.0668 66.1254 96.0391 66.0977C96.0113 66.0699 95.9957 66.0323 95.9957 65.993C95.9965 65.954 96.0123 65.9168 96.0399 65.8892C96.0675 65.8616 96.1047 65.8458 96.1437 65.845H96.9311C96.9703 65.845 97.008 65.8606 97.0357 65.8884C97.0635 65.9161 97.0791 65.9538 97.0791 65.993C97.0791 66.0132 97.075 66.0332 97.067 66.0518C97.0591 66.0703 97.0473 66.0871 97.0326 66.1009C97.018 66.1148 97.0006 66.1255 96.9816 66.1324C96.9626 66.1393 96.9424 66.1422 96.9222 66.141H96.9311ZM113.211 65.9664C113.172 65.9707 113.132 65.9592 113.102 65.9345C113.071 65.9098 113.051 65.8739 113.047 65.8347C113.042 65.7954 113.054 65.756 113.079 65.7252C113.103 65.6944 113.139 65.6747 113.179 65.6704C113.651 65.5659 114.111 65.4132 114.552 65.2145C114.57 65.2062 114.589 65.2015 114.608 65.2007C114.628 65.1999 114.647 65.2031 114.665 65.21C114.684 65.2169 114.7 65.2274 114.714 65.2409C114.728 65.2544 114.74 65.2706 114.747 65.2885C114.763 65.3243 114.765 65.3649 114.751 65.4015C114.737 65.4381 114.709 65.4677 114.673 65.4839C114.214 65.6907 113.735 65.8504 113.244 65.9605L113.211 65.9664ZM115.893 64.7617C115.862 64.7617 115.832 64.7519 115.806 64.7337C115.781 64.7156 115.762 64.6899 115.752 64.6605C115.743 64.631 115.742 64.5992 115.752 64.5695C115.761 64.5399 115.779 64.5139 115.804 64.4953C116.196 64.2116 116.56 63.8904 116.89 63.5362C116.918 63.5133 116.953 63.5012 116.989 63.5021C117.024 63.503 117.059 63.5168 117.085 63.541C117.111 63.5652 117.128 63.5982 117.132 63.6338C117.136 63.6693 117.127 63.7051 117.106 63.7345C116.765 64.1048 116.387 64.44 115.979 64.735C115.948 64.7567 115.91 64.7662 115.872 64.7617H115.893ZM117.888 62.6038C117.861 62.6044 117.834 62.5972 117.811 62.5831C117.778 62.5623 117.754 62.5293 117.744 62.4912C117.735 62.453 117.741 62.4128 117.761 62.3789C118.012 61.9657 118.221 61.5284 118.385 61.0735C118.391 61.055 118.401 61.0379 118.414 61.0234C118.427 61.0088 118.443 60.997 118.461 60.9887C118.479 60.9804 118.498 60.9758 118.517 60.9751C118.537 60.9744 118.556 60.9777 118.575 60.9847C118.611 60.9981 118.642 61.0255 118.658 61.061C118.675 61.0966 118.677 61.1372 118.663 61.1741C118.493 61.6475 118.276 62.1027 118.015 62.5328C118 62.5579 117.978 62.5781 117.952 62.5907C117.926 62.6033 117.896 62.6079 117.867 62.6038H117.888ZM118.879 59.8362H118.856C118.817 59.8297 118.783 59.8084 118.76 59.7769C118.736 59.7455 118.726 59.7062 118.731 59.6675C118.779 59.3292 118.803 58.9879 118.803 58.6463V58.2141C118.803 58.1749 118.818 58.1372 118.846 58.1095C118.874 58.0817 118.911 58.0661 118.951 58.0661C118.99 58.0661 119.027 58.0817 119.055 58.1095C119.083 58.1372 119.099 58.1749 119.099 58.2141V58.6463C119.099 59.0018 119.074 59.3569 119.025 59.7089C119.019 59.7478 118.999 59.783 118.968 59.8068C118.937 59.8307 118.898 59.8413 118.859 59.8362H118.879ZM118.951 56.8762C118.912 56.8755 118.874 56.8596 118.847 56.832C118.819 56.8044 118.803 56.7672 118.803 56.7282V55.2482C118.803 55.209 118.818 55.1713 118.846 55.1436C118.874 55.1158 118.911 55.1002 118.951 55.1002C118.99 55.1002 119.027 55.1158 119.055 55.1436C119.083 55.1713 119.099 55.209 119.099 55.2482V56.7282C119.1 56.75 119.096 56.7718 119.088 56.792C119.079 56.8122 119.067 56.8302 119.05 56.845C119.034 56.8597 119.015 56.8706 118.994 56.8771C118.973 56.8835 118.951 56.8852 118.93 56.8821L118.951 56.8762ZM118.951 53.9162C118.912 53.9155 118.874 53.8996 118.847 53.872C118.819 53.8444 118.803 53.8072 118.803 53.7682V52.2882C118.803 52.249 118.818 52.2113 118.846 52.1836C118.874 52.1558 118.911 52.1402 118.951 52.1402C118.99 52.1402 119.027 52.1558 119.055 52.1836C119.083 52.2113 119.099 52.249 119.099 52.2882V53.7682C119.1 53.79 119.096 53.8118 119.088 53.832C119.079 53.8522 119.067 53.8702 119.05 53.885C119.034 53.8997 119.015 53.9106 118.994 53.9171C118.973 53.9235 118.951 53.9252 118.93 53.9221L118.951 53.9162ZM118.951 50.9562C118.912 50.9555 118.874 50.9396 118.847 50.912C118.819 50.8844 118.803 50.8472 118.803 50.8082V49.3282C118.803 49.289 118.818 49.2513 118.846 49.2236C118.874 49.1958 118.911 49.1802 118.951 49.1802C118.99 49.1802 119.027 49.1958 119.055 49.2236C119.083 49.2513 119.099 49.289 119.099 49.3282V50.8082C119.1 50.83 119.096 50.8518 119.088 50.872C119.079 50.8922 119.067 50.9102 119.05 50.925C119.034 50.9397 119.015 50.9506 118.994 50.9571C118.973 50.9635 118.951 50.9652 118.93 50.9621L118.951 50.9562ZM118.951 47.9962C118.912 47.9955 118.874 47.9796 118.847 47.952C118.819 47.9244 118.803 47.8872 118.803 47.8482V46.3682C118.803 46.329 118.818 46.2913 118.846 46.2636C118.874 46.2358 118.911 46.2202 118.951 46.2202C118.99 46.2202 119.027 46.2358 119.055 46.2636C119.083 46.2913 119.099 46.329 119.099 46.3682V47.8482C119.1 47.87 119.096 47.8918 119.088 47.912C119.079 47.9322 119.067 47.9502 119.05 47.965C119.034 47.9797 119.015 47.9906 118.994 47.9971C118.973 48.0035 118.951 48.0052 118.93 48.0021L118.951 47.9962Z" fill="#263238"/>
<path d="M96.6765 64.1489L93.4797 65.993L96.6765 67.84V64.1489Z" fill="#263238"/>
<path d="M135.312 28.0346L109.045 22.6284L105.175 41.4328L131.442 46.839L135.312 28.0346Z" fill="#263238"/>
<path d="M133.952 26.2841L107.685 20.8779L103.815 39.6823L130.082 45.0885L133.952 26.2841Z" fill="white"/>
<path d="M130.199 45.2583L103.641 39.7941L103.671 39.6491L107.572 20.7051L134.129 26.1663L134.1 26.3113L130.199 45.2583ZM103.991 39.5632L129.968 44.909L133.792 26.3972L107.8 21.0514L103.991 39.5632Z" fill="#263238"/>
<path d="M118.885 33.128C118.865 33.1278 118.845 33.1235 118.826 33.1154C118.807 33.1073 118.79 33.0955 118.776 33.0807L107.578 20.9743C107.562 20.9608 107.549 20.944 107.54 20.925C107.53 20.906 107.525 20.8852 107.525 20.8641C107.524 20.843 107.528 20.822 107.537 20.8025C107.545 20.7831 107.557 20.7656 107.573 20.7514C107.588 20.7371 107.607 20.7263 107.627 20.7197C107.647 20.7132 107.668 20.711 107.689 20.7133C107.71 20.7156 107.73 20.7224 107.748 20.7332C107.767 20.744 107.782 20.7586 107.794 20.776L118.921 32.8024L133.893 26.1454C133.928 26.1294 133.969 26.1282 134.006 26.142C134.042 26.1559 134.072 26.1837 134.088 26.2194C134.096 26.237 134.101 26.2561 134.102 26.2756C134.103 26.2951 134.099 26.3146 134.093 26.3328C134.086 26.351 134.075 26.3677 134.062 26.3818C134.048 26.3959 134.032 26.4071 134.014 26.4148L118.945 33.1162C118.926 33.1246 118.906 33.1287 118.885 33.128Z" fill="#263238"/>
</g>
<defs>
<clipPath id="clip0_325_6505">
<rect width="148" height="148" fill="white"/>
</clipPath>
</defs>
</svg>
