<svg width="34" height="34" viewBox="0 0 34 34" fill="none" xmlns="http://www.w3.org/2000/svg">
<path d="M17.0046 32.9998C8.1932 33.0436 0.980039 25.8047 1.00004 16.9695C1.01909 8.14759 8.23892 0.962051 17.0742 1.00015C25.8808 1.03825 33.0264 8.24475 33.0073 17.039C32.9892 25.8047 25.8446 33.0379 17.0046 32.9998ZM17.0103 3.38708C9.52477 3.33469 3.35172 9.51536 3.38982 17.0409C3.42507 24.6027 9.5162 30.7148 17.097 30.6615C18.8879 30.6575 20.6605 30.2999 22.3129 29.6092C23.9653 28.9186 25.465 27.9084 26.7261 26.6367C27.9871 25.3651 28.9847 23.8569 29.6615 22.1987C30.3383 20.5406 30.681 18.7652 30.6699 16.9743C30.648 9.30105 24.3654 3.31659 17.0103 3.38708Z" fill="#CCCBCB" stroke="white"/>
<path d="M10.9955 21.9691C10.9898 21.5252 11.1679 21.2309 11.4289 20.9661C12.6309 19.7498 13.8225 18.5221 15.035 17.3153C15.2845 17.0667 15.2636 16.9228 15.0245 16.6885C13.8463 15.5313 12.6852 14.3568 11.5156 13.191C11.2927 12.9681 11.1088 12.7262 11.0688 12.4014C11.0041 11.8699 11.2393 11.407 11.687 11.1832C12.1632 10.947 12.6881 11.027 13.0967 11.4299C14.1949 12.5157 15.2874 13.6111 16.3751 14.7035C17.0047 15.3322 17.0047 15.3322 17.6467 14.6902C18.7554 13.5815 19.8644 12.4731 20.9737 11.3651C21.3319 11.0089 21.7614 10.8765 22.2472 11.0346C22.4543 11.096 22.6397 11.2149 22.7819 11.3774C22.9242 11.5399 23.0175 11.7394 23.0511 11.9528C23.1368 12.4014 22.9635 12.7624 22.6472 13.0738C21.4376 14.2676 20.2311 15.463 19.0278 16.6599C18.6811 17.0038 18.6811 17.0057 19.0278 17.3476C20.2597 18.5687 21.4919 19.7895 22.7244 21.0099C22.8924 21.1628 23.0118 21.3616 23.0678 21.5817C23.1239 21.8019 23.1141 22.0336 23.0397 22.2482C22.9781 22.4555 22.8589 22.6411 22.696 22.7834C22.5332 22.9257 22.3333 23.0189 22.1196 23.0521C21.6433 23.1473 21.2671 22.934 20.9404 22.6063L17.8153 19.4812C17.6305 19.2964 17.4343 19.1221 17.2638 18.925C17.0733 18.7049 16.9352 18.7392 16.7437 18.9345C15.5131 20.1899 14.2749 21.4392 13.029 22.6825C12.3375 23.3731 11.267 23.0987 11.0288 22.1863C11.013 22.1147 11.0019 22.0421 10.9955 21.9691Z" fill="#CCCBCB" stroke="white"/>
</svg>
