<svg width="20" height="20" viewBox="0 0 20 20" fill="none" xmlns="http://www.w3.org/2000/svg">
<path d="M0 9.99817C0.00340725 4.46737 4.49416 -0.00794249 10.0349 1.05837e-05C15.5138 0.00625943 20.0057 4.51849 20 10.0101C19.9949 15.571 15.5058 20.0401 9.8992 19.9997C4.42772 19.9588 0.018172 15.5261 0 9.99817ZM5.93032 13.2601C5.93587 13.323 5.94689 13.3854 5.96326 13.4464C6.00552 13.5936 6.08566 13.7272 6.19567 13.8337C6.30569 13.9403 6.44172 14.0161 6.59019 14.0536C6.73866 14.0911 6.89436 14.0889 7.04174 14.0474C7.18912 14.0058 7.32303 13.9263 7.43008 13.8168C8.15355 13.1078 8.86453 12.3864 9.58119 11.67C10.0003 11.2502 10.0003 11.2502 10.4268 11.6768C11.1383 12.3881 11.8464 13.1021 12.5608 13.8105C12.9612 14.2082 13.4956 14.2082 13.8607 13.8168C14.2014 13.456 14.1815 12.9431 13.8039 12.5608C13.0259 11.7761 12.2451 10.9942 11.4614 10.2152C11.2496 10.0027 11.249 10.0021 11.4614 9.78911C12.2371 9.01274 13.0132 8.23637 13.7897 7.46C14.0072 7.24299 14.1333 6.98906 14.0901 6.67889C14.0733 6.51161 14.0074 6.35304 13.9007 6.22314C13.794 6.09325 13.6512 5.99783 13.4904 5.94891C13.1293 5.82507 12.8215 5.93414 12.5608 6.19432C11.7828 6.96918 11.0067 7.74555 10.2325 8.52344C10.002 8.75464 10.0014 8.75464 9.77824 8.53025L7.44995 6.20114C7.2387 5.99038 6.98998 5.8654 6.68673 5.90858C6.32783 5.95971 6.07229 6.15683 5.95303 6.50449C5.83037 6.86295 5.93089 7.17482 6.19154 7.4367C6.98146 8.23201 7.76967 9.02448 8.5681 9.80843C8.72086 9.95897 8.72427 10.0436 8.5681 10.1959C7.77932 10.9701 7.0036 11.7564 6.2205 12.5369C6.12182 12.6286 6.04463 12.741 5.99446 12.866C5.94429 12.991 5.92239 13.1256 5.93032 13.2601Z" fill="#9093A3"/>
</svg>
