<svg width="14" height="8" viewBox="0 0 14 8" fill="none" xmlns="http://www.w3.org/2000/svg">
<path d="M12.9577 1.89437L7.41824 7.5708C7.3523 7.63818 7.28058 7.68606 7.20311 7.71445C7.12563 7.74328 7.04246 7.75817 6.95357 7.75913C6.86469 7.76008 6.78121 7.74698 6.70314 7.71981C6.62507 7.69309 6.55234 7.64676 6.48496 7.58081L0.808355 2.02474C0.65114 1.87086 0.57128 1.67726 0.568777 1.44394C0.566273 1.21062 0.647456 1.00974 0.812324 0.841292C0.977193 0.672847 1.17073 0.587432 1.39294 0.585047C1.61515 0.582663 1.81048 0.663905 1.97892 0.828774L6.93122 5.67591L11.7784 0.723622C11.9322 0.566407 12.1229 0.486578 12.3505 0.484136C12.5785 0.48169 12.7767 0.562901 12.9451 0.72777C13.1136 0.892639 13.199 1.08618 13.2014 1.30839C13.2038 1.5306 13.1225 1.72592 12.9577 1.89437Z" fill="#9093A3"/>
</svg>
