<svg width="8" height="14" viewBox="0 0 8 14" fill="none" xmlns="http://www.w3.org/2000/svg">
<path d="M1.91667 0.933348L7.53333 6.53335C7.6 6.60002 7.64711 6.67224 7.67467 6.75001C7.70267 6.82779 7.71667 6.91113 7.71667 7.00001C7.71667 7.0889 7.70267 7.17224 7.67467 7.25001C7.64711 7.32779 7.6 7.40001 7.53333 7.46668L1.91667 13.0833C1.76111 13.2389 1.56667 13.3167 1.33333 13.3167C1.1 13.3167 0.900002 13.2333 0.733335 13.0667C0.566668 12.9 0.483334 12.7056 0.483334 12.4833C0.483334 12.2611 0.566668 12.0667 0.733334 11.9L5.63333 7.00001L0.733334 2.10002C0.577778 1.94446 0.5 1.7529 0.5 1.52535C0.5 1.29735 0.583333 1.10002 0.75 0.933348C0.916667 0.766681 1.11111 0.683348 1.33333 0.683348C1.55556 0.683348 1.75 0.766681 1.91667 0.933348Z" fill="#242A38"/>
</svg>
