<svg width="46" height="46" viewBox="0 0 46 46" fill="none" xmlns="http://www.w3.org/2000/svg">
<rect width="46" height="46" rx="23" fill="#00DCA6"/>
<g clip-path="url(#clip0_30_916)">
<path d="M17.6283 36.0007C17.1998 35.7329 16.7671 35.4719 16.3448 35.1953C16.193 35.0957 16.0744 35.0909 15.926 35.1953C15.6955 35.3587 15.452 35.5031 15.216 35.6583C14.9531 35.8319 14.6757 35.8814 14.3879 35.7302C14.1002 35.579 13.9995 35.3194 13.9995 35.0089C13.9995 33.2079 13.9995 31.4067 13.9995 29.6053C13.9995 29.2548 14.1671 29.0467 14.43 29.0541C14.6791 29.0609 14.844 29.2697 14.844 29.6005C14.8468 31.2329 14.8468 32.8651 14.844 34.4971C14.844 34.5649 14.8482 34.6327 14.844 34.7005C14.8337 34.8638 14.8827 34.9038 15.029 34.8035C15.2484 34.655 15.4747 34.5154 15.6983 34.3717C15.9978 34.1791 16.2938 34.1866 16.5912 34.3805C16.9493 34.6144 17.3143 34.8388 17.669 35.0774C17.7205 35.1213 17.7864 35.1456 17.8546 35.1456C17.9228 35.1456 17.9888 35.1213 18.0402 35.0774C18.3853 34.8415 18.7448 34.6218 19.0946 34.3907C19.4086 34.1825 19.7156 34.1812 20.033 34.3907C20.3622 34.6062 20.7058 34.8028 21.0239 35.0333C21.2178 35.1743 21.3627 35.1628 21.5504 35.0333C21.872 34.8062 22.2114 34.6049 22.5399 34.3879C22.847 34.1846 23.1478 34.1846 23.4549 34.3879C23.8089 34.6089 24.1677 34.8259 24.5127 35.0652C24.6659 35.1709 24.7811 35.1594 24.9267 35.0598C25.2662 34.8293 25.6167 34.6171 25.9617 34.3907C26.2778 34.1825 26.5828 34.1873 26.9002 34.3907C27.2362 34.6117 27.5805 34.8211 27.9117 35.0489C28.0753 35.1614 28.2036 35.1709 28.3734 35.0489C28.7011 34.8177 29.051 34.6157 29.3849 34.3913C29.6996 34.1798 30.006 34.1785 30.322 34.3839C30.5226 34.5145 30.7245 34.6437 30.9278 34.7716C30.9837 34.8069 31.041 34.8821 31.1059 34.8516C31.1901 34.8123 31.1376 34.716 31.1493 34.6442C31.1518 34.6106 31.1518 34.5768 31.1493 34.5432V11.2026C31.1493 10.7959 31.1493 10.7959 30.7491 10.7959C30.2323 10.7959 29.7141 10.7959 29.1993 10.7959C28.8709 10.7959 28.6832 10.6413 28.6901 10.3891C28.697 10.137 28.8771 10.0027 29.1938 10.0021C29.8742 10.0021 30.5538 9.99798 31.2342 10.0021C31.6807 10.0021 31.9705 10.2875 31.9932 10.7295C31.9981 10.8135 31.9932 10.8983 31.9932 10.983V34.832C31.9932 34.9167 31.9932 35.0015 31.9932 35.0855C31.9622 35.6956 31.377 36.0082 30.8464 35.6956C30.5704 35.5356 30.3089 35.3567 30.0474 35.1811C29.9149 35.0903 29.8072 35.0943 29.6727 35.1811C29.2414 35.4597 28.8033 35.7275 28.3672 35.9993H27.9028C27.477 35.7282 27.0492 35.4651 26.6283 35.1892C26.5725 35.1439 26.5023 35.1191 26.4299 35.1191C26.3575 35.1191 26.2873 35.1439 26.2315 35.1892C25.812 35.4665 25.3835 35.7316 24.9584 36.0027H24.4437C24.0207 35.7316 23.5949 35.4563 23.1747 35.1777C23.1252 35.1373 23.0628 35.1152 22.9984 35.1152C22.934 35.1152 22.8717 35.1373 22.8221 35.1777C22.4012 35.457 21.9755 35.7275 21.5518 36.0021H21.0349C20.6092 35.7309 20.1779 35.4665 19.7591 35.1886C19.6135 35.0909 19.5114 35.0964 19.3685 35.1886C18.9483 35.4685 18.5177 35.7309 18.0906 36.0021L17.6283 36.0007Z" fill="white"/>
<path d="M14.0007 19.1768V10.9842C14.0007 10.8995 14.0007 10.8147 14.0007 10.73C14.0234 10.2887 14.3132 10.0033 14.7597 10.0033C18.9077 10.0005 23.0556 10.0005 27.2036 10.0033C27.5086 10.0033 27.6997 10.1612 27.6997 10.4005C27.6997 10.6398 27.5045 10.7984 27.1774 10.7984H15.2517C14.8473 10.7984 14.8466 10.7984 14.8466 11.1991C14.8466 16.593 14.8466 21.9872 14.8466 27.3816C14.8519 27.508 14.8429 27.6347 14.8197 27.7592C14.8042 27.8573 14.7505 27.9457 14.6699 28.0058C14.5893 28.0659 14.4882 28.0929 14.3878 28.0812C14.1732 28.0683 14.0427 27.9293 14.0117 27.7232C13.9999 27.6224 13.9965 27.5209 14.0013 27.4195L14.0007 19.1768Z" fill="white"/>
<path d="M26.3232 16.3053C26.3232 16.449 26.3232 16.5927 26.3232 16.7364C26.3197 17.2788 26.0051 17.6062 25.4537 17.6326C25.2046 17.6442 24.9549 17.6326 24.7051 17.6326C24.3552 17.6326 24.3545 17.6326 24.3538 17.9892C24.3538 18.2346 24.3594 18.48 24.3538 18.7254C24.338 19.2285 23.9923 19.5627 23.483 19.5701C23.1642 19.5749 22.8461 19.5742 22.5273 19.5701C22.0029 19.5633 21.6614 19.2271 21.6489 18.7065C21.6427 18.4278 21.6413 18.1485 21.6489 17.8692C21.6545 17.6943 21.5799 17.6265 21.406 17.6313C21.13 17.639 20.854 17.639 20.578 17.6313C19.9991 17.6137 19.681 17.2849 19.6762 16.7154C19.6762 16.4029 19.672 16.0897 19.6762 15.7772C19.6747 15.6733 19.6941 15.5701 19.7334 15.4736C19.7726 15.3771 19.8309 15.2892 19.9048 15.2148C19.9787 15.1405 20.0669 15.0813 20.1642 15.0405C20.2614 14.9997 20.366 14.9782 20.4718 14.9773C20.7816 14.9671 21.0928 14.9678 21.4012 14.9773C21.5765 14.982 21.6524 14.923 21.6462 14.7441C21.6372 14.4729 21.6413 14.2017 21.6462 13.9306C21.6538 13.3753 21.9691 13.0405 22.5308 13.012C22.8489 12.9947 23.1677 12.9947 23.4858 13.012C24.0378 13.0452 24.3449 13.3787 24.3531 13.9211C24.3566 14.1827 24.3628 14.4458 24.3531 14.7074C24.3442 14.9013 24.4077 14.984 24.6167 14.9745C24.9086 14.961 25.2019 14.9664 25.4945 14.9745C25.983 14.9861 26.317 15.3176 26.3225 15.7941C26.3259 15.967 26.3232 16.1365 26.3232 16.3053ZM24.8051 16.8056C24.9338 16.7988 25.0628 16.7988 25.1915 16.8056C25.4317 16.8314 25.5483 16.7534 25.5158 16.4992C25.501 16.3733 25.501 16.2461 25.5158 16.1202C25.5421 15.8816 25.4558 15.7813 25.2012 15.7975C24.9351 15.8131 24.6683 15.8131 24.4021 15.7975C23.8418 15.7691 23.5189 15.4362 23.5092 14.8871C23.5046 14.6082 23.5046 14.3294 23.5092 14.0506C23.5092 13.9034 23.4575 13.8316 23.2988 13.837C23.1014 13.8431 22.9034 13.8431 22.7061 13.837C22.5501 13.8316 22.4901 13.8987 22.4928 14.0478C22.4977 14.3102 22.4928 14.5719 22.4928 14.8335C22.488 15.4559 22.1575 15.788 21.5268 15.8009C21.2508 15.8063 20.9748 15.8057 20.6988 15.8009C20.5463 15.8009 20.4814 15.864 20.4862 16.0151C20.4931 16.209 20.4938 16.4036 20.4862 16.5975C20.48 16.7541 20.5552 16.8063 20.7029 16.8008C20.9948 16.7954 21.2874 16.7975 21.5799 16.8008C22.132 16.8069 22.477 17.1351 22.4908 17.6862C22.4984 17.9574 22.4984 18.2285 22.4908 18.4997C22.4866 18.6685 22.5467 18.7526 22.7281 18.7451C22.9096 18.7376 23.0897 18.7383 23.2698 18.7451C23.4499 18.7519 23.5141 18.6732 23.5099 18.5024C23.5023 18.2238 23.501 17.9445 23.5099 17.6659C23.5293 17.1337 23.8736 16.8103 24.4173 16.8036C24.5464 16.8042 24.6754 16.8056 24.8044 16.8056H24.8051Z" fill="white"/>
<path d="M24.4684 31.1963C24.8855 30.8941 25.2702 30.5509 25.6166 30.172C25.6683 30.1158 25.7173 30.0568 25.7732 30.0039C25.9706 29.8175 26.1969 29.7944 26.3736 29.9361C26.5502 30.0778 26.5723 30.2751 26.4281 30.5035C26.2441 30.7895 26.0956 31.096 25.9858 31.4167C25.9707 31.4413 25.9638 31.4698 25.9657 31.4984C25.9677 31.527 25.9785 31.5543 25.9968 31.5767C26.2044 31.402 26.3795 31.1933 26.5143 30.9598C26.5674 30.873 26.6116 30.7794 26.673 30.6988C26.7202 30.6267 26.791 30.5727 26.8737 30.5457C26.9564 30.5186 27.0461 30.5203 27.1277 30.5503C27.2123 30.5714 27.2864 30.6212 27.3369 30.691C27.3875 30.7608 27.4112 30.8459 27.4038 30.9313C27.3979 31.0068 27.388 31.0819 27.3741 31.1564C27.3548 31.3035 27.2837 31.4682 27.4507 31.5719C27.6052 31.6682 27.7681 31.6275 27.9151 31.5407C28.0103 31.4851 28.0938 31.4099 28.1862 31.3482C28.3801 31.2194 28.6099 31.2363 28.75 31.3868C28.8223 31.467 28.8601 31.5717 28.8553 31.6787C28.8505 31.7857 28.8036 31.8867 28.7245 31.9604C28.3105 32.3671 27.5052 32.7406 26.8283 32.1434C26.7331 32.06 26.6703 32.0756 26.5902 32.1549C26.4665 32.2847 26.3214 32.3931 26.161 32.4756C25.718 32.6918 25.2398 32.502 25.1149 32.0363C25.0577 31.8227 24.9873 31.8926 24.8817 31.9787C24.5036 32.2864 24.1144 32.5802 23.7142 32.8599C23.53 32.9874 23.3416 33.0552 23.1463 32.9088C22.951 32.7623 22.9503 32.5508 23.0428 32.3366C23.6086 31.0205 24.2237 29.7269 24.8879 28.4555C25.0259 28.1884 25.2536 28.1003 25.4765 28.2156C25.6994 28.3308 25.7567 28.5545 25.6214 28.8257C25.2819 29.5185 24.9383 30.2093 24.5967 30.9015C24.5512 30.9977 24.5126 31.0994 24.4684 31.1963Z" fill="white"/>
<path d="M20.6801 25.9892H23.6714C23.7571 25.985 23.843 25.9886 23.9281 26.0001C24.0238 26.0108 24.1121 26.056 24.1758 26.1271C24.2396 26.1981 24.2742 26.2898 24.2731 26.3844C24.2818 26.4746 24.2563 26.5647 24.2016 26.6375C24.1468 26.7103 24.0666 26.7607 23.9764 26.779C23.8595 26.806 23.7397 26.8186 23.6196 26.8163C21.6416 26.8163 19.6646 26.8163 17.6889 26.8163C17.5775 26.8192 17.4661 26.808 17.3576 26.7831C17.263 26.7658 17.1785 26.7138 17.1213 26.6377C17.0642 26.5615 17.0387 26.4669 17.0499 26.3729C17.0609 26.1567 17.2003 26.0394 17.4066 26.0001C17.4916 25.9883 17.5776 25.9846 17.6633 25.9892H20.6801Z" fill="white"/>
<path d="M20.669 22.3665H17.6474C17.5615 22.3712 17.4754 22.368 17.39 22.357C17.2989 22.3464 17.2146 22.3042 17.1524 22.238C17.0901 22.1717 17.054 22.0858 17.0506 21.9957C17.0355 21.9018 17.0584 21.8059 17.1143 21.7284C17.1703 21.6509 17.2549 21.5979 17.35 21.5808C17.4843 21.5519 17.6218 21.5391 17.7592 21.5429C19.6871 21.5429 21.6153 21.5429 23.5437 21.5429C23.664 21.5417 23.7842 21.5501 23.9032 21.568C24.1419 21.6059 24.2855 21.7713 24.2758 21.9794C24.2661 22.1876 24.0964 22.3503 23.8452 22.3652C23.768 22.3699 23.69 22.3652 23.6127 22.3652L20.669 22.3665Z" fill="white"/>
<path d="M19.3181 24.5942H17.5433C17.3156 24.5942 17.1376 24.5128 17.0658 24.2857C17.0505 24.235 17.0459 24.1817 17.0524 24.1291C17.0588 24.0766 17.0762 24.0259 17.1033 23.9801C17.1305 23.9344 17.1669 23.8946 17.2103 23.8632C17.2537 23.8318 17.3031 23.8095 17.3557 23.7976C17.4642 23.7731 17.5755 23.7622 17.6869 23.7651C18.7863 23.7651 19.8857 23.7651 20.9852 23.7651C21.0452 23.7651 21.1059 23.7651 21.166 23.7692C21.451 23.7936 21.6248 23.9556 21.62 24.1895C21.6152 24.4234 21.4344 24.5901 21.1508 24.5928C20.5374 24.5989 19.9274 24.5942 19.3181 24.5942Z" fill="white"/>
<path d="M27.8585 24.5925C27.6349 24.5925 27.4113 24.6013 27.1885 24.5925C26.918 24.579 26.7538 24.4142 26.7551 24.1858C26.7565 23.9573 26.9187 23.779 27.1871 23.7743C27.6255 23.7621 28.0639 23.7621 28.5023 23.7743C28.7873 23.7824 28.9598 23.9614 28.9515 24.196C28.9432 24.4305 28.7638 24.5824 28.4781 24.5973H27.8571L27.8585 24.5925Z" fill="white"/>
<path d="M27.8585 25.9914C28.0731 25.9914 28.2884 25.9846 28.503 25.9914C28.7734 26.0015 28.9466 26.1595 28.9522 26.3852C28.9577 26.611 28.7976 26.792 28.5285 26.8055C28.0738 26.8225 27.6176 26.8225 27.1629 26.8055C27.1064 26.8071 27.0502 26.7967 26.9981 26.7753C26.9459 26.7538 26.899 26.7217 26.8605 26.681C26.822 26.6403 26.7928 26.5921 26.7747 26.5395C26.7566 26.4868 26.7502 26.431 26.7558 26.3757C26.7668 26.1574 26.9304 26.0056 27.1885 25.9941C27.4106 25.9812 27.6349 25.9914 27.8585 25.9914Z" fill="white"/>
<path d="M27.8315 22.3657C27.6169 22.3657 27.4016 22.3712 27.187 22.3657C26.9317 22.3576 26.7668 22.2078 26.7558 21.9875C26.7447 21.7671 26.8786 21.5916 27.1408 21.5665C27.6113 21.5228 28.0849 21.5228 28.5553 21.5665C28.8272 21.5916 28.9735 21.7746 28.9507 22.0051C28.93 22.22 28.7596 22.3624 28.5015 22.3685C28.2786 22.3698 28.0551 22.3657 27.8315 22.3657Z" fill="white"/>
</g>
<defs>
<clipPath id="clip0_30_916">
<rect width="18" height="26" fill="white" transform="translate(14 10)"/>
</clipPath>
</defs>
</svg>
