<svg width="52" height="41" viewBox="0 0 52 41" fill="none" xmlns="http://www.w3.org/2000/svg">
<path d="M0.72 39V30.6H3.612C4.064 30.6 4.472 30.712 4.836 30.936C5.204 31.16 5.496 31.462 5.712 31.842C5.932 32.222 6.042 32.642 6.042 33.102C6.042 33.57 5.93 33.994 5.706 34.374C5.486 34.75 5.192 35.05 4.824 35.274C4.456 35.498 4.052 35.61 3.612 35.61H1.968V39H0.72ZM1.968 34.362H3.486C3.726 34.362 3.944 34.302 4.14 34.182C4.34 34.062 4.498 33.902 4.614 33.702C4.734 33.502 4.794 33.276 4.794 33.024C4.794 32.772 4.734 32.546 4.614 32.346C4.498 32.142 4.34 31.982 4.14 31.866C3.944 31.746 3.726 31.686 3.486 31.686H1.968V34.362ZM11.3997 33H12.6477V39H11.3937L11.3457 38.13C11.1697 38.438 10.9317 38.686 10.6317 38.874C10.3317 39.062 9.97772 39.156 9.56972 39.156C9.12972 39.156 8.71572 39.074 8.32772 38.91C7.93972 38.742 7.59772 38.51 7.30172 38.214C7.00972 37.918 6.78172 37.578 6.61772 37.194C6.45372 36.806 6.37172 36.39 6.37172 35.946C6.37172 35.518 6.45172 35.116 6.61172 34.74C6.77172 34.36 6.99372 34.028 7.27772 33.744C7.56172 33.46 7.88972 33.238 8.26172 33.078C8.63772 32.914 9.03972 32.832 9.46772 32.832C9.90372 32.832 10.2877 32.932 10.6197 33.132C10.9557 33.328 11.2337 33.58 11.4537 33.888L11.3997 33ZM9.53972 37.95C9.89172 37.95 10.1997 37.864 10.4637 37.692C10.7277 37.516 10.9317 37.28 11.0757 36.984C11.2237 36.688 11.2977 36.36 11.2977 36C11.2977 35.636 11.2237 35.306 11.0757 35.01C10.9277 34.714 10.7217 34.48 10.4577 34.308C10.1977 34.132 9.89172 34.044 9.53972 34.044C9.19172 34.044 8.87372 34.132 8.58572 34.308C8.29772 34.484 8.06972 34.72 7.90172 35.016C7.73372 35.312 7.64972 35.64 7.64972 36C7.64972 36.364 7.73572 36.694 7.90772 36.99C8.08372 37.282 8.31372 37.516 8.59772 37.692C8.88572 37.864 9.19972 37.95 9.53972 37.95ZM15.645 39.114C15.329 39.094 15.021 39.03 14.721 38.922C14.421 38.814 14.157 38.668 13.929 38.484C13.705 38.296 13.537 38.076 13.425 37.824L14.487 37.368C14.539 37.476 14.629 37.582 14.757 37.686C14.889 37.79 15.043 37.876 15.219 37.944C15.395 38.008 15.579 38.04 15.771 38.04C15.959 38.04 16.133 38.014 16.293 37.962C16.457 37.906 16.591 37.822 16.695 37.71C16.799 37.598 16.851 37.464 16.851 37.308C16.851 37.132 16.791 36.996 16.671 36.9C16.555 36.8 16.409 36.724 16.233 36.672C16.057 36.62 15.881 36.57 15.705 36.522C15.313 36.434 14.953 36.314 14.625 36.162C14.301 36.006 14.043 35.808 13.851 35.568C13.659 35.324 13.563 35.026 13.563 34.674C13.563 34.29 13.667 33.958 13.875 33.678C14.083 33.394 14.355 33.176 14.691 33.024C15.031 32.872 15.393 32.796 15.777 32.796C16.257 32.796 16.697 32.898 17.097 33.102C17.497 33.306 17.803 33.586 18.015 33.942L17.025 34.53C16.965 34.41 16.875 34.302 16.755 34.206C16.635 34.11 16.499 34.034 16.347 33.978C16.195 33.918 16.037 33.884 15.873 33.876C15.669 33.868 15.479 33.892 15.303 33.948C15.131 34 14.993 34.084 14.889 34.2C14.785 34.316 14.733 34.464 14.733 34.644C14.733 34.82 14.795 34.952 14.919 35.04C15.043 35.124 15.199 35.192 15.387 35.244C15.579 35.296 15.775 35.354 15.975 35.418C16.331 35.53 16.665 35.668 16.977 35.832C17.289 35.992 17.541 36.19 17.733 36.426C17.925 36.662 18.017 36.95 18.009 37.29C18.009 37.666 17.895 37.996 17.667 38.28C17.443 38.564 17.151 38.78 16.791 38.928C16.431 39.076 16.049 39.138 15.645 39.114ZM20.8364 39.114C20.5204 39.094 20.2124 39.03 19.9124 38.922C19.6124 38.814 19.3484 38.668 19.1204 38.484C18.8964 38.296 18.7284 38.076 18.6164 37.824L19.6784 37.368C19.7304 37.476 19.8204 37.582 19.9484 37.686C20.0804 37.79 20.2344 37.876 20.4104 37.944C20.5864 38.008 20.7704 38.04 20.9624 38.04C21.1504 38.04 21.3244 38.014 21.4844 37.962C21.6484 37.906 21.7824 37.822 21.8864 37.71C21.9904 37.598 22.0424 37.464 22.0424 37.308C22.0424 37.132 21.9824 36.996 21.8624 36.9C21.7464 36.8 21.6004 36.724 21.4244 36.672C21.2484 36.62 21.0724 36.57 20.8964 36.522C20.5044 36.434 20.1444 36.314 19.8164 36.162C19.4924 36.006 19.2344 35.808 19.0424 35.568C18.8504 35.324 18.7544 35.026 18.7544 34.674C18.7544 34.29 18.8584 33.958 19.0664 33.678C19.2744 33.394 19.5464 33.176 19.8824 33.024C20.2224 32.872 20.5844 32.796 20.9684 32.796C21.4484 32.796 21.8884 32.898 22.2884 33.102C22.6884 33.306 22.9944 33.586 23.2064 33.942L22.2164 34.53C22.1564 34.41 22.0664 34.302 21.9464 34.206C21.8264 34.11 21.6904 34.034 21.5384 33.978C21.3864 33.918 21.2284 33.884 21.0644 33.876C20.8604 33.868 20.6704 33.892 20.4944 33.948C20.3224 34 20.1844 34.084 20.0804 34.2C19.9764 34.316 19.9244 34.464 19.9244 34.644C19.9244 34.82 19.9864 34.952 20.1104 35.04C20.2344 35.124 20.3904 35.192 20.5784 35.244C20.7704 35.296 20.9664 35.354 21.1664 35.418C21.5224 35.53 21.8564 35.668 22.1684 35.832C22.4804 35.992 22.7324 36.19 22.9244 36.426C23.1164 36.662 23.2084 36.95 23.2004 37.29C23.2004 37.666 23.0864 37.996 22.8584 38.28C22.6344 38.564 22.3424 38.78 21.9824 38.928C21.6224 39.076 21.2404 39.138 20.8364 39.114ZM26.9323 39H25.6903L23.6803 33H24.9043L26.3203 37.212L27.7243 33H28.9843L30.3883 37.212L31.7983 33H33.0223L31.0183 39H29.7643L28.3483 34.758L26.9323 39ZM36.36 39.156C35.808 39.156 35.304 39.014 34.848 38.73C34.396 38.446 34.034 38.066 33.762 37.59C33.494 37.11 33.36 36.58 33.36 36C33.36 35.56 33.438 35.15 33.594 34.77C33.75 34.386 33.964 34.05 34.236 33.762C34.512 33.47 34.832 33.242 35.196 33.078C35.56 32.914 35.948 32.832 36.36 32.832C36.912 32.832 37.414 32.974 37.866 33.258C38.322 33.542 38.684 33.924 38.952 34.404C39.224 34.884 39.36 35.416 39.36 36C39.36 36.436 39.282 36.844 39.126 37.224C38.97 37.604 38.754 37.94 38.478 38.232C38.206 38.52 37.888 38.746 37.524 38.91C37.164 39.074 36.776 39.156 36.36 39.156ZM36.36 37.908C36.692 37.908 36.99 37.82 37.254 37.644C37.518 37.468 37.726 37.236 37.878 36.948C38.034 36.656 38.112 36.34 38.112 36C38.112 35.652 38.032 35.332 37.872 35.04C37.716 34.748 37.506 34.516 37.242 34.344C36.978 34.168 36.684 34.08 36.36 34.08C36.032 34.08 35.734 34.168 35.466 34.344C35.202 34.52 34.992 34.754 34.836 35.046C34.684 35.338 34.608 35.656 34.608 36C34.608 36.356 34.688 36.678 34.848 36.966C35.008 37.254 35.22 37.484 35.484 37.656C35.752 37.824 36.044 37.908 36.36 37.908ZM40.3294 39V33H41.5774V33.636C41.7854 33.388 42.0414 33.192 42.3454 33.048C42.6494 32.904 42.9774 32.832 43.3294 32.832C43.5534 32.832 43.7754 32.862 43.9954 32.922L43.4974 34.182C43.3414 34.122 43.1854 34.092 43.0294 34.092C42.7654 34.092 42.5234 34.158 42.3034 34.29C42.0834 34.418 41.9074 34.592 41.7754 34.812C41.6434 35.032 41.5774 35.276 41.5774 35.544V39H40.3294ZM49.0815 30H50.3295V39H49.0815V38.118C48.8855 38.43 48.6295 38.682 48.3135 38.874C47.9975 39.062 47.6275 39.156 47.2035 39.156C46.7675 39.156 46.3595 39.074 45.9795 38.91C45.5995 38.746 45.2635 38.52 44.9715 38.232C44.6835 37.94 44.4575 37.604 44.2935 37.224C44.1295 36.844 44.0475 36.436 44.0475 36C44.0475 35.564 44.1295 35.156 44.2935 34.776C44.4575 34.392 44.6835 34.056 44.9715 33.768C45.2635 33.476 45.5995 33.248 45.9795 33.084C46.3595 32.92 46.7675 32.838 47.2035 32.838C47.6275 32.838 47.9975 32.934 48.3135 33.126C48.6295 33.314 48.8855 33.562 49.0815 33.87V30ZM47.2155 37.95C47.5675 37.95 47.8755 37.864 48.1395 37.692C48.4035 37.516 48.6075 37.28 48.7515 36.984C48.8995 36.688 48.9735 36.36 48.9735 36C48.9735 35.636 48.8995 35.306 48.7515 35.01C48.6035 34.714 48.3975 34.48 48.1335 34.308C47.8735 34.132 47.5675 34.044 47.2155 34.044C46.8675 34.044 46.5495 34.132 46.2615 34.308C45.9775 34.484 45.7495 34.72 45.5775 35.016C45.4095 35.312 45.3255 35.64 45.3255 36C45.3255 36.364 45.4115 36.694 45.5835 36.99C45.7595 37.282 45.9895 37.516 46.2735 37.692C46.5615 37.864 46.8755 37.95 47.2155 37.95Z" fill="#999999"/>
<path d="M25.9699 24C23.7648 24 21.5612 24 19.3591 24C17.9348 24 17.0007 23.0638 17 21.6349C17 18.4292 17 15.2236 17 12.0179C17 10.8964 17.7158 10.0087 18.7789 9.78162C19.2294 9.68534 19.2294 9.68534 19.2294 9.21724C19.2294 8.42047 19.2294 7.6237 19.2294 6.83157C19.238 3.53427 21.392 0.816614 24.6058 0.149318C25.4985 -0.0427785 26.4209 -0.049599 27.3163 0.129274C28.2117 0.308146 29.0612 0.668933 29.8125 1.18946C30.5638 1.70998 31.2012 2.37923 31.6853 3.15608C32.1695 3.93293 32.4902 4.80096 32.6278 5.7068C32.6917 6.12421 32.7227 6.54604 32.7204 6.96835C32.7158 7.80496 32.7204 8.64157 32.7204 9.47818C32.7204 9.61629 32.7204 9.73116 32.9129 9.75506C34.1751 9.91242 34.9505 10.7975 34.9511 12.079C34.9538 15.2762 34.9538 18.4735 34.9511 21.6708C34.9514 21.8364 34.9368 22.0018 34.9075 22.1648C34.8219 22.6766 34.5583 23.1414 34.1636 23.4767C33.7689 23.812 33.2686 23.996 32.7515 23.996C30.4903 24.002 28.2291 23.996 25.968 23.996L25.9699 24ZM25.9627 22.4423C28.1237 22.4423 30.2848 22.4423 32.4459 22.4423C32.561 22.4423 32.6774 22.4423 32.7918 22.4337C32.942 22.4278 33.0849 22.3672 33.1938 22.2632C33.3027 22.1592 33.37 22.0189 33.3833 21.8686C33.3925 21.7698 33.3958 21.6704 33.3932 21.5712C33.3932 18.4319 33.3932 15.2931 33.3932 12.1547C33.3932 12.0883 33.3932 12.0219 33.3899 11.9555C33.3727 11.6056 33.1868 11.3878 32.8514 11.3081C32.7056 11.28 32.5571 11.2693 32.4088 11.2762H19.5403C19.3837 11.269 19.2268 11.2815 19.0733 11.3134C18.9346 11.341 18.8091 11.4142 18.7164 11.5213C18.6237 11.6284 18.5691 11.7634 18.5613 11.905C18.5546 11.9873 18.556 12.0703 18.556 12.1527C18.556 15.292 18.556 18.4308 18.556 21.5692C18.5533 21.6684 18.5566 21.7678 18.5659 21.8666C18.5762 21.996 18.6271 22.1188 18.7113 22.2173C18.7954 22.3158 18.9085 22.3851 19.0343 22.4151C19.1726 22.4377 19.3129 22.4464 19.453 22.441C21.6229 22.4428 23.7928 22.4432 25.9627 22.4423ZM25.9746 9.71921H30.8244C31.1631 9.71921 31.1638 9.71921 31.1638 9.37128C31.1638 8.56854 31.1638 7.76579 31.1638 6.96238C31.1735 6.60698 31.1514 6.25143 31.0976 5.90001C30.5935 3.02898 28.0267 1.18579 25.1397 1.62733C23.9381 1.81414 22.8416 2.42272 22.0451 3.3448C21.2486 4.26687 20.8039 5.44264 20.79 6.66292C20.7834 7.56526 20.79 8.46761 20.79 9.36995C20.79 9.7192 20.79 9.71987 21.1519 9.72053L25.9746 9.71921Z" fill="#999999"/>
<path d="M25.2138 18.7984C25.2115 18.7655 25.2115 18.7324 25.2138 18.6995C25.2852 18.1816 25.1582 17.8363 24.6402 17.5395C23.8159 17.0708 23.5249 15.9878 23.8159 15.0403C23.9541 14.5942 24.2292 14.2032 24.6019 13.9233C24.9745 13.6433 25.4258 13.4886 25.8912 13.4813C27.0159 13.4673 27.9182 14.1346 28.167 15.1671C28.4316 16.2713 27.9506 17.2879 26.9067 17.7965C26.8498 17.8183 26.8019 17.8588 26.7707 17.9113C26.7395 17.9638 26.7268 18.0253 26.7347 18.086C26.7393 18.5508 26.74 19.0155 26.7347 19.4763C26.7294 19.959 26.4258 20.2678 25.9706 20.2658C25.5155 20.2638 25.2217 19.9544 25.2138 19.469C25.2111 19.2453 25.2145 19.0222 25.2138 18.7984ZM25.9845 15.0423C25.5518 15.0423 25.2568 15.3225 25.2568 15.7395C25.2525 15.835 25.2678 15.9303 25.302 16.0196C25.3361 16.1088 25.3883 16.19 25.4552 16.258C25.5221 16.3261 25.6023 16.3795 25.6908 16.4149C25.7793 16.4503 25.8741 16.467 25.9693 16.4639C26.3927 16.4639 26.693 16.1777 26.697 15.7587C26.701 15.3398 26.4112 15.0476 25.9845 15.0423Z" fill="#999999"/>
</svg>
