<svg width="37" height="44" viewBox="0 0 37 44" fill="none" xmlns="http://www.w3.org/2000/svg">
<path d="M0.72 41V32.6H1.968V39.752H5.586V41H0.72ZM9.00844 41.156C8.45644 41.156 7.95244 41.014 7.49644 40.73C7.04444 40.446 6.68244 40.066 6.41044 39.59C6.14244 39.11 6.00844 38.58 6.00844 38C6.00844 37.56 6.08644 37.15 6.24244 36.77C6.39844 36.386 6.61244 36.05 6.88444 35.762C7.16044 35.47 7.48044 35.242 7.84444 35.078C8.20844 34.914 8.59644 34.832 9.00844 34.832C9.56044 34.832 10.0624 34.974 10.5144 35.258C10.9704 35.542 11.3324 35.924 11.6004 36.404C11.8724 36.884 12.0084 37.416 12.0084 38C12.0084 38.436 11.9304 38.844 11.7744 39.224C11.6184 39.604 11.4024 39.94 11.1264 40.232C10.8544 40.52 10.5364 40.746 10.1724 40.91C9.81244 41.074 9.42444 41.156 9.00844 41.156ZM9.00844 39.908C9.34044 39.908 9.63844 39.82 9.90244 39.644C10.1664 39.468 10.3744 39.236 10.5264 38.948C10.6824 38.656 10.7604 38.34 10.7604 38C10.7604 37.652 10.6804 37.332 10.5204 37.04C10.3644 36.748 10.1544 36.516 9.89044 36.344C9.62644 36.168 9.33244 36.08 9.00844 36.08C8.68044 36.08 8.38244 36.168 8.11444 36.344C7.85044 36.52 7.64044 36.754 7.48444 37.046C7.33244 37.338 7.25644 37.656 7.25644 38C7.25644 38.356 7.33644 38.678 7.49644 38.966C7.65644 39.254 7.86844 39.484 8.13244 39.656C8.40044 39.824 8.69244 39.908 9.00844 39.908ZM17.5321 35H18.7801V41.156C18.7801 41.568 18.6921 41.948 18.5161 42.296C18.3441 42.644 18.1101 42.944 17.8141 43.196C17.5181 43.452 17.1781 43.65 16.7941 43.79C16.4141 43.93 16.0161 44 15.6001 44C15.1801 44 14.7761 43.91 14.3881 43.73C14.0001 43.554 13.6581 43.314 13.3621 43.01C13.0701 42.706 12.8521 42.362 12.7081 41.978L13.8541 41.462C13.9341 41.71 14.0621 41.93 14.2381 42.122C14.4181 42.314 14.6261 42.466 14.8621 42.578C15.1021 42.69 15.3481 42.746 15.6001 42.746C15.8481 42.746 16.0861 42.706 16.3141 42.626C16.5461 42.55 16.7521 42.442 16.9321 42.302C17.1161 42.162 17.2621 41.994 17.3701 41.798C17.4781 41.602 17.5321 41.388 17.5321 41.156V40.142C17.3361 40.446 17.0841 40.692 16.7761 40.88C16.4681 41.064 16.1101 41.156 15.7021 41.156C15.2781 41.156 14.8781 41.074 14.5021 40.91C14.1261 40.746 13.7961 40.52 13.5121 40.232C13.2281 39.94 13.0061 39.604 12.8461 39.224C12.6861 38.844 12.6061 38.436 12.6061 38C12.6061 37.564 12.6861 37.156 12.8461 36.776C13.0061 36.392 13.2281 36.056 13.5121 35.768C13.7961 35.476 14.1261 35.248 14.5021 35.084C14.8781 34.92 15.2781 34.838 15.7021 34.838C16.1101 34.838 16.4681 34.932 16.7761 35.12C17.0841 35.304 17.3361 35.55 17.5321 35.858V35ZM15.7141 39.95C16.0621 39.95 16.3661 39.862 16.6261 39.686C16.8861 39.506 17.0881 39.268 17.2321 38.972C17.3761 38.676 17.4481 38.352 17.4481 38C17.4481 37.64 17.3741 37.314 17.2261 37.022C17.0821 36.726 16.8801 36.49 16.6201 36.314C16.3601 36.134 16.0581 36.044 15.7141 36.044C15.3781 36.044 15.0701 36.132 14.7901 36.308C14.5141 36.484 14.2941 36.72 14.1301 37.016C13.9661 37.312 13.8841 37.64 13.8841 38C13.8841 38.36 13.9661 38.688 14.1301 38.984C14.2981 39.28 14.5201 39.516 14.7961 39.692C15.0761 39.864 15.3821 39.95 15.7141 39.95ZM22.7545 41.156C22.2025 41.156 21.6985 41.014 21.2425 40.73C20.7905 40.446 20.4285 40.066 20.1565 39.59C19.8885 39.11 19.7545 38.58 19.7545 38C19.7545 37.56 19.8325 37.15 19.9885 36.77C20.1445 36.386 20.3585 36.05 20.6305 35.762C20.9065 35.47 21.2265 35.242 21.5905 35.078C21.9545 34.914 22.3425 34.832 22.7545 34.832C23.3065 34.832 23.8085 34.974 24.2605 35.258C24.7165 35.542 25.0785 35.924 25.3465 36.404C25.6185 36.884 25.7545 37.416 25.7545 38C25.7545 38.436 25.6765 38.844 25.5205 39.224C25.3645 39.604 25.1485 39.94 24.8725 40.232C24.6005 40.52 24.2825 40.746 23.9185 40.91C23.5585 41.074 23.1705 41.156 22.7545 41.156ZM22.7545 39.908C23.0865 39.908 23.3845 39.82 23.6485 39.644C23.9125 39.468 24.1205 39.236 24.2725 38.948C24.4285 38.656 24.5065 38.34 24.5065 38C24.5065 37.652 24.4265 37.332 24.2665 37.04C24.1105 36.748 23.9005 36.516 23.6365 36.344C23.3725 36.168 23.0785 36.08 22.7545 36.08C22.4265 36.08 22.1285 36.168 21.8605 36.344C21.5965 36.52 21.3865 36.754 21.2305 37.046C21.0785 37.338 21.0025 37.656 21.0025 38C21.0025 38.356 21.0825 38.678 21.2425 38.966C21.4025 39.254 21.6145 39.484 21.8785 39.656C22.1465 39.824 22.4385 39.908 22.7545 39.908ZM26.3667 38.75V35H27.6147V38.444C27.6147 38.712 27.6807 38.956 27.8127 39.176C27.9447 39.396 28.1207 39.572 28.3407 39.704C28.5607 39.832 28.8027 39.896 29.0667 39.896C29.3347 39.896 29.5767 39.832 29.7927 39.704C30.0127 39.572 30.1867 39.396 30.3147 39.176C30.4467 38.956 30.5127 38.712 30.5127 38.444V35H31.7607L31.7667 41H30.5187L30.5127 40.352C30.3087 40.6 30.0547 40.796 29.7507 40.94C29.4467 41.084 29.1207 41.156 28.7727 41.156C28.3287 41.156 27.9247 41.048 27.5607 40.832C27.1967 40.616 26.9067 40.326 26.6907 39.962C26.4747 39.598 26.3667 39.194 26.3667 38.75ZM36.138 36.248H34.878L34.872 41H33.624L33.63 36.248H32.676V35H33.63L33.624 33.116H34.872L34.878 35H36.138V36.248Z" fill="#999999"/>
<path d="M18.0323 23.995C17.4501 23.9049 16.8636 23.8386 16.292 23.6822C13.0363 22.8013 10.6371 20.8581 9.11991 17.8358C8.35134 16.3049 7.94493 14.6639 8.00602 12.956C8.17182 8.30385 10.3653 4.94804 14.5547 2.92729C14.798 2.81114 15.0773 2.79674 15.3311 2.88726C15.585 2.97777 15.7926 3.1658 15.9083 3.40995C16.024 3.65411 16.0384 3.93441 15.9482 4.18918C15.858 4.44396 15.6707 4.65234 15.4274 4.76848C14.7243 5.10819 14.0417 5.47794 13.4327 5.97218C11.5459 7.50494 10.4021 9.47126 10.1148 11.8955C9.76818 14.8184 10.6514 17.3434 12.7271 19.4173C14.2175 20.9051 16.0395 21.7321 18.1395 21.933C22.3215 22.3359 26.1861 19.7314 27.4714 15.7581C28.7923 11.6747 26.9728 7.13332 23.1929 5.12258C22.9735 5.00559 22.7466 4.90362 22.5247 4.79038C21.993 4.51886 21.7767 3.94142 22.0198 3.42841C22.2654 2.90226 22.8525 2.68705 23.398 2.94293C26.8518 4.5589 29.0142 7.24093 29.7329 10.989C30.8885 17.0168 26.8961 22.7575 20.8654 23.858C20.545 23.9162 20.2208 23.9531 19.8986 24L18.0323 23.995Z" fill="#999999"/>
<path d="M17.9344 5.02064C17.9344 3.74938 17.9344 2.47729 17.9344 1.20436C17.9317 1.06404 17.9446 0.923857 17.9731 0.786449C18.0224 0.563698 18.1458 0.364439 18.323 0.221495C18.5002 0.0785505 18.7206 0.000446849 18.948 4.60354e-05C19.4404 -0.0043333 19.8462 0.304096 19.9547 0.77331C19.9811 0.887174 19.9949 1.00362 19.9958 1.12053C19.9958 3.70975 19.9958 6.29898 19.9958 8.88821C19.9958 9.47442 19.6885 9.8892 19.1905 10.0031C18.5247 10.1538 17.9438 9.66335 17.9369 8.92512C17.9276 8.02798 17.9369 7.13147 17.9369 6.23496L17.9344 5.02064Z" fill="#999999"/>
</svg>
