<svg width="54" height="54" viewBox="0 0 54 54" fill="none" xmlns="http://www.w3.org/2000/svg">
<rect width="54" height="54" rx="8" fill="#00DCA6"/>
<path d="M16.2844 39.6979C15.8116 39.4496 15.7048 39.1374 15.9135 38.644C16.4458 37.4071 16.9757 36.1652 17.5221 34.93C17.5636 34.8547 17.5801 34.7683 17.5694 34.6831C17.5587 34.5979 17.5213 34.5182 17.4625 34.4556C16.2405 32.8552 15.449 31.0611 15.1534 29.0692C14.5822 25.2218 15.6071 21.834 18.2117 18.9454C19.7848 17.2068 21.7196 16.0088 23.9956 15.4334C28.0399 14.4109 31.7208 15.19 34.9505 17.8509C37.0733 19.5995 38.422 21.8564 38.9916 24.5479C39.6771 27.7909 39.1464 30.845 37.3573 33.6393C35.4845 36.5643 32.8112 38.3683 29.4093 39.0571C27.4888 39.4531 25.4984 39.345 23.6321 38.7434C23.2347 38.6231 22.8132 38.6065 22.4076 38.6953C20.5928 39.0265 18.7756 39.3386 16.9591 39.659C16.9124 39.6696 16.8662 39.6826 16.8208 39.6979H16.2844ZM17.6413 38.1249C17.7291 38.1158 17.7754 38.1133 17.821 38.1059L22.1584 37.3475C22.7164 37.2498 23.2513 37.1546 23.8316 37.3607C25.3442 37.8989 26.9123 38.0231 28.506 37.8144C30.8018 37.518 32.8112 36.585 34.4753 34.9896C37.0832 32.4909 38.2009 29.4144 37.8101 25.8188C37.5766 23.5192 36.5659 21.368 34.9447 19.7204C32.5496 17.2449 29.6088 16.1603 26.1688 16.4302C24.8612 16.5298 23.5859 16.8851 22.4151 17.4759C19.8767 18.7542 18.0677 20.7139 17.0609 23.3781C16.1792 25.7128 16.1502 28.0815 16.9012 30.4584C17.3068 31.7491 17.9653 32.9461 18.8385 33.9795C19.1142 34.3066 19.1531 34.6352 18.9726 35.0244C18.6961 35.6213 18.4477 36.2315 18.1886 36.8367C18.0097 37.2539 17.8326 37.672 17.6413 38.1224V38.1249Z" fill="white"/>
<path d="M27.126 29.3896C25.8179 29.3896 24.5095 29.3896 23.2008 29.3896C22.762 29.3896 22.5004 29.2323 22.3903 28.9177C22.3566 28.8269 22.3429 28.73 22.3504 28.6335C22.3578 28.5369 22.3861 28.4432 22.4334 28.3587C22.4806 28.2742 22.5457 28.201 22.624 28.1441C22.7023 28.0873 22.7921 28.0481 22.887 28.0293C23.021 28.0038 23.1572 27.9918 23.2935 27.9937C25.8535 27.9937 28.4139 27.9937 30.9749 27.9937C31.1032 27.9938 31.2312 28.0052 31.3574 28.0277C31.5126 28.0561 31.653 28.1378 31.7543 28.2588C31.8556 28.3798 31.9114 28.5323 31.9121 28.6901C31.9128 28.8478 31.8583 29.0009 31.7581 29.1227C31.6578 29.2446 31.5182 29.3276 31.3632 29.3573C31.2371 29.3803 31.109 29.3914 30.9807 29.3904C29.6958 29.391 28.4109 29.3907 27.126 29.3896Z" fill="white"/>
<path d="M24.8076 24.6986C25.3764 24.6986 25.946 24.6986 26.5148 24.6986C26.966 24.6986 27.2814 24.9859 27.2823 25.3833C27.2831 25.7807 26.9668 26.0713 26.5181 26.073C25.38 26.0763 24.2416 26.0763 23.103 26.073C22.6592 26.073 22.338 25.7691 22.3446 25.3751C22.3512 24.981 22.6666 24.702 23.1005 24.6995C23.6701 24.6962 24.2389 24.6986 24.8076 24.6986Z" fill="white"/>
</svg>
