<svg width="34" height="34" viewBox="0 0 34 34" fill="none" xmlns="http://www.w3.org/2000/svg">
<path d="M15.7125 1H18.3341C18.8344 1.07255 19.3454 1.11945 19.8419 1.22264C26.139 2.53284 30.3016 6.25268 32.3498 12.3415C32.7119 13.4191 32.8701 14.5423 33.0015 15.668V18.2896C32.9183 18.865 32.857 19.4441 32.7482 20.0145C31.0971 28.6818 22.6481 34.3904 13.9757 32.7049C5.38035 31.0345 -0.350127 22.7731 1.28653 14.1714C2.51105 7.73423 6.41913 3.56161 12.6549 1.57223C13.6474 1.25579 14.6806 1.1232 15.7125 1ZM17.0258 30.4354C24.4899 30.3728 30.4624 24.4385 30.4661 16.9832C30.4979 15.1973 30.1735 13.423 29.5119 11.7639C28.8504 10.1047 27.8649 8.59404 26.613 7.32001C25.3611 6.04598 23.8679 5.03414 22.2206 4.34359C20.5734 3.65304 18.805 3.29762 17.0188 3.29808C15.2327 3.29853 13.4645 3.65486 11.8176 4.34626C10.1707 5.03765 8.67801 6.05025 7.42678 7.32492C6.17554 8.59959 5.19081 10.1108 4.53009 11.7702C3.86937 13.4297 3.54591 15.2042 3.57859 16.9901C3.5886 24.4773 9.59487 30.3816 17.027 30.4354H17.0258Z" fill="#00DCA6" stroke="white"/>
<path d="M14.8164 22.4328C14.6475 22.4377 14.4795 22.4068 14.3234 22.3422C14.1674 22.2775 14.0267 22.1805 13.9108 22.0576C12.5844 20.7368 11.2542 19.4203 9.94396 18.0839C9.82236 17.9652 9.72583 17.8233 9.6601 17.6666C9.59436 17.51 9.56076 17.3417 9.56129 17.1718C9.56181 17.0019 9.59645 16.8338 9.66315 16.6775C9.72985 16.5213 9.82726 16.38 9.94959 16.2621C10.4555 15.7649 11.2285 15.7649 11.7714 16.2959C12.7157 17.2189 13.6492 18.1531 14.5719 19.0982C14.7745 19.3046 14.8902 19.3002 15.0928 19.0982C17.4389 16.7393 19.7897 14.3849 22.1454 12.0351C22.4418 11.738 22.7601 11.5153 23.2048 11.521C23.7114 11.5279 24.0872 11.7517 24.3243 12.1864C24.5613 12.621 24.5363 13.0682 24.2692 13.4885C24.1878 13.6091 24.0934 13.7204 23.9878 13.8205C21.2778 16.5348 18.5654 19.2483 15.8508 21.9613C15.56 22.2515 15.2367 22.4572 14.8164 22.4328Z" fill="#00DCA6" stroke="white"/>
</svg>
