<svg width="24" height="24" viewBox="0 0 24 24" fill="none" xmlns="http://www.w3.org/2000/svg">
<path d="M11.2337 21.693C10.7559 21.6191 10.2745 21.5647 9.80535 21.4363C7.13337 20.7133 5.16431 19.1185 3.91913 16.638C3.28835 15.3816 2.9548 14.0348 3.00494 12.6331C3.14102 8.81505 4.94126 6.06088 8.37958 4.40242C8.57923 4.3071 8.80843 4.29528 9.01677 4.36957C9.2251 4.44386 9.3955 4.59817 9.49047 4.79855C9.58545 4.99894 9.59722 5.22898 9.5232 5.43808C9.44918 5.64718 9.29544 5.8182 9.09579 5.91352C8.51873 6.19233 7.95855 6.49578 7.45874 6.90141C5.91019 8.15937 4.97145 9.77316 4.73561 11.7628C4.45117 14.1617 5.17608 16.234 6.87963 17.9361C8.10281 19.1571 9.59816 19.8358 11.3217 20.0007C14.7538 20.3313 17.9256 18.1938 18.9805 14.9329C20.0645 11.5815 18.5712 7.85438 15.469 6.20414C15.289 6.10812 15.1027 6.02443 14.9206 5.93149C14.4842 5.70865 14.3067 5.23473 14.5062 4.8137C14.7078 4.38188 15.1897 4.20526 15.6373 4.41526C18.472 5.74151 20.2467 7.9427 20.8365 11.0188C21.785 15.9659 18.5083 20.6774 13.5588 21.5806C13.2958 21.6283 13.0298 21.6586 12.7653 21.6971L11.2337 21.693Z" fill="#242A38"/>
<path d="M11.1534 6.12051C11.1534 5.07717 11.1534 4.03315 11.1534 2.98844C11.1511 2.87328 11.1618 2.75822 11.1851 2.64545C11.2256 2.46264 11.3269 2.2991 11.4723 2.18178C11.6177 2.06447 11.7986 2.00037 11.9852 2.00004C12.3894 1.99644 12.7224 2.24958 12.8114 2.63467C12.8331 2.72812 12.8444 2.82369 12.8452 2.91963C12.8452 5.04465 12.8452 7.16967 12.8452 9.29469C12.8452 9.7758 12.593 10.1162 12.1842 10.2097C11.6379 10.3334 11.1611 9.93086 11.1554 9.32498C11.1478 8.58869 11.1554 7.85291 11.1554 7.11713L11.1534 6.12051Z" fill="#242A38"/>
</svg>
