<svg width="8" height="14" viewBox="0 0 8 14" fill="none" xmlns="http://www.w3.org/2000/svg">
<path d="M1.91655 0.933318L7.53322 6.53332C7.59989 6.59998 7.647 6.67221 7.67455 6.74998C7.70255 6.82776 7.71655 6.9111 7.71655 6.99998C7.71655 7.08887 7.70255 7.17221 7.67455 7.24998C7.647 7.32776 7.59989 7.39998 7.53322 7.46665L1.91655 13.0833C1.761 13.2389 1.56655 13.3167 1.33322 13.3167C1.09989 13.3167 0.899887 13.2333 0.73322 13.0667C0.566554 12.9 0.48322 12.7055 0.48322 12.4833C0.48322 12.2611 0.566553 12.0667 0.73322 11.9L5.63322 6.99998L0.733219 2.09998C0.577664 1.94443 0.499886 1.75287 0.499885 1.52532C0.499885 1.29732 0.583219 1.09998 0.749885 0.933318C0.916552 0.766651 1.111 0.683318 1.33322 0.683318C1.55544 0.683318 1.74989 0.766651 1.91655 0.933318Z" fill="#242A38"/>
</svg>
