<svg width="21" height="18" viewBox="0 0 21 18" fill="none" xmlns="http://www.w3.org/2000/svg">
<path fill-rule="evenodd" clip-rule="evenodd" d="M2.02955 16.1429C1.81392 16.2353 1.6599 16.119 1.60319 16.0651C1.54508 15.9916 1.42466 15.86 1.50727 15.643L3.77963 9.59283L17.3943 9.59384L2.02955 16.1429ZM1.50696 2.35663C1.42365 2.1375 1.54616 1.98838 1.60287 1.93448C1.65957 1.88057 1.81359 1.76436 2.02922 1.85678L17.3943 8.40649L3.7796 8.40688L1.50696 2.35663ZM20.8472 9.23408L20.85 9.22848C20.8563 9.21097 20.8633 9.19417 20.8689 9.17597C20.8738 9.15987 20.8787 9.14097 20.8822 9.12206C20.8829 9.11996 20.8836 9.11646 20.8836 9.11366C20.8871 9.09896 20.8899 9.08356 20.8906 9.06886C20.8906 9.06466 20.8913 9.05976 20.892 9.05486C20.8934 9.03665 20.8955 9.01915 20.8948 9.00025C20.8948 8.98065 20.8941 8.96174 20.892 8.94424C20.8913 8.94074 20.8913 8.93654 20.8906 8.93304C20.8899 8.91694 20.8871 8.90013 20.8829 8.88333C20.8829 8.88193 20.8829 8.88053 20.8822 8.87843C20.8436 8.69011 20.7155 8.52978 20.5349 8.45417L2.49546 0.764643C1.90317 0.511196 1.24649 0.630197 0.781638 1.07684C0.316087 1.52139 0.167682 2.17247 0.393826 2.77526L2.73298 8.99983L0.394113 15.2243C0.171499 15.8152 0.310831 16.453 0.7554 16.8975C0.764501 16.9066 0.772902 16.915 0.782003 16.9227C1.24617 17.3687 1.90356 17.4884 2.49584 17.235L20.5349 9.54631C20.5517 9.53931 20.5678 9.53161 20.5825 9.52251C20.5839 9.52251 20.5846 9.52181 20.5853 9.52111C20.6021 9.51271 20.6182 9.50221 20.6329 9.49311L20.6336 9.49241C20.7288 9.4294 20.8031 9.33839 20.8472 9.23408Z" fill="#242A38"/>
</svg>
