<svg width="21" height="18" viewBox="0 0 21 18" fill="none" xmlns="http://www.w3.org/2000/svg">
<path fill-rule="evenodd" clip-rule="evenodd" d="M2.02958 16.285C1.81395 16.3774 1.65993 16.2612 1.60322 16.2073C1.54511 16.1338 1.42469 16.0022 1.5073 15.7851L3.77966 9.73498L17.3943 9.736L2.02958 16.285ZM1.50699 2.49878C1.42368 2.27965 1.54619 2.13053 1.6029 2.07663C1.6596 2.02272 1.81362 1.90651 2.02925 1.99893L17.3943 8.54864L3.77963 8.54903L1.50699 2.49878ZM20.8472 9.37623L20.85 9.37063C20.8563 9.35313 20.8633 9.33633 20.8689 9.31812C20.8738 9.30202 20.8787 9.28312 20.8822 9.26422C20.8829 9.26212 20.8836 9.25862 20.8836 9.25582C20.8871 9.24111 20.8899 9.22571 20.8906 9.21101C20.8906 9.20681 20.8913 9.20191 20.892 9.19701C20.8934 9.17881 20.8955 9.1613 20.8948 9.1424C20.8948 9.1228 20.8941 9.10389 20.892 9.08639C20.8913 9.08289 20.8913 9.07869 20.8906 9.07519C20.8899 9.05909 20.8871 9.04229 20.8829 9.02548C20.8829 9.02408 20.8829 9.02268 20.8822 9.02058C20.8437 8.83226 20.7156 8.67193 20.5349 8.59632L2.49549 0.906794C1.9032 0.653347 1.24652 0.772348 0.781668 1.219C0.316117 1.66354 0.167712 2.31463 0.393856 2.91741L2.73301 9.14198L0.394143 15.3664C0.171528 15.9573 0.310861 16.5951 0.755429 17.0397C0.764531 17.0488 0.772932 17.0572 0.782033 17.0649C1.2462 17.5108 1.90359 17.6306 2.49587 17.3772L20.535 9.68846C20.5518 9.68146 20.5679 9.67376 20.5826 9.66466C20.584 9.66466 20.5847 9.66396 20.5854 9.66326C20.6022 9.65486 20.6183 9.64436 20.633 9.63526L20.6337 9.63456C20.7289 9.57155 20.8031 9.48054 20.8472 9.37623Z" fill="white"/>
</svg>
