<svg width="20" height="16" viewBox="0 0 20 16" fill="none" xmlns="http://www.w3.org/2000/svg">
<path d="M1.66671 1.39165L2.73337 0.333313L16.6667 14.2666L15.6084 15.3333L13.0417 12.7666C12.0834 13.0833 11.0667 13.25 10 13.25C5.83337 13.25 2.27504 10.6583 0.833374 6.99998C1.40837 5.53331 2.32504 4.24165 3.49171 3.21665L1.66671 1.39165ZM10 4.49998C10.6631 4.49998 11.299 4.76337 11.7678 5.23221C12.2366 5.70105 12.5 6.33694 12.5 6.99998C12.5005 7.28378 12.4526 7.56559 12.3584 7.83331L9.16671 4.64165C9.43443 4.54747 9.71624 4.49956 10 4.49998ZM10 0.74998C14.1667 0.74998 17.725 3.34165 19.1667 6.99998C18.4866 8.72765 17.3308 10.2272 15.8334 11.325L14.65 10.1333C15.8024 9.33613 16.7319 8.25753 17.35 6.99998C16.6763 5.62493 15.6304 4.46645 14.3311 3.65623C13.0318 2.84601 11.5313 2.41655 10 2.41665C9.09171 2.41665 8.20004 2.56665 7.36671 2.83331L6.08337 1.55831C7.28337 1.04165 8.60837 0.74998 10 0.74998ZM2.65004 6.99998C3.32374 8.37503 4.36968 9.5335 5.66898 10.3437C6.96828 11.1539 8.46882 11.5834 10 11.5833C10.575 11.5833 11.1417 11.525 11.6667 11.4083L9.76671 9.49998C9.18684 9.43783 8.64573 9.17904 8.23335 8.76667C7.82098 8.35429 7.56219 7.81318 7.50004 7.23331L4.66671 4.39165C3.84171 5.09998 3.15004 5.98331 2.65004 6.99998Z" fill="white"/>
</svg>
