<svg width="127" height="187" viewBox="0 0 127 187" fill="none" xmlns="http://www.w3.org/2000/svg">
<path fill-rule="evenodd" clip-rule="evenodd" d="M125.194 21.7006L63.993 0.114273C63.5441 -0.0380911 63.05 -0.0380911 62.6011 0.114273L1.39187 21.7006C0.564162 21.9971 0 22.7877 0 23.6648C0 45.5147 5.78572 70.766 15.8624 92.9412C24.0324 110.933 38.7376 134.944 62.3376 147.096C62.6464 147.249 62.9717 147.331 63.3012 147.331C63.6306 147.331 63.9559 147.249 64.2524 147.096C87.8648 134.944 102.558 110.933 110.74 92.9412C120.817 70.7619 126.59 45.5147 126.59 23.6648C126.586 22.7836 126.034 21.9971 125.194 21.7006Z" fill="#00DCA6"/>
<path fill-rule="evenodd" clip-rule="evenodd" d="M117.996 28.1822L63.2971 8.90198L8.59009 28.1822C9.34779 48.8338 15.1541 70.8278 23.6124 89.4244C32.1201 108.173 45.1246 127.338 63.3012 137.926C81.4655 127.338 94.47 108.169 102.99 89.4244C111.432 70.8278 117.246 48.8338 117.996 28.1822Z" fill="white"/>
<path fill-rule="evenodd" clip-rule="evenodd" d="M60.0438 94.6748C60.0438 89.0209 55.6088 84.4952 50.1443 84.0258V79.4096L47.8794 80.5379V84.1205C42.6043 84.7876 38.4575 89.2185 38.4575 94.6789V104.579C38.4575 105.233 39.0217 105.715 39.5858 105.715H43.3538C43.9262 105.715 44.4903 105.233 44.4903 104.579C44.4903 103.911 43.9262 103.442 43.3538 103.442H40.7224V94.6789C40.7224 89.968 44.5809 86.2001 49.2919 86.2001C54.011 86.2001 57.779 89.968 57.779 94.6789V103.442H55.4235C54.7564 103.442 54.2869 103.911 54.2869 104.579C54.2869 105.233 54.7564 105.715 55.4235 105.715H58.9032C59.5703 105.715 60.0397 105.233 60.0397 104.579V94.6748H60.0438Z" fill="white"/>
<path fill-rule="evenodd" clip-rule="evenodd" d="M77.8582 79.9696V88.642V88.745C75.9763 89.1156 74.5515 90.8122 74.5515 92.7888C74.5515 95.1525 76.4458 97.0262 78.6983 97.0262C81.062 97.0262 82.8533 95.1525 82.8533 92.7888C82.8533 90.9975 81.7167 89.4903 80.016 88.9303C80.119 88.8397 80.119 88.745 80.119 88.642V81.0032L77.8582 79.9696ZM76.7217 92.7888C76.7217 91.7552 77.57 90.9028 78.6983 90.9028C79.7442 90.9028 80.6831 91.7511 80.6831 92.7888C80.6831 93.9253 79.7401 94.7654 78.6983 94.7654C77.57 94.7654 76.7217 93.9253 76.7217 92.7888Z" fill="white"/>
<path fill-rule="evenodd" clip-rule="evenodd" d="M28.8423 89.2473C36.3493 105.456 47.6737 121.89 63.3796 131.032C79.0442 121.907 90.348 105.538 97.8551 89.3709C93.9759 85.9612 88.0543 84.6929 80.119 81.0032V88.642C80.119 88.745 80.119 88.8355 80.0161 88.9303C81.7168 89.4944 82.8533 90.9975 82.8533 92.7888C82.8533 95.1525 81.062 97.0262 78.6983 97.0262C76.4458 97.0262 74.5516 95.1525 74.5516 92.7888C74.5516 90.8122 75.9764 89.1115 77.8583 88.745C77.8583 88.745 77.8583 88.745 77.8583 88.642V79.9696C76.6311 79.3148 75.3093 78.6477 73.9874 77.9024V72.7097C77.1912 70.6424 78.3277 66.1168 79.3613 62.0606C79.8308 61.97 80.2096 61.2123 80.2096 60.2693V59.9934C80.5885 59.524 80.955 58.7663 81.2432 57.535C81.6221 56.3161 83.0345 52.5481 81.7127 51.5969C81.1485 51.321 80.6791 51.4116 80.3908 52.0787C80.3908 52.0787 82.0915 42.7392 80.7697 38.7777C77.85 28.5075 53.7188 25.6826 53.7188 32.0902C43.4487 35.0098 45.3347 44.7158 46.7471 52.1693C46.7471 52.1693 46.08 51.2263 45.1411 52.1693C44.0128 53.3882 45.2441 56.2131 45.6106 57.535C45.8988 58.6715 46.2777 59.3263 46.5536 59.8905C46.5536 59.9934 46.5536 60.084 46.5536 60.2693C46.5536 61.2123 46.9324 62.0606 47.4966 62.0606C48.7238 66.5863 49.4815 71.0213 52.8705 73.3768V77.9024C52.0222 78.4665 51.0792 78.936 50.1362 79.4096V84.0258C55.6049 84.4952 60.0358 89.0209 60.0358 94.6748V104.574C60.0358 105.229 59.5663 105.711 58.8992 105.711H55.4195C54.7524 105.711 54.283 105.229 54.283 104.574C54.283 103.907 54.7524 103.438 55.4195 103.438H57.775V94.6748C57.775 89.9639 54.0071 86.1959 49.2879 86.1959C44.577 86.1959 40.7185 89.9639 40.7185 94.6748V103.438H43.3498C43.9222 103.438 44.4864 103.907 44.4864 104.574C44.4864 105.229 43.9222 105.711 43.3498 105.711H39.5819C39.0177 105.711 38.4536 105.229 38.4536 104.574V94.6748C38.4536 89.2185 42.6004 84.7835 47.8755 84.1164V80.5338C39.2442 84.6311 32.8861 85.5824 28.8423 89.2473ZM78.6983 94.7654C77.57 94.7654 76.7217 93.9253 76.7217 92.7888C76.7217 91.7552 77.57 90.9028 78.6983 90.9028C79.7443 90.9028 80.6832 91.7511 80.6832 92.7888C80.6832 93.9253 79.7443 94.7654 78.6983 94.7654Z" fill="#00DCA6"/>
<path d="M9.81307 181.613L2.66431 165.096H6.81932L13.0498 179.727H10.6202L16.9454 165.096H20.7462L13.5975 181.613H9.81307Z" fill="#00DCA6"/>
<path d="M24.0406 167.147C23.3488 167.147 22.7888 166.949 22.3646 166.558C21.9405 166.167 21.7263 165.677 21.7263 165.096C21.7263 164.515 21.9405 164.025 22.3646 163.634C22.7888 163.243 23.3488 163.045 24.0406 163.045C24.716 163.045 25.2719 163.23 25.7043 163.601C26.1366 163.972 26.3549 164.445 26.3549 165.03C26.3549 165.644 26.1408 166.15 25.7166 166.554C25.2925 166.949 24.7324 167.147 24.0406 167.147ZM22.1999 181.613V168.917H25.8813V181.613H22.1999Z" fill="#00DCA6"/>
<path d="M34.6816 180.999C33.5327 180.999 32.4785 180.744 31.519 180.234C30.5595 179.723 29.7977 179.006 29.2294 178.088C28.6611 177.166 28.3811 176.095 28.3811 174.868C28.3811 173.624 28.6652 172.545 29.2294 171.623C29.7977 170.705 30.5595 169.992 31.519 169.486C32.4785 168.983 33.5327 168.732 34.6816 168.732C35.7811 168.732 36.7364 168.95 37.5477 169.383C38.3589 169.815 38.989 170.486 39.4461 171.401C39.9031 172.315 40.1296 173.468 40.1296 174.868C40.1296 176.268 39.9031 177.421 39.4461 178.327C38.989 179.233 38.3548 179.904 37.5477 180.345C36.7406 180.777 35.7852 180.999 34.6816 180.999ZM35.2746 186.378C34.0804 186.378 32.9273 186.233 31.8196 185.941C30.7119 185.649 29.7853 185.212 29.0482 184.631L30.5101 181.963C31.0619 182.42 31.7414 182.778 32.5526 183.038C33.3638 183.297 34.1833 183.429 35.0193 183.429C36.3082 183.429 37.2512 183.137 37.8524 182.556C38.4495 181.975 38.7501 181.111 38.7501 179.962V178.076L38.9848 174.868L38.9148 171.635V168.922H42.4069V179.488C42.4069 181.831 41.7933 183.565 40.5661 184.689C39.3307 185.817 37.5683 186.378 35.2746 186.378ZM35.4393 178.002C36.0858 178.002 36.6582 177.87 37.1606 177.602C37.663 177.334 38.0583 176.964 38.3424 176.494C38.6266 176.021 38.7666 175.481 38.7666 174.868C38.7666 174.238 38.6266 173.694 38.3424 173.229C38.0583 172.764 37.6671 172.405 37.1606 172.154C36.6582 171.903 36.0817 171.775 35.4393 171.775C34.8092 171.775 34.241 171.903 33.7303 172.154C33.2197 172.405 32.8161 172.764 32.5279 173.229C32.2355 173.694 32.0914 174.242 32.0914 174.868C32.0914 175.481 32.2355 176.025 32.5279 176.494C32.8203 176.968 33.2197 177.334 33.7303 177.602C34.2368 177.87 34.8092 178.002 35.4393 178.002Z" fill="#00DCA6"/>
<path d="M51.8369 181.802C50.4986 181.802 49.3085 181.518 48.2626 180.954C47.2166 180.386 46.393 179.612 45.7959 178.632C45.1988 177.647 44.8982 176.527 44.8982 175.267C44.8982 173.995 45.1988 172.867 45.7959 171.882C46.393 170.898 47.2166 170.128 48.2626 169.568C49.3085 169.008 50.4986 168.732 51.8369 168.732C53.1876 168.732 54.3942 169.012 55.4484 169.568C56.5026 170.128 57.3262 170.898 57.9274 171.882C58.5245 172.867 58.8251 173.995 58.8251 175.267C58.8251 176.54 58.5245 177.668 57.9274 178.64C57.3303 179.616 56.5026 180.386 55.4484 180.954C54.3942 181.518 53.1918 181.802 51.8369 181.802ZM51.8369 178.78C52.467 178.78 53.0188 178.644 53.5006 178.368C53.9824 178.092 54.3654 177.689 54.6577 177.153C54.9501 176.618 55.0942 175.988 55.0942 175.267C55.0942 174.53 54.9501 173.9 54.6577 173.381C54.3654 172.862 53.9824 172.463 53.5006 172.191C53.0188 171.915 52.4752 171.779 51.8617 171.779C51.2481 171.779 50.6963 171.915 50.2104 172.191C49.7244 172.467 49.3332 172.862 49.0409 173.381C48.7485 173.9 48.6044 174.53 48.6044 175.267C48.6044 175.992 48.7485 176.622 49.0409 177.153C49.3332 177.689 49.7203 178.092 50.2104 178.368C50.6963 178.644 51.2398 178.78 51.8369 178.78Z" fill="#00DCA6"/>
<path d="M66.6325 181.802C65.5619 181.802 64.6189 181.597 63.7994 181.189C62.9799 180.781 62.3416 180.151 61.8887 179.303C61.4316 178.455 61.2051 177.384 61.2051 176.095V168.922H64.8865V175.527C64.8865 176.597 65.1089 177.38 65.5577 177.874C66.0066 178.368 66.6367 178.615 67.4561 178.615C68.0244 178.615 68.5268 178.488 68.9674 178.236C69.408 177.985 69.7581 177.606 70.0175 177.104C70.2769 176.601 70.4087 175.971 70.4087 175.218V168.917H74.0654V181.613H70.5734V178.096L71.2117 179.134C70.7711 180.015 70.141 180.678 69.3257 181.127C68.5103 181.576 67.6085 181.802 66.6325 181.802Z" fill="#00DCA6"/>
<path d="M77.4875 181.613V168.917H81.0043V172.529L80.5101 171.466C80.889 170.569 81.4943 169.889 82.3261 169.424C83.158 168.959 84.1751 168.728 85.3693 168.728V172.15C85.2293 172.117 85.0893 172.096 84.9575 172.08C84.8216 172.064 84.694 172.055 84.5663 172.055C83.5286 172.055 82.7009 172.348 82.0873 172.928C81.4737 173.509 81.1649 174.407 81.1649 175.617V181.609H77.4875V181.613Z" fill="#00DCA6"/>
<path d="M87.9143 181.613V165.096H91.0769L98.1104 176.754H96.4344L103.324 165.096H106.511V181.613H102.949L102.904 170.593H103.612L98.0445 179.842H96.3438L90.7022 170.593H91.4805V181.613H87.9143Z" fill="#00DCA6"/>
<path d="M116.493 181.802C115.047 181.802 113.779 181.518 112.692 180.954C111.605 180.386 110.765 179.612 110.168 178.632C109.571 177.647 109.27 176.527 109.27 175.267C109.27 174.007 109.558 172.883 110.131 171.895C110.703 170.902 111.506 170.128 112.536 169.572C113.565 169.012 114.726 168.736 116.015 168.736C117.259 168.736 118.379 169.004 119.38 169.539C120.38 170.075 121.171 170.828 121.752 171.804C122.332 172.78 122.625 173.95 122.625 175.321C122.625 175.461 122.616 175.626 122.6 175.803C122.583 175.984 122.567 176.153 122.55 176.309H112.239V174.164H120.615L119.174 174.802C119.19 174.143 119.063 173.567 118.795 173.081C118.527 172.595 118.157 172.212 117.687 171.936C117.214 171.66 116.666 171.524 116.036 171.524C115.406 171.524 114.85 171.66 114.372 171.936C113.89 172.212 113.52 172.595 113.252 173.093C112.984 173.587 112.853 174.176 112.853 174.851V175.42C112.853 176.128 113.009 176.742 113.326 177.26C113.639 177.779 114.072 178.179 114.623 178.45C115.175 178.726 115.834 178.862 116.604 178.862C117.263 178.862 117.852 178.759 118.362 178.553C118.873 178.347 119.343 178.043 119.767 177.635L121.727 179.76C121.146 180.419 120.413 180.929 119.532 181.284C118.655 181.625 117.638 181.802 116.493 181.802Z" fill="#00DCA6"/>
</svg>
