<svg width="186" height="156" viewBox="0 0 186 156" fill="none" xmlns="http://www.w3.org/2000/svg">
<path d="M172.553 74.8785C171.178 58.4331 165.623 42.612 156.415 28.9166C141.664 7.10657 117.589 -4.67423 91.3978 1.74642C66.6317 7.82157 60.3454 34.6367 39.7111 46.5182C23.8754 55.6358 -0.118114 70.5117 3.72084 96.9045C4.9733 105.509 10.6694 111.78 18.4816 115.317C29.1635 120.14 44.1019 118.196 53.6273 125.217C64.6643 133.375 73.7818 144.891 97.7753 153.529C116.754 160.362 138.156 152.185 152.48 139.253C170.149 123.336 174.554 97.6675 172.553 74.8785Z" fill="#B2F4E4"/>
<path opacity="0.7" d="M172.553 74.8785C171.178 58.4331 165.623 42.612 156.415 28.9166C141.664 7.10657 117.589 -4.67423 91.3978 1.74642C66.6317 7.82157 60.3454 34.6367 39.7111 46.5182C23.8754 55.6358 -0.118114 70.5117 3.72084 96.9045C4.9733 105.509 10.6694 111.78 18.4816 115.317C29.1635 120.14 44.1019 118.196 53.6273 125.217C64.6643 133.375 73.7818 144.891 97.7753 153.529C116.754 160.362 138.156 152.185 152.48 139.253C170.149 123.336 174.554 97.6675 172.553 74.8785Z" fill="#B2F4E4"/>
<path d="M27.0955 74.499C27.0955 74.499 39.716 89.0871 39.7832 107.159C39.8504 125.231 27.345 139.939 27.345 139.939C27.345 139.939 14.7244 125.351 14.6573 107.284C14.5901 89.2166 27.0955 74.499 27.0955 74.499Z" fill="#00DCA6"/>
<path d="M54.8271 115.835C54.8271 115.835 54.9039 127.712 48.5264 135.26C42.149 142.808 31.731 143.173 31.731 143.173C31.731 143.173 31.6494 131.296 38.0317 123.748C44.414 116.2 54.8271 115.835 54.8271 115.835Z" fill="#00DCA6"/>
<path d="M0.0115231 114.735C0.0115231 114.735 -0.516333 126.598 5.57321 134.448C11.6628 142.299 22.0615 143.172 22.0615 143.172C22.0615 143.172 22.5846 131.31 16.495 123.459C10.4055 115.609 0.0115231 114.735 0.0115231 114.735Z" fill="#00DCA6"/>
<g opacity="0.5">
<path d="M27.0955 74.4985C27.0955 74.4985 39.716 89.0866 39.7832 107.158C39.8504 125.23 27.345 139.938 27.345 139.938C27.345 139.938 14.7244 125.35 14.6573 107.283C14.5901 89.2161 27.0955 74.4985 27.0955 74.4985Z" fill="white"/>
<path d="M54.8271 115.834C54.8271 115.834 54.9039 127.711 48.5264 135.26C42.149 142.808 31.731 143.173 31.731 143.173C31.731 143.173 31.6494 131.296 38.0317 123.748C44.414 116.199 54.8271 115.834 54.8271 115.834Z" fill="white"/>
<path d="M0.0115231 114.735C0.0115231 114.735 -0.516333 126.597 5.57321 134.448C11.6628 142.299 22.0615 143.172 22.0615 143.172C22.0615 143.172 22.5846 131.31 16.495 123.459C10.4055 115.608 0.0115231 114.735 0.0115231 114.735Z" fill="white"/>
</g>
<path d="M19.3503 123.244C19.3727 123.202 19.4046 123.167 19.4436 123.14C19.4825 123.113 19.5273 123.096 19.5742 123.09C19.6211 123.084 19.6688 123.089 19.7134 123.105C19.7579 123.121 19.7979 123.147 19.8302 123.182L26.462 129.108C26.5134 129.148 26.5754 129.172 26.6403 129.177C26.7052 129.182 26.7702 129.168 26.827 129.136C26.8839 129.104 26.9301 129.057 26.9599 128.999C26.9897 128.941 27.0018 128.875 26.9947 128.811L26.9227 115.139C26.922 115.036 26.8826 114.937 26.8123 114.861L16.855 104.827C16.7883 104.757 16.7488 104.665 16.7435 104.568C16.7383 104.471 16.7676 104.376 16.8262 104.299C16.8518 104.26 16.886 104.227 16.9261 104.204C16.9663 104.18 17.0114 104.167 17.0578 104.163C17.1043 104.16 17.1508 104.168 17.1939 104.185C17.237 104.203 17.2754 104.23 17.3061 104.265L26.39 113.421C26.4383 113.468 26.5 113.499 26.5666 113.509C26.6332 113.519 26.7013 113.508 26.7612 113.477C26.8211 113.446 26.8698 113.397 26.9005 113.337C26.9312 113.278 26.9423 113.209 26.9323 113.143L26.8747 98.099C26.876 97.9953 26.8363 97.8953 26.7643 97.8207L20.1565 91.3232C20.0891 91.2536 20.0487 91.1622 20.0426 91.0655C20.0364 90.9688 20.0649 90.873 20.1229 90.7954C20.1481 90.7561 20.182 90.7233 20.2219 90.6993C20.2619 90.6753 20.3069 90.6609 20.3533 90.6572C20.3998 90.6535 20.4465 90.6605 20.4898 90.6779C20.533 90.6952 20.5717 90.7223 20.6028 90.757L26.3084 96.4243C26.5196 96.6354 26.8507 96.4627 26.8507 96.1411L26.7547 74.8733C26.7494 74.7807 26.7806 74.6896 26.8416 74.6197C26.9026 74.5497 26.9885 74.5064 27.081 74.499C27.1271 74.5015 27.1721 74.513 27.2137 74.5329C27.2553 74.5528 27.2925 74.5807 27.3233 74.6151C27.354 74.6494 27.3777 74.6894 27.393 74.7329C27.4082 74.7764 27.4147 74.8225 27.4121 74.8685L27.5321 106.358C27.5239 106.431 27.5408 106.505 27.58 106.567C27.6192 106.63 27.6784 106.677 27.748 106.702C27.8176 106.726 27.8935 106.726 27.9632 106.702C28.0329 106.678 28.0924 106.631 28.1319 106.569L35.5219 94.2505C35.5432 94.2117 35.5727 94.178 35.6082 94.1516C35.6437 94.1253 35.6845 94.1069 35.7278 94.0978C35.7711 94.0887 35.8159 94.089 35.859 94.0988C35.9022 94.1086 35.9427 94.1276 35.9778 94.1545C36.051 94.2168 36.0997 94.303 36.1156 94.3978C36.1314 94.4927 36.1132 94.59 36.0642 94.6727L27.5945 108.786L27.5417 108.743L27.5897 121.646C27.5814 121.713 27.5938 121.78 27.6253 121.84C27.6568 121.899 27.7057 121.947 27.7655 121.977C27.8253 122.008 27.8931 122.019 27.9595 122.01C28.0259 122 28.0878 121.97 28.1367 121.925L37.1487 112.692C37.1785 112.656 37.2165 112.627 37.2594 112.608C37.3024 112.59 37.3492 112.581 37.3959 112.584C37.4427 112.587 37.4882 112.601 37.5286 112.625C37.569 112.648 37.6033 112.681 37.6286 112.721C37.6872 112.798 37.7165 112.893 37.7112 112.99C37.706 113.087 37.6665 113.178 37.5998 113.248L27.6137 123.484L27.6761 139.569C27.6793 139.615 27.6735 139.662 27.6588 139.705C27.6442 139.749 27.621 139.79 27.5907 139.824C27.5604 139.859 27.5235 139.888 27.4821 139.908C27.4408 139.928 27.3958 139.941 27.3498 139.944C27.3035 139.942 27.2581 139.931 27.2162 139.911C27.1744 139.891 27.1369 139.863 27.106 139.829C27.0751 139.794 27.0515 139.754 27.0365 139.71C27.0215 139.667 27.0154 139.62 27.0186 139.574L26.9851 130.725C26.9858 130.671 26.9751 130.616 26.9536 130.566C26.9321 130.515 26.9003 130.47 26.8603 130.433L19.4079 123.777C19.3356 123.71 19.29 123.619 19.2794 123.521C19.2688 123.423 19.294 123.325 19.3503 123.244Z" fill="white"/>
<path d="M0.361786 115.518C0.392512 115.483 0.430903 115.455 0.473965 115.438C0.517027 115.42 0.563596 115.413 0.610043 115.416C0.656489 115.419 0.701556 115.433 0.741731 115.457C0.781906 115.48 0.816104 115.513 0.841656 115.551L10.8517 128.287C11.0629 128.561 11.4612 128.359 11.418 127.994L10.5974 120.566C10.5805 120.473 10.6006 120.378 10.6536 120.299C10.7065 120.221 10.788 120.167 10.8805 120.149C10.9258 120.145 10.9714 120.15 11.0146 120.164C11.0578 120.178 11.0976 120.201 11.1317 120.231C11.1658 120.261 11.1934 120.298 11.213 120.339C11.2325 120.38 11.2434 120.425 11.2452 120.47L12.3201 130.149L16.1975 135.125C16.2396 135.177 16.2967 135.215 16.361 135.232C16.4253 135.25 16.4935 135.248 16.5563 135.225C16.6191 135.202 16.6732 135.161 16.7112 135.106C16.7493 135.051 16.7693 134.986 16.7685 134.919L17.4739 127.817C17.4758 127.771 17.4867 127.726 17.5061 127.685C17.5255 127.643 17.553 127.606 17.5869 127.575C17.6209 127.544 17.6606 127.52 17.7038 127.505C17.747 127.49 17.7929 127.483 17.8386 127.486C17.931 127.503 18.0129 127.556 18.0667 127.633C18.1205 127.711 18.142 127.806 18.1266 127.898L17.2868 136.325C17.2753 136.429 17.3045 136.534 17.3684 136.618L22.5941 143.274C22.6525 143.35 22.6821 143.445 22.6777 143.542C22.6733 143.638 22.6353 143.73 22.5701 143.801C22.5398 143.837 22.5017 143.864 22.4588 143.882C22.416 143.901 22.3695 143.908 22.3231 143.906C22.2767 143.903 22.2315 143.889 22.1911 143.866C22.1507 143.843 22.1162 143.811 22.0903 143.773L19.2686 140.178C19.2382 140.138 19.1982 140.105 19.1522 140.083C19.1062 140.061 19.0555 140.051 19.0047 140.054L13.7981 140.413C13.7521 140.413 13.7066 140.404 13.6641 140.387C13.6216 140.369 13.583 140.343 13.5504 140.311C13.5179 140.278 13.4921 140.24 13.4745 140.197C13.4569 140.155 13.4478 140.109 13.4478 140.063C13.4382 139.969 13.4653 139.875 13.5235 139.801C13.5817 139.727 13.6663 139.678 13.7597 139.665L17.9298 139.377C17.995 139.364 18.0558 139.335 18.1063 139.292C18.1568 139.249 18.1953 139.194 18.2181 139.131C18.2408 139.069 18.2469 139.002 18.236 138.936C18.225 138.871 18.1972 138.809 18.1553 138.758L13.9757 133.436C13.9466 133.399 13.9095 133.369 13.8671 133.348C13.8247 133.327 13.7782 133.316 13.731 133.316H6.28337C6.19086 133.309 6.10491 133.266 6.04392 133.196C5.98293 133.126 5.95176 133.035 5.95707 132.942C5.95381 132.896 5.95967 132.85 5.97432 132.806C5.98897 132.762 6.01212 132.722 6.04244 132.687C6.07276 132.652 6.10966 132.624 6.151 132.603C6.19235 132.583 6.23733 132.571 6.28337 132.568H12.5601C12.6323 132.565 12.7024 132.542 12.7622 132.502C12.8221 132.461 12.8692 132.405 12.8983 132.338C12.9274 132.272 12.9372 132.199 12.9266 132.128C12.916 132.056 12.8854 131.989 12.8384 131.934L8.23165 126.065C8.20259 126.027 8.16492 125.995 8.12161 125.974C8.0783 125.952 8.03054 125.941 7.98211 125.941L3.18342 126.008C3.13739 126.005 3.0923 125.994 3.05074 125.974C3.00917 125.954 2.97194 125.926 2.94118 125.892C2.91042 125.857 2.88673 125.817 2.87148 125.774C2.85623 125.73 2.84972 125.684 2.85231 125.638C2.84837 125.592 2.85357 125.546 2.86762 125.502C2.88167 125.458 2.90429 125.417 2.93418 125.382C2.96406 125.347 3.00062 125.318 3.04175 125.297C3.08288 125.276 3.12776 125.263 3.17382 125.259L6.82083 125.211C6.88807 125.201 6.95146 125.174 7.00451 125.131C7.05756 125.089 7.09837 125.033 7.12277 124.969C7.14718 124.906 7.15429 124.837 7.1434 124.77C7.1325 124.703 7.10399 124.64 7.06076 124.587L0.361786 116.046C0.30012 115.972 0.266357 115.878 0.266357 115.782C0.266357 115.685 0.30012 115.592 0.361786 115.518Z" fill="white"/>
<path d="M34.3222 132.548C34.3676 132.545 34.4132 132.551 34.4564 132.565C34.4995 132.58 34.5394 132.602 34.5738 132.632C34.6081 132.662 34.6362 132.698 34.6564 132.739C34.6767 132.78 34.6887 132.824 34.6917 132.87L35.2532 137.587C35.2537 137.652 35.2739 137.715 35.3111 137.768C35.3483 137.821 35.4007 137.862 35.4615 137.885C35.5222 137.908 35.5885 137.912 35.6515 137.896C35.7146 137.881 35.7714 137.846 35.8146 137.798L40.1574 132.659C40.2223 132.577 40.2532 132.474 40.2438 132.371L39.7111 123.906C39.6988 123.813 39.7237 123.719 39.7803 123.644C39.8369 123.57 39.9207 123.521 40.0135 123.508C40.059 123.506 40.1043 123.514 40.1468 123.531C40.1892 123.547 40.2279 123.572 40.2606 123.604C40.2933 123.636 40.3192 123.674 40.337 123.716C40.3547 123.758 40.3638 123.803 40.3638 123.848L40.8436 130.984C40.8417 131.05 40.8602 131.116 40.8965 131.171C40.9328 131.227 40.9853 131.27 41.0469 131.295C41.1084 131.321 41.1762 131.326 41.2411 131.312C41.306 131.297 41.3649 131.263 41.4099 131.214L46.2086 125.537C46.2734 125.454 46.3057 125.35 46.2998 125.245L45.8823 119.813C45.8709 119.719 45.8953 119.626 45.9505 119.55C46.0057 119.474 46.0877 119.422 46.1798 119.405C46.2256 119.403 46.2711 119.411 46.3139 119.428C46.3566 119.444 46.3956 119.469 46.4286 119.501C46.4617 119.532 46.4881 119.57 46.5063 119.612C46.5246 119.654 46.5343 119.7 46.5349 119.745L46.8516 123.882C46.8492 123.948 46.8672 124.013 46.9033 124.069C46.9393 124.124 46.9916 124.167 47.0531 124.192C47.1145 124.217 47.182 124.222 47.2464 124.207C47.3109 124.191 47.3691 124.157 47.4131 124.107L54.3952 115.844C54.4234 115.807 54.4597 115.777 54.5013 115.757C54.5429 115.736 54.5887 115.726 54.6351 115.726C54.6815 115.726 54.7273 115.736 54.7689 115.757C54.8105 115.777 54.8468 115.807 54.875 115.844C54.9367 115.918 54.9705 116.011 54.9705 116.108C54.9705 116.204 54.9367 116.298 54.875 116.372L44.4715 128.69C44.2459 128.954 44.4715 129.386 44.769 129.314L51.2136 127.822C51.2582 127.814 51.3039 127.816 51.3478 127.827C51.3917 127.838 51.4329 127.857 51.4689 127.885C51.5049 127.912 51.5348 127.947 51.557 127.986C51.5791 128.026 51.5929 128.069 51.5975 128.114C51.6187 128.206 51.6042 128.303 51.5571 128.385C51.5099 128.467 51.4335 128.528 51.3432 128.556L42.9119 130.494L38.8474 135.293C38.8018 135.345 38.7709 135.407 38.7579 135.475C38.7448 135.542 38.7501 135.612 38.7731 135.676C38.7961 135.741 38.8361 135.798 38.8888 135.842C38.9416 135.886 39.0051 135.915 39.0729 135.927L45.34 136.2C45.3861 136.204 45.4309 136.218 45.4718 136.239C45.5127 136.261 45.549 136.29 45.5784 136.326C45.6078 136.362 45.6299 136.403 45.6434 136.447C45.6568 136.491 45.6614 136.538 45.6567 136.584C45.6587 136.63 45.6513 136.676 45.6351 136.719C45.6188 136.762 45.594 136.801 45.5622 136.834C45.5303 136.867 45.4921 136.894 45.4498 136.912C45.4075 136.93 45.362 136.939 45.316 136.939L37.878 136.618C37.8304 136.616 37.783 136.626 37.7397 136.646C37.6964 136.666 37.6583 136.695 37.6285 136.733L32.1964 143.163C32.1682 143.2 32.1318 143.23 32.0902 143.25C32.0486 143.271 32.0029 143.281 31.9565 143.281C31.9101 143.281 31.8643 143.271 31.8227 143.25C31.7811 143.23 31.7447 143.2 31.7165 143.163C31.6549 143.089 31.6211 142.995 31.6211 142.899C31.6211 142.803 31.6549 142.709 31.7165 142.635L34.6533 139.161C34.6876 139.118 34.7129 139.069 34.7278 139.016C34.7426 138.963 34.7467 138.908 34.7397 138.854L34.0391 132.961C34.0259 132.869 34.0477 132.776 34.1001 132.699C34.1526 132.623 34.2319 132.569 34.3222 132.548Z" fill="white"/>
<path d="M154.016 122.544L82.7312 142.608C81.9617 142.797 81.152 142.736 80.4195 142.434C79.6869 142.132 79.0696 141.605 78.6571 140.928L24.5998 43.6395C24.4165 43.3504 24.306 43.0212 24.2779 42.68C24.2498 42.3388 24.3049 41.9959 24.4384 41.6807C24.5719 41.3655 24.78 41.0874 25.0446 40.8703C25.3092 40.6531 25.6226 40.5034 25.9578 40.434L97.2424 20.3707C98.0107 20.1805 98.8195 20.2404 99.5513 20.5416C100.283 20.8428 100.9 21.3696 101.312 22.0454L155.359 119.334C155.543 119.623 155.653 119.951 155.682 120.292C155.711 120.632 155.657 120.975 155.525 121.29C155.393 121.605 155.187 121.884 154.924 122.102C154.662 122.321 154.35 122.472 154.016 122.544Z" fill="#263238" stroke="black" stroke-miterlimit="10"/>
<path d="M81.7283 138.343C81.7283 138.343 122.92 128.544 150.647 118.942L81.7283 138.343Z" fill="#884849"/>
<path d="M150.647 118.942L81.7281 138.343L28.4194 42.4076L97.3383 23.0112L150.647 118.942Z" fill="white" stroke="#263238" stroke-miterlimit="10"/>
<path d="M76.9248 43.3281L82.2753 41.8213" stroke="#263238" stroke-miterlimit="10"/>
<path d="M39.8118 53.7753L72.7836 44.4946" stroke="#263238" stroke-miterlimit="10"/>
<path d="M71.0559 49.2884L84.3483 45.5454" stroke="#263238" stroke-miterlimit="10"/>
<path d="M50.6855 55.0214L67.4282 50.3091" stroke="#263238" stroke-miterlimit="10"/>
<path d="M41.8799 57.4983L47.5759 55.8955" stroke="#263238" stroke-miterlimit="10"/>
<path d="M60.5229 56.5622L86.4215 49.2729" stroke="#263238" stroke-miterlimit="10"/>
<path d="M43.9529 61.2266L54.8267 58.165" stroke="#263238" stroke-miterlimit="10"/>
<path d="M100.923 40.5208C100.241 39.4065 99.2234 38.5374 98.016 38.0389C96.8086 37.5404 95.4741 37.4383 94.2048 37.7471C91.7239 38.4477 90.721 40.8183 91.959 43.0497C92.6391 44.1656 93.6568 45.036 94.8647 45.5347C96.0726 46.0334 97.408 46.1345 98.6772 45.8233C101.134 45.1275 102.161 42.7522 100.923 40.5208Z" fill="white" stroke="#263238" stroke-miterlimit="10"/>
<path d="M54.3947 68.8813L49.0442 70.3881" stroke="#263238" stroke-miterlimit="10"/>
<path d="M91.508 58.4331L58.5361 67.7138" stroke="#263238" stroke-miterlimit="10"/>
<path d="M64.4049 70.3726L51.1125 74.1155" stroke="#263238" stroke-miterlimit="10"/>
<path d="M84.7754 64.6392L68.0327 69.3515" stroke="#263238" stroke-miterlimit="10"/>
<path d="M93.5808 62.1636L87.8848 63.7663" stroke="#263238" stroke-miterlimit="10"/>
<path d="M79.0795 70.5503L53.1858 77.8395" stroke="#263238" stroke-miterlimit="10"/>
<path d="M95.654 65.8862L84.7754 68.9478" stroke="#263238" stroke-miterlimit="10"/>
<path d="M110.156 57.1376C109.476 56.0217 108.458 55.1513 107.25 54.6526C106.042 54.1539 104.707 54.0528 103.437 54.364C100.957 55.0598 99.9536 57.4351 101.192 59.6425C101.871 60.759 102.889 61.6298 104.097 62.1286C105.305 62.6274 106.641 62.7281 107.91 62.4162C110.386 61.7395 111.394 59.3642 110.156 57.1376Z" fill="white" stroke="#263238" stroke-miterlimit="10"/>
<path d="M95.3901 76.5546L100.741 75.0479" stroke="#263238" stroke-miterlimit="10"/>
<path d="M58.2771 87.0004L91.2489 77.7197" stroke="#263238" stroke-miterlimit="10"/>
<path d="M89.5212 82.5198L102.814 78.7769" stroke="#263238" stroke-miterlimit="10"/>
<path d="M69.1509 88.2533L85.8935 83.5361" stroke="#263238" stroke-miterlimit="10"/>
<path d="M60.3452 90.7297L66.0413 89.127" stroke="#263238" stroke-miterlimit="10"/>
<path d="M78.9883 89.7888L104.882 82.5044" stroke="#263238" stroke-miterlimit="10"/>
<path d="M62.4182 94.4581L73.292 91.3965" stroke="#263238" stroke-miterlimit="10"/>
<path d="M119.686 76.8949C120.508 74.8033 119.029 72.2643 116.383 71.224C113.736 70.1836 110.924 71.0358 110.102 73.1274C109.28 75.219 110.759 77.7579 113.405 78.7983C116.052 79.8387 118.864 78.9865 119.686 76.8949Z" fill="white" stroke="#263238" stroke-miterlimit="10"/>
<path d="M72.8601 102.111L67.5095 103.618" stroke="#263238" stroke-miterlimit="10"/>
<path d="M109.973 91.6646L77.0015 100.945" stroke="#263238" stroke-miterlimit="10"/>
<path d="M82.8703 103.604L69.5779 107.342" stroke="#263238" stroke-miterlimit="10"/>
<path d="M103.241 97.8706L86.4983 102.583" stroke="#263238" stroke-miterlimit="10"/>
<path d="M112.046 95.3901L106.35 96.9929" stroke="#263238" stroke-miterlimit="10"/>
<path d="M97.5449 103.782L71.6511 111.071" stroke="#263238" stroke-miterlimit="10"/>
<path d="M114.115 99.1177L103.241 102.179" stroke="#263238" stroke-miterlimit="10"/>
<path d="M128.616 90.3654C127.936 89.25 126.918 88.3801 125.71 87.8815C124.502 87.3828 123.167 87.2814 121.898 87.5918C119.417 88.2924 118.414 90.6629 119.652 92.8943C120.332 94.0103 121.35 94.8807 122.558 95.3794C123.766 95.8781 125.101 95.9791 126.371 95.668C128.851 94.9866 129.859 92.5872 128.616 90.3654Z" fill="white" stroke="#263238" stroke-miterlimit="10"/>
<path d="M113.855 109.785L119.206 108.278" stroke="#263238" stroke-miterlimit="10"/>
<path d="M76.7424 120.232L109.714 110.951" stroke="#263238" stroke-miterlimit="10"/>
<path d="M107.987 115.745L121.279 112.007" stroke="#263238" stroke-miterlimit="10"/>
<path d="M87.6162 121.48L104.359 116.768" stroke="#263238" stroke-miterlimit="10"/>
<path d="M78.8108 123.96L84.5068 122.353" stroke="#263238" stroke-miterlimit="10"/>
<path d="M97.4536 123.02L123.347 115.731" stroke="#263238" stroke-miterlimit="10"/>
<path d="M80.8835 127.685L91.7574 124.624" stroke="#263238" stroke-miterlimit="10"/>
<path d="M138.15 110.122C138.972 108.03 137.493 105.491 134.846 104.451C132.2 103.411 129.388 104.263 128.566 106.354C127.743 108.446 129.222 110.985 131.869 112.025C134.516 113.066 137.328 112.214 138.15 110.122Z" fill="white" stroke="#263238" stroke-miterlimit="10"/>
<path d="M74.0072 24.637L64.9473 27.1851C64.2611 27.2139 63.5077 27.1611 63.2965 26.8108C62.8166 25.9086 63.4309 25.064 63.6228 24.2675C63.845 23.3493 63.7022 22.3808 63.2245 21.5658C62.5252 20.4193 61.4788 19.5255 60.2372 19.0138C58.9956 18.5021 57.6232 18.3993 56.3192 18.7202C53.7759 19.44 52.749 21.8729 54.0158 24.1571C54.6374 25.2122 55.569 26.05 56.6839 26.5564C56.6839 26.5564 58.5218 27.377 58.8913 28.0392C59.0881 28.3895 58.5746 28.8022 58.0515 29.1141L48.2862 31.8638C47.918 31.9412 47.574 32.1065 47.2835 32.3457C46.9931 32.5849 46.7648 32.8908 46.6182 33.2373C46.4716 33.5838 46.411 33.9606 46.4416 34.3356C46.4721 34.7106 46.593 35.0727 46.7938 35.3908L48.1134 37.7614L79.8184 28.8406L78.4988 26.4653C78.0426 25.7217 77.3609 25.1433 76.5529 24.8144C75.7449 24.4855 74.853 24.4233 74.0072 24.637ZM57.8692 21.537C58.287 21.4335 58.7269 21.4661 59.1248 21.6301C59.5227 21.7942 59.8579 22.081 60.0814 22.4488C60.1807 22.6056 60.2405 22.7843 60.2555 22.9694C60.2706 23.1544 60.2405 23.3404 60.1678 23.5113C60.0951 23.6821 59.982 23.8328 59.8382 23.9503C59.6945 24.0678 59.5243 24.1486 59.3424 24.1859C58.9258 24.2895 58.4871 24.2574 58.09 24.0942C57.693 23.9311 57.3584 23.6455 57.135 23.2789C57.0358 23.122 56.976 22.9434 56.9607 22.7584C56.9454 22.5733 56.9751 22.3873 57.0472 22.2162C57.1193 22.0452 57.2317 21.894 57.3749 21.7758C57.518 21.6575 57.6876 21.5756 57.8692 21.537Z" fill="#00DCA6" stroke="#263238" stroke-miterlimit="10"/>
<path d="M93.5571 40.7986L97.4681 43.5291L101.499 34.4932" stroke="#00DCA6" stroke-width="2" stroke-linecap="round" stroke-linejoin="round"/>
<path d="M102.646 57.1585L106.557 59.8842L110.588 50.853" stroke="#00DCA6" stroke-width="2" stroke-linecap="round" stroke-linejoin="round"/>
<path d="M119.662 67.585L113.659 74.8934L114.177 75.9395L122.666 73.8713L182.415 39.0903C183.011 38.7412 183.532 38.2763 183.946 37.7228C184.36 37.1693 184.659 36.5386 184.825 35.8677C184.992 35.1969 185.022 34.4995 184.915 33.8168C184.807 33.134 184.564 32.4796 184.2 31.8923C183.836 31.3105 183.36 30.807 182.8 30.411C182.239 30.0151 181.606 29.7346 180.936 29.5858C180.266 29.4371 179.573 29.4232 178.898 29.5448C178.222 29.6664 177.578 29.9212 177.002 30.2943L119.662 67.585Z" fill="#00DCA6" stroke="#263238" stroke-linecap="round" stroke-linejoin="round"/>
<path d="M149.683 54.0381L147.735 55.2953" stroke="#263238" stroke-linecap="round" stroke-linejoin="round"/>
<path d="M166.454 43.2505L152.063 52.512" stroke="#263238" stroke-linecap="round" stroke-linejoin="round"/>
<path d="M114.216 74.7402C114.216 74.7402 112.723 75.3641 112.954 75.9927C113.184 76.6213 115.324 75.1001 115.324 75.1001L114.216 74.7402Z" fill="#00DCA6" stroke="#263238" stroke-linecap="round" stroke-linejoin="round"/>
<path d="M113.659 74.8932L114.177 75.9393L122.666 73.8711C117.964 72.0428 119.662 67.604 119.662 67.604L113.659 74.8932Z" fill="white" stroke="#263238" stroke-linecap="round" stroke-linejoin="round"/>
<path d="M184.2 31.8591C183.836 31.2773 183.36 30.7738 182.799 30.3778C182.239 29.9819 181.605 29.7013 180.935 29.5526C180.265 29.4039 179.573 29.39 178.897 29.5116C178.222 29.6332 177.578 29.888 177.002 30.2611L166.579 37.0464C166.298 37.7618 166.155 38.5237 166.157 39.2922C166.127 40.8329 166.708 42.3227 167.774 43.4359C168.84 44.5492 170.303 45.1953 171.843 45.233L182.434 39.0715C183.031 38.7209 183.551 38.2541 183.965 37.6987C184.378 37.1434 184.676 36.5108 184.84 35.8384C185.005 35.1659 185.033 34.4673 184.923 33.7838C184.813 33.1003 184.567 32.4458 184.2 31.8591Z" fill="white" stroke="#263238" stroke-linecap="round" stroke-linejoin="round"/>
<path d="M184.2 31.8591C183.836 31.2773 183.36 30.7738 182.799 30.3778C182.239 29.9819 181.605 29.7013 180.935 29.5526C180.265 29.4039 179.573 29.39 178.897 29.5116C178.222 29.6332 177.578 29.888 177.002 30.2611L169.084 35.4197C168.701 36.2094 168.502 37.0758 168.503 37.9534C168.493 38.7003 168.63 39.442 168.907 40.1358C169.184 40.8296 169.595 41.4621 170.116 41.9969C170.638 42.5318 171.26 42.9586 171.946 43.2528C172.633 43.5471 173.371 43.7031 174.118 43.7118C174.247 43.7118 174.382 43.7118 174.506 43.7118L182.434 39.1003C183.035 38.7497 183.559 38.2816 183.975 37.724C184.391 37.1664 184.69 36.5307 184.855 35.8548C185.02 35.1789 185.047 34.4767 184.934 33.7902C184.822 33.1037 184.572 32.4469 184.2 31.8591Z" fill="#263238" stroke="#263238" stroke-linecap="round" stroke-linejoin="round"/>
<path d="M146.137 80.5897C146.118 80.6427 146.103 80.6973 146.094 80.7529C146.151 80.5897 146.17 80.5273 146.137 80.5897Z" fill="#263238"/>
</svg>
