<svg width="54" height="54" viewBox="0 0 54 54" fill="none" xmlns="http://www.w3.org/2000/svg">
<rect width="54" height="54" rx="8" fill="#00DCA6"/>
<path d="M17.4835 38.9982C17.1342 38.8236 16.9976 38.5465 17 38.1473C17.0241 33.8647 20.1475 30.0389 24.3121 29.2136C24.8332 29.1061 25.3636 29.0518 25.8954 29.0516C26.9285 29.0591 27.9616 29.0428 28.9941 29.056C31.1369 29.0848 33.0207 29.8305 34.6418 31.2339C36.3265 32.6916 37.3621 34.5392 37.7429 36.7515C37.8166 37.2054 37.8579 37.6642 37.8665 38.1241C37.8789 38.5289 37.7429 38.8211 37.3825 39L17.4835 38.9982ZM27.4404 37.5767H33.5468C34.426 37.5767 35.3051 37.5767 36.1843 37.5767C36.3395 37.5767 36.4025 37.5454 36.3784 37.3627C36.2931 36.7258 36.1651 36.1002 35.924 35.5058C34.8464 32.8468 32.9385 31.1713 30.1335 30.6295C28.7177 30.3555 27.2741 30.5044 25.8422 30.5044C25.427 30.5098 25.0132 30.5534 24.6057 30.6345C21.4335 31.2476 18.9055 33.9905 18.5104 37.2626C18.4727 37.5754 18.4727 37.5754 18.7911 37.5754L27.4404 37.5767Z" fill="white"/>
<path d="M27.4249 27.6813C26.6016 27.6825 25.7861 27.5189 25.0255 27.1999C24.2649 26.8809 23.5741 26.4128 22.993 25.8226C22.4118 25.2324 21.9517 24.5317 21.6392 23.7608C21.3267 22.99 21.1679 22.1642 21.172 21.331C21.172 17.8205 23.9695 15.0163 27.4472 15.0001C30.8828 14.9838 33.736 17.8968 33.7051 21.3773C33.695 23.055 33.0284 24.6602 31.8514 25.8417C30.6744 27.0232 29.0828 27.6847 27.4249 27.6813ZM27.4249 16.4428C24.7188 16.4972 22.6026 18.6219 22.6026 21.3466C22.6063 24.0839 24.7374 26.2305 27.4323 26.2317C30.1273 26.233 32.272 24.0851 32.2652 21.3266C32.2596 18.5957 30.1279 16.4822 27.4255 16.4422L27.4249 16.4428Z" fill="white"/>
</svg>
